<svg xmlns="http://www.w3.org/2000/svg" width="16" height="16" viewBox="0 0 16 16">
  <defs>
    <style>
      .cls-1 {
        fill: #fff20e;
        stroke-linecap: round;
        stroke-linejoin: round;
      }

      .cls-2, .cls-3 {
        stroke: none;
      }

      .cls-3 {
        fill: #fff;
      }
    </style>
  </defs>
  <g id="_11" data-name="11" class="cls-1" transform="translate(-174.36 -332.789)">
    <path class="cls-2" d="M 182.3599853515625 347.7890625 C 181.8397064208984 347.7890625 181.3922424316406 347.4425964355469 181.2633666992188 346.9434204101563 C 181.0329895019531 346.0908203125 180.40673828125 344.3055114746094 179.6823883056641 343.6405029296875 C 178.6932373046875 342.7341918945313 177.8942108154297 342.21484375 176.2763671875 341.8944702148438 C 175.7447967529297 341.7915954589844 175.3599548339844 341.3256225585938 175.3599548339844 340.7831115722656 C 175.3599548339844 340.2547912597656 175.7361602783203 339.789306640625 176.2545013427734 339.67626953125 L 176.2640686035156 339.6741943359375 L 176.2736968994141 339.6723022460938 C 177.8959197998047 339.3517761230469 178.6944122314453 338.8326110839844 179.6824493408203 337.9256591796875 C 180.4075927734375 337.2599792480469 181.0339660644531 335.4741821289063 181.2638549804688 334.6229248046875 L 181.2643432617188 334.6211547851563 C 181.3938446044922 334.13037109375 181.842041015625 333.7890014648438 182.3599700927734 333.7890014648438 C 182.8734893798828 333.7890014648438 183.3236694335938 334.1290588378906 183.4547424316406 334.6159973144531 L 183.4630737304688 334.64697265625 L 183.4644012451172 334.6535339355469 C 183.6710662841797 335.4494323730469 184.3171234130859 337.2643432617188 185.0375671386719 337.9256896972656 C 186.0255737304688 338.8326110839844 186.8240356445313 339.3517761230469 188.4462280273438 339.6723022460938 L 188.4557647705078 339.6741638183594 L 188.4652557373047 339.6762390136719 C 188.9837188720703 339.7891845703125 189.3600158691406 340.2546997070313 189.3600158691406 340.7831115722656 C 189.3600158691406 341.32568359375 188.9750823974609 341.7916259765625 188.4434509277344 341.8945007324219 C 186.8231964111328 342.2149963378906 186.0251312255859 342.7340698242188 185.0375366210938 343.6405639648438 C 184.3184661865234 344.2995910644531 183.6692352294922 346.1244812011719 183.4625091552734 346.9201354980469 L 183.4612426757813 346.926025390625 L 183.4548187255859 346.9498901367188 C 183.3219909667969 347.4439697265625 182.8717803955078 347.7890625 182.3599853515625 347.7890625 Z"/>
    <path class="cls-3" d="M 182.3599853515625 346.7890625 C 182.4206237792969 346.7890625 182.4734802246094 346.7484130859375 182.4891052246094 346.6902770996094 C 182.4949645996094 346.6632080078125 183.2031555175781 343.9653015136719 184.3613128662109 342.9038696289063 C 185.4627075195313 341.8929138183594 186.4095764160156 341.2769775390625 188.2523956298828 340.9129028320313 C 188.3150024414063 340.9013061523438 188.3600158691406 340.8469848632813 188.3600158691406 340.7831115722656 C 188.3600158691406 340.7211608886719 188.3150024414063 340.6669616699219 188.2523956298828 340.6533203125 C 186.4095764160156 340.2892150878906 185.4627075195313 339.6733703613281 184.3613128662109 338.662353515625 C 183.2051086425781 337.6009826660156 182.4949645996094 334.9049987792969 182.4891052246094 334.8759155273438 C 182.4735260009766 334.8180541992188 182.4167175292969 334.7890014648438 182.3599700927734 334.7890014648438 C 182.302734375 334.7890014648438 182.2455902099609 334.8185424804688 182.2308349609375 334.8778686523438 C 182.2230529785156 334.9049987792969 181.5148468017578 337.6009826660156 180.3586730957031 338.662353515625 C 179.2572631835938 339.6733703613281 178.3103790283203 340.2892150878906 176.467529296875 340.6533203125 C 176.4049682617188 340.6669616699219 176.3599548339844 340.7211608886719 176.3599548339844 340.7831115722656 C 176.3599548339844 340.8469848632813 176.4049682617188 340.9013061523438 176.467529296875 340.9129028320313 C 178.3084716796875 341.2769775390625 179.2553100585938 341.8929138183594 180.3586730957031 342.9038696289063 C 181.5148468017578 343.9653015136719 182.2230529785156 346.6632080078125 182.2308349609375 346.6902770996094 C 182.2445373535156 346.7484130859375 182.2993469238281 346.7890625 182.3599853515625 346.7890625 M 182.3599853515625 348.7890625 C 181.3827972412109 348.7890625 180.5417327880859 348.1380920410156 180.2967224121094 347.1995849609375 C 179.9713439941406 345.9975280761719 179.3929443359375 344.7322998046875 179.0061187744141 344.3771667480469 C 178.1187286376953 343.5640869140625 177.4852905273438 343.1535339355469 176.0842132568359 342.8758239746094 C 175.0839233398438 342.6812438964844 174.3599548339844 341.8041687011719 174.3599548339844 340.7831115722656 C 174.3599548339844 339.7880554199219 175.067138671875 338.9116516113281 176.0414733886719 338.69921875 C 176.0542449951172 338.6964416503906 176.0670318603516 338.6937866210938 176.0798492431641 338.6912536621094 C 177.486083984375 338.4134216308594 178.1191253662109 338.0032653808594 179.0062103271484 337.18896484375 C 179.3939208984375 336.8330688476563 179.9736328125 335.56494140625 180.2984313964844 334.3622131347656 C 180.2984771728516 334.362060546875 180.2985076904297 334.3619384765625 180.2985382080078 334.3617858886719 C 180.5452728271484 333.4339904785156 181.3879547119141 332.7890014648438 182.3599700927734 332.7890014648438 C 183.3248138427734 332.7890014648438 184.1720886230469 333.4334716796875 184.42041015625 334.356201171875 C 184.4235534667969 334.3678894042969 184.4265899658203 334.3796081542969 184.4295196533203 334.391357421875 C 184.6637573242188 335.2841491699219 185.2637329101563 336.7758483886719 185.7138214111328 337.1889953613281 C 186.6008605957031 338.0032653808594 187.2338714599609 338.4134216308594 188.6400604248047 338.6912536621094 C 188.6527709960938 338.6937561035156 188.6654663085938 338.6964111328125 188.6781311035156 338.6991577148438 C 189.6526794433594 338.9114685058594 190.3600158691406 339.7879028320313 190.3600158691406 340.7831115722656 C 190.3600158691406 341.8035583496094 189.6368560791016 342.6801452636719 188.6375122070313 342.87548828125 C 187.2332916259766 343.1532287597656 186.6004028320313 343.5634155273438 185.7137451171875 344.3772888183594 C 185.2638702392578 344.7895812988281 184.6631164550781 346.2848510742188 184.4282989501953 347.1796569824219 C 184.42578125 347.1896362304688 184.4231872558594 347.1995849609375 184.4205322265625 347.2095031738281 C 184.1705017089844 348.1395263671875 183.3231811523438 348.7890625 182.3599853515625 348.7890625 Z"/>
  </g>
</svg>
