<svg xmlns="http://www.w3.org/2000/svg" width="29.885" height="29.885" viewBox="0 0 29.885 29.885">
  <defs>
    <style>
      .cls-1 {
        fill: #fff20e;
        stroke-linecap: round;
        stroke-linejoin: round;
      }

      .cls-2, .cls-3 {
        stroke: none;
      }

      .cls-3 {
        fill: #fff;
      }
    </style>
  </defs>
  <g id="_7" data-name="7" class="cls-1" transform="translate(-174.36 -332.789)">
    <path class="cls-2" d="M 189.3023986816406 361.6737976074219 C 188.7093811035156 361.6737976074219 188.1998443603516 361.2793273925781 188.0557250976563 360.7117309570313 L 188.0548553466797 360.7085876464844 C 187.489501953125 358.6147766113281 186.0644073486328 354.6412963867188 184.3091583251953 353.0298461914063 C 182.0157318115234 350.9284973144531 180.1622772216797 349.7247009277344 176.4019165039063 348.9803466796875 C 175.7976837158203 348.864501953125 175.3599548339844 348.3351745605469 175.3599548339844 347.7185974121094 C 175.3599548339844 347.1185607910156 175.7888031005859 346.5898742675781 176.3796691894531 346.4614868164063 L 176.3889007568359 346.4595031738281 L 176.3981628417969 346.4576721191406 C 180.1668243408203 345.7129821777344 182.0191345214844 344.5093994140625 184.3092346191406 342.4073181152344 C 186.0649719238281 340.7955322265625 187.4898376464844 336.8246765136719 188.0549468994141 334.7324829101563 L 188.0565490722656 334.7266845703125 C 188.2002716064453 334.1738586425781 188.7105712890625 333.7889404296875 189.3022918701172 333.7889404296875 C 189.8972320556641 333.7889404296875 190.3972625732422 334.1618041992188 190.5465393066406 334.7167663574219 L 190.5547485351563 334.7472839355469 L 190.5566711425781 334.7567749023438 C 190.8572692871094 335.9439086914063 192.3416900634766 340.6137084960938 194.2955780029297 342.4073486328125 C 196.5856170654297 344.5093994140625 198.4378814697266 345.7130126953125 202.2064819335938 346.4576721191406 L 202.2156829833984 346.45947265625 L 202.2248382568359 346.4614562988281 C 202.8158264160156 346.5898132324219 203.2447814941406 347.1184997558594 203.2447814941406 347.7185974121094 C 203.2447814941406 348.3355712890625 202.8065643310547 348.8651428222656 202.2016906738281 348.9805297851563 C 198.4365081787109 349.7251892089844 196.5847473144531 350.9286804199219 194.2955474853516 353.0299072265625 C 193.3940124511719 353.8561706542969 192.4714813232422 355.4046630859375 191.6271057128906 357.5084838867188 C 190.9624481201172 359.1645202636719 190.5877380371094 360.5634460449219 190.5543212890625 360.6903686523438 L 190.5529479980469 360.6966857910156 L 190.5465850830078 360.7203369140625 C 190.3956756591797 361.28173828125 189.8840637207031 361.6737976074219 189.3023986816406 361.6737976074219 Z"/>
    <path class="cls-3" d="M 189.3023986816406 360.6737976074219 C 189.4331665039063 360.6737976074219 189.5471801757813 360.5860900878906 189.5808715820313 360.4607543945313 C 189.5935363769531 360.40234375 191.1211242675781 354.5828247070313 193.6193237304688 352.293212890625 C 195.9951171875 350.1124877929688 198.0375366210938 348.7839660644531 202.0126342773438 347.9985656738281 C 202.147705078125 347.9735717773438 202.2447814941406 347.8564453125 202.2447814941406 347.7185974121094 C 202.2447814941406 347.5849304199219 202.147705078125 347.468017578125 202.0126342773438 347.4386901855469 C 198.0375366210938 346.6532287597656 195.9951171875 345.3247985839844 193.6193237304688 343.1440124511719 C 191.1253356933594 340.8545837402344 189.5935363769531 335.0391540527344 189.5808715820313 334.9765319824219 C 189.5472717285156 334.8516235351563 189.4247131347656 334.7889404296875 189.3023071289063 334.7889404296875 C 189.1788787841797 334.7889404296875 189.0556030273438 334.8526611328125 189.0237731933594 334.9806823730469 C 189.0069885253906 335.0391540527344 187.4793701171875 340.8545837402344 184.9854431152344 343.1440124511719 C 182.609619140625 345.3247985839844 180.567138671875 346.6532287597656 176.5920104980469 347.4386901855469 C 176.45703125 347.468017578125 176.3599548339844 347.5849304199219 176.3599548339844 347.7185974121094 C 176.3599548339844 347.8564453125 176.45703125 347.9735717773438 176.5920104980469 347.9985656738281 C 180.5630187988281 348.7839660644531 182.6054077148438 350.1124877929688 184.9854431152344 352.293212890625 C 187.4793701171875 354.5828247070313 189.0069885253906 360.40234375 189.0237731933594 360.4607543945313 C 189.0533752441406 360.5860900878906 189.1715698242188 360.6737976074219 189.3023986816406 360.6737976074219 M 189.3023986816406 362.6737976074219 C 188.252197265625 362.6737976074219 187.3487854003906 361.9744567871094 187.0888366699219 360.967041015625 C 186.5879669189453 359.113037109375 185.2220916748047 355.2255249023438 183.6328735351563 353.7664794921875 C 181.4775695800781 351.7916870117188 179.7366180419922 350.6601257324219 176.2097778320313 349.9617004394531 C 175.1367950439453 349.7541809082031 174.3599548339844 348.8137512207031 174.3599548339844 347.7185974121094 C 174.3599548339844 346.6515197753906 175.1200714111328 345.7118530273438 176.1673431396484 345.4842834472656 C 176.1796417236328 345.4816284179688 176.1919708251953 345.4790649414063 176.2043151855469 345.4766235351563 C 179.7400970458984 344.7779846191406 181.4801177978516 343.6467590332031 183.6330108642578 341.6705932617188 C 185.223388671875 340.2106323242188 186.5894317626953 336.3232727050781 187.0895538330078 334.4717407226563 C 187.0901641845703 334.4694519042969 187.0907592773438 334.4672546386719 187.0913238525391 334.4651489257813 C 187.3530731201172 333.4764709472656 188.2572937011719 332.7889404296875 189.3022918701172 332.7889404296875 C 190.3393096923828 332.7889404296875 191.2480621337891 333.4748840332031 191.5122222900391 334.4570922851563 C 191.5160827636719 334.4713745117188 191.5197601318359 334.4857177734375 191.5233001708984 334.5000915527344 C 191.5477142333984 334.5924377441406 191.9211120605469 335.984375 192.5746612548828 337.6023559570313 C 193.3478393554688 339.5165710449219 194.1991729736328 340.9613647460938 194.9718322753906 341.670654296875 C 197.1246337890625 343.6467590332031 198.8646240234375 344.7779846191406 202.4003295898438 345.4766235351563 C 202.4125823974609 345.4790344238281 202.4248352050781 345.4815979003906 202.4370422363281 345.4842529296875 C 203.4845123291016 345.7117004394531 204.2447814941406 346.6513671875 204.2447814941406 347.7185974121094 C 204.2447814941406 348.8140869140625 203.4674987792969 349.7546691894531 202.3940277099609 349.9618835449219 C 198.8628387451172 350.6605224609375 197.1234130859375 351.7916259765625 194.9717559814453 353.7666320800781 C 194.1953735351563 354.4781799316406 193.3421325683594 355.9275512695313 192.5680999755859 357.8487548828125 C 191.9104461669922 359.4810791015625 191.5434112548828 360.8609924316406 191.5218353271484 360.9430847167969 C 191.5187835693359 360.9553833007813 191.5156097412109 360.9676818847656 191.5123138427734 360.9799499511719 C 191.2442169189453 361.9772644042969 190.3354644775391 362.6737976074219 189.3023986816406 362.6737976074219 Z"/>
  </g>
</svg>
