<svg xmlns="http://www.w3.org/2000/svg" width="40.002" height="40.002" viewBox="0 0 40.002 40.002">
  <defs>
    <style>
      .cls-1 {
        fill: #fff20e;
        stroke-linecap: round;
        stroke-linejoin: round;
      }

      .cls-2, .cls-3 {
        stroke: none;
      }

      .cls-3 {
        fill: #fff;
      }
    </style>
  </defs>
  <g id="_12" data-name="12" class="cls-1" transform="translate(-174.36 -332.789)">
    <path class="cls-2" d="M 194.3611755371094 371.7913208007813 C 193.7156219482422 371.7913208007813 193.1614227294922 371.3626708984375 193.0056457519531 370.7461242675781 C 193.0049591064453 370.7435607910156 193.0042114257813 370.7408142089844 193.00341796875 370.7378540039063 C 192.2062377929688 367.7850952148438 190.1880798339844 362.1737060546875 187.6805725097656 359.8717346191406 C 184.5082550048828 356.965087890625 181.7851409912109 355.1908569335938 176.4925994873047 354.1435852050781 C 175.8358154296875 354.0179748535156 175.3599548339844 353.4425964355469 175.3599548339844 352.7723999023438 C 175.3599548339844 352.1207275390625 175.8267211914063 351.5460205078125 176.4698181152344 351.4059143066406 L 176.4793243408203 351.4038391113281 L 176.4888610839844 351.4019775390625 C 181.7919616699219 350.3541564941406 184.5135498046875 348.5801391601563 187.6806182861328 345.6730346679688 C 190.1895446777344 343.3698425292969 192.2070465087891 337.7622680664063 193.0036010742188 334.8119812011719 C 193.0048065185547 334.8075256347656 193.0059051513672 334.8034973144531 193.0068664550781 334.7999267578125 C 193.1622161865234 334.2039794921875 193.7168731689453 333.7890014648438 194.3610992431641 333.7890014648438 C 195.0093078613281 333.7890014648438 195.5530700683594 334.1912231445313 195.7141571044922 334.7899169921875 L 195.7224884033203 334.8208618164063 L 195.7242126464844 334.8294372558594 C 195.7691802978516 335.0010375976563 196.2904663085938 336.9546203613281 197.2324676513672 339.2999572753906 C 198.4296569824219 342.2806091308594 199.7468872070313 344.484375 201.041748046875 345.6730651855469 C 204.2087554931641 348.5801391601563 206.9302825927734 350.3541564941406 212.2332916259766 351.4019775390625 L 212.2427215576172 351.4038391113281 L 212.2521209716797 351.4058837890625 C 212.8954315185547 351.5458984375 213.3623352050781 352.12060546875 213.3623352050781 352.7723999023438 C 213.3623352050781 353.4425048828125 212.8866729736328 354.0177307128906 212.2300262451172 354.1434936523438 C 206.9293212890625 355.191162109375 204.2084655761719 356.9650268554688 201.0417175292969 359.8717651367188 C 197.8616027832031 362.7862548828125 195.8005981445313 370.4257202148438 195.7222442626953 370.7232360839844 L 195.7206726074219 370.7304992675781 L 195.7143402099609 370.7541198730469 C 195.5504608154297 371.3648071289063 194.9940185546875 371.7913208007813 194.3611755371094 371.7913208007813 Z"/>
    <path class="cls-3" d="M 194.3611755371094 370.7913208007813 C 194.5430603027344 370.7913208007813 194.7016906738281 370.6693725585938 194.7485046386719 370.4949340820313 C 194.7660827636719 370.4137573242188 196.8908386230469 362.3195190429688 200.3655090332031 359.1350708007813 C 203.6698913574219 356.1019897460938 206.5106506347656 354.2540893554688 212.0394592285156 353.1618041992188 C 212.2273254394531 353.1270141601563 212.3623352050781 352.9640502929688 212.3623352050781 352.7723999023438 C 212.3623352050781 352.5864868164063 212.2273254394531 352.4238891601563 212.0394592285156 352.3829956054688 C 206.5106506347656 351.2905883789063 203.6698913574219 349.4429321289063 200.3655090332031 346.4097290039063 C 196.8966979980469 343.2254028320313 194.7660827636719 335.1370239257813 194.7485046386719 335.0497436523438 C 194.7017974853516 334.8761901855469 194.5313262939453 334.7890014648438 194.3610992431641 334.7890014648438 C 194.1893920898438 334.7890014648438 194.0179138183594 334.8775939941406 193.9736633300781 335.0556030273438 C 193.9503479003906 335.1370239257813 191.8255920410156 343.2254028320313 188.3568420410156 346.4097290039063 C 185.0523986816406 349.4429321289063 182.2115783691406 351.2905883789063 176.6827087402344 352.3829956054688 C 176.4950256347656 352.4238891601563 176.3599548339844 352.5864868164063 176.3599548339844 352.7723999023438 C 176.3599548339844 352.9640502929688 176.4950256347656 353.1270141601563 176.6827087402344 353.1618041992188 C 182.2058410644531 354.2540893554688 185.0465393066406 356.1019897460938 188.3568420410156 359.1350708007813 C 191.8255920410156 362.3195190429688 193.9503479003906 370.4137573242188 193.9736633300781 370.4949340820313 C 194.0148010253906 370.6693725585938 194.1792297363281 370.7913208007813 194.3611755371094 370.7913208007813 M 194.3611755371094 372.7913208007813 C 193.2579956054688 372.7913208007813 192.3096618652344 372.0572814941406 192.0384368896484 371.0002136230469 C 192.0382843017578 370.9996643066406 192.0381317138672 370.9990844726563 192.0379791259766 370.9985046386719 C 191.2688751220703 368.1497192382813 189.3432006835938 362.7555847167969 187.0042877197266 360.6083679199219 C 183.8986053466797 357.7627563476563 181.3891296386719 356.1324157714844 176.3018341064453 355.1252136230469 C 175.1756439208984 354.9084167480469 174.3599548339844 353.9216003417969 174.3599548339844 352.7723999023438 C 174.3599548339844 351.6539306640625 175.1577606201172 350.6683044433594 176.2569580078125 350.4288330078125 C 176.2696075439453 350.4260864257813 176.2823181152344 350.4234313964844 176.2950286865234 350.4209289550781 C 181.3948974609375 349.4132995605469 183.9028015136719 347.7833557128906 187.00439453125 344.9363403320313 C 189.3446807861328 342.7879638671875 191.2696838378906 337.3976440429688 192.0381774902344 334.5513305664063 C 192.0390777587891 334.5479736328125 192.0399475097656 334.5447692871094 192.040771484375 334.5417785644531 C 192.3129577636719 333.508056640625 193.2623748779297 332.7890014648438 194.3610992431641 332.7890014648438 C 195.4505004882813 332.7890014648438 196.4040069580078 333.5049743652344 196.6798248291016 334.5301208496094 C 196.6844024658203 334.5471496582031 196.6887664794922 334.5642700195313 196.6929016113281 334.5814208984375 C 197.0982208251953 336.1762084960938 199.1237030029297 342.5548400878906 201.718017578125 344.9363708496094 C 204.8195037841797 347.7833557128906 207.3273620605469 349.4132995605469 212.4271392822266 350.4209289550781 C 212.4397125244141 350.4234008789063 212.4522705078125 350.426025390625 212.4647979736328 350.4287414550781 C 213.5643005371094 350.6680603027344 214.3623352050781 351.6537170410156 214.3623352050781 352.7723999023438 C 214.3623352050781 353.9217224121094 213.5466156005859 354.9085083007813 212.4202423095703 355.125244140625 C 207.3252563476563 356.1327819824219 204.8184661865234 357.7625122070313 201.7179412841797 360.6084899902344 C 200.5338287353516 361.6936950683594 199.3069305419922 363.762939453125 198.1687316894531 366.5935363769531 C 197.2417297363281 368.89892578125 196.7155303955078 370.8778076171875 196.6903991699219 370.9735412597656 C 196.6871185302734 370.98681640625 196.6837158203125 371.0000610351563 196.6801605224609 371.0132751464844 C 196.3992462158203 372.0601806640625 195.4456329345703 372.7913208007813 194.3611755371094 372.7913208007813 Z"/>
  </g>
</svg>
