<svg xmlns="http://www.w3.org/2000/svg" width="22.047" height="22.047" viewBox="0 0 22.047 22.047">
  <defs>
    <style>
      .cls-1 {
        fill: #f6ffa8;
        stroke-linecap: round;
        stroke-linejoin: round;
      }

      .cls-2, .cls-3 {
        stroke: none;
      }

      .cls-3 {
        fill: #fff;
      }
    </style>
  </defs>
  <g id="_3" data-name="3" class="cls-1" transform="translate(-174.36 -332.789)">
    <path class="cls-2" d="M 185.3836059570313 353.8362426757813 C 184.8319702148438 353.8362426757813 184.3575286865234 353.4690856933594 184.2217559814453 352.9404907226563 L 184.2214813232422 352.939453125 C 183.8359069824219 351.5111694335938 182.8704376220703 348.806640625 181.6974945068359 347.7297973632813 C 180.1399993896484 346.302734375 178.8817291259766 345.4852905273438 176.3296356201172 344.9802856445313 C 175.7671356201172 344.8711853027344 175.3599548339844 344.3779907226563 175.3599548339844 343.8036804199219 C 175.3599548339844 343.2437133789063 175.7594146728516 342.7506408691406 176.3097991943359 342.6312561035156 L 176.31884765625 342.6293029785156 L 176.3279266357422 342.6275329589844 C 178.8849639892578 342.1222534179688 180.1424255371094 341.3049926757813 181.6975555419922 339.8775024414063 C 182.8707580566406 338.8005065917969 183.8361053466797 336.0978088378906 184.2215576171875 334.6706237792969 L 184.2224884033203 334.667236328125 C 184.3581390380859 334.1493835449219 184.8334655761719 333.7889709472656 185.383544921875 333.7889709472656 C 185.928466796875 333.7889709472656 186.4054260253906 334.1470642089844 186.5434265136719 334.6598510742188 L 186.5516815185547 334.6905212402344 L 186.5532989501953 334.6985168457031 C 186.7641906738281 335.5194396972656 187.7760772705078 338.6900634765625 189.0696563720703 339.8775329589844 C 190.6247253417969 341.3049926757813 191.8821563720703 342.1222534179688 194.439208984375 342.6275329589844 L 194.4482574462891 342.6293029785156 L 194.4572601318359 342.6312561035156 C 195.0077056884766 342.7506103515625 195.4072265625 343.2436828613281 195.4072265625 343.8036804199219 C 195.4072265625 344.3775634765625 195.0005798339844 344.8704528808594 194.4387054443359 344.9800415039063 C 191.8821105957031 345.4852294921875 190.6247253417969 346.3024597167969 189.0696105957031 347.7298889160156 C 187.8010406494141 348.8925170898438 186.8059692382813 351.92529296875 186.5514831542969 352.9162292480469 L 186.5498504638672 352.9237365722656 L 186.5433959960938 352.9477233886719 C 186.4024963378906 353.4708862304688 185.9255828857422 353.8362426757813 185.3836059570313 353.8362426757813 Z"/>
    <path class="cls-3" d="M 185.3836059570313 352.8362426757813 C 185.4747924804688 352.8362426757813 185.5542602539063 352.7750549316406 185.5777893066406 352.6876831054688 C 185.5866088867188 352.64697265625 186.6516418457031 348.5895080566406 188.3934020996094 346.9931640625 C 190.0498352050781 345.4727478027344 191.473876953125 344.5464782714844 194.245361328125 343.9989013671875 C 194.3395385742188 343.9814453125 194.4072265625 343.8998107910156 194.4072265625 343.8036804199219 C 194.4072265625 343.7104797363281 194.3395385742188 343.6289672851563 194.245361328125 343.6085510253906 C 191.473876953125 343.0609130859375 190.0498352050781 342.1347045898438 188.3934020996094 340.6141967773438 C 186.6546020507813 339.0180053710938 185.5866088867188 334.96337890625 185.5777893066406 334.9197387695313 C 185.5543518066406 334.8326721191406 185.4689025878906 334.7889404296875 185.3835601806641 334.7889404296875 C 185.2974853515625 334.7889404296875 185.2115325927734 334.8333740234375 185.1893310546875 334.9226379394531 C 185.1776428222656 334.96337890625 184.1125793457031 339.0180053710938 182.373779296875 340.6141967773438 C 180.7173156738281 342.1347045898438 179.2932739257813 343.0609130859375 176.5217590332031 343.6085510253906 C 176.4276123046875 343.6289672851563 176.3599548339844 343.7104797363281 176.3599548339844 343.8036804199219 C 176.3599548339844 343.8998107910156 176.4276123046875 343.9814453125 176.5217590332031 343.9989013671875 C 179.2904052734375 344.5464782714844 180.7143859863281 345.4727478027344 182.373779296875 346.9931640625 C 184.1125793457031 348.5895080566406 185.1776428222656 352.64697265625 185.1893310546875 352.6876831054688 C 185.2099914550781 352.7750549316406 185.2923889160156 352.8362426757813 185.3836059570313 352.8362426757813 M 185.3836059570313 354.8362426757813 C 184.3750762939453 354.8362426757813 183.5068817138672 354.1644592285156 183.2550506591797 353.1964111328125 C 182.8675689697266 351.7626342773438 181.9538879394531 349.3226928710938 181.0212097167969 348.4664611816406 C 179.5718536376953 347.1384887695313 178.4705963134766 346.4240417480469 176.1405487060547 345.9622497558594 C 175.1077728271484 345.7626037597656 174.3599548339844 344.8575439453125 174.3599548339844 343.8036804199219 C 174.3599548339844 342.7764587402344 175.0908355712891 341.8724060058594 176.0978393554688 341.6539916992188 C 176.1098937988281 341.6513671875 176.1219635009766 341.6488647460938 176.1340637207031 341.646484375 C 178.4720458984375 341.1845092773438 179.5728149414063 340.4704284667969 181.0213165283203 339.1408081054688 C 181.9550323486328 338.28369140625 182.8693695068359 335.8419799804688 183.2561340332031 334.4098815917969 C 183.25634765625 334.4091491699219 183.2565460205078 334.4084167480469 183.2567291259766 334.4076843261719 C 183.5096893310547 333.4528503417969 184.3794403076172 332.7889709472656 185.383544921875 332.7889709472656 C 186.3797760009766 332.7889709472656 187.2538299560547 333.4514465332031 187.5090942382813 334.4000244140625 C 187.5127105712891 334.4134826660156 187.5161743164063 334.4269409179688 187.5195159912109 334.4404296875 C 187.8038940429688 335.5377807617188 188.7548370361328 338.2310791015625 189.7458953857422 339.140869140625 C 191.1943359375 340.4704284667969 192.2951049804688 341.1845092773438 194.633056640625 341.646484375 C 194.6451110839844 341.6488647460938 194.6571350097656 341.6513671875 194.6691436767578 341.6539611816406 C 195.6762542724609 341.872314453125 196.4072265625 342.7763977050781 196.4072265625 343.8036804199219 C 196.4072265625 344.8572692871094 195.6597442626953 345.7621459960938 194.6273651123047 345.9620971679688 C 192.2933502197266 346.4240112304688 191.1932525634766 347.1380004882813 189.7458343505859 348.4665832519531 C 188.7571563720703 349.3727111816406 187.8036041259766 352.0732116699219 187.5181274414063 353.1725769042969 C 187.5151824951172 353.184326171875 187.5121307373047 353.1960754394531 187.5089874267578 353.2077941894531 C 187.2507629394531 354.1665954589844 186.3767700195313 354.8362426757813 185.3836059570313 354.8362426757813 Z"/>
  </g>
</svg>
