<svg xmlns="http://www.w3.org/2000/svg" width="337.885" height="199.002" viewBox="0 0 337.885 199.002">
  <g id="キラキラ" transform="translate(-22.453 -233)">
    <g id="_1" data-name="1" transform="translate(-137.907 -68.789)" fill="#f6ffa8" stroke-linecap="round" stroke-linejoin="round">
      <path d="M 182.5017700195313 348.0725708007813 C 181.9803771972656 348.0725708007813 181.5317230224609 347.7254333496094 181.4022521972656 347.2252807617188 C 181.1659088134766 346.3505249023438 180.5223541259766 344.5166015625 179.7769012451172 343.8322143554688 C 178.7610321044922 342.9014282226563 177.9406585693359 342.3681640625 176.2786407470703 342.0390625 C 175.7457275390625 341.935791015625 175.3599700927734 341.4686584472656 175.3599700927734 340.9247131347656 C 175.3599700927734 340.3944396972656 175.7376251220703 339.9276123046875 176.2579345703125 339.8146362304688 L 176.2670745849609 339.8126525878906 L 176.2762603759766 339.8108215332031 C 177.9422912597656 339.4816589355469 178.7622985839844 338.9485168457031 179.7769622802734 338.0171508789063 C 180.5228271484375 337.3324584960938 181.1664123535156 335.4990234375 181.4025115966797 334.625244140625 L 181.4029693603516 334.6235656738281 C 181.5326538085938 334.1313781738281 181.9822082519531 333.7889709472656 182.5017242431641 333.7889709472656 C 183.0167541503906 333.7889709472656 183.4681854248047 334.1299438476563 183.5995635986328 334.6181335449219 L 183.6078033447266 334.6487121582031 L 183.6091461181641 334.6553039550781 C 183.8209991455078 335.4718322753906 184.48486328125 337.3362731933594 185.2265930175781 338.0171813964844 C 186.2412109375 338.9485168457031 187.0611877441406 339.4816589355469 188.7272186279297 339.8108520507813 L 188.7363891601563 339.8126525878906 L 188.7455139160156 339.8146362304688 C 189.265869140625 339.9275817871094 189.6435546875 340.3944396972656 189.6435546875 340.9247131347656 C 189.6435546875 341.4688110351563 189.2575073242188 341.9360656738281 188.7243499755859 342.0391540527344 C 187.0602416992188 342.3683776855469 186.24072265625 342.9013977050781 185.2265625 343.832275390625 C 184.4862823486328 344.5107421875 183.8192901611328 346.3849792480469 183.6073150634766 347.2013854980469 L 183.6059875488281 347.2075500488281 L 183.5995635986328 347.2313842773438 C 183.4662475585938 347.7266540527344 183.0148162841797 348.0725708007813 182.5017700195313 348.0725708007813 Z" stroke="none"/>
      <path d="M 182.5017700195313 347.0725708007813 C 182.5638275146484 347.0725708007813 182.617919921875 347.0309448242188 182.6339263916016 346.9714660644531 C 182.6399383544922 346.9437561035156 183.3648376464844 344.1820983886719 184.5503540039063 343.0955810546875 C 185.6777648925781 342.0607299804688 186.6470031738281 341.4302673339844 188.5333862304688 341.0575561523438 C 188.5974731445313 341.0456848144531 188.6435546875 340.9901123046875 188.6435546875 340.9247131347656 C 188.6435546875 340.8612670898438 188.5974731445313 340.8057861328125 188.5333862304688 340.7918701171875 C 186.6470031738281 340.4191589355469 185.6777648925781 339.7887573242188 184.5503540039063 338.7538452148438 C 183.3668518066406 337.6674194335938 182.6399383544922 334.90771484375 182.6339263916016 334.8779907226563 C 182.6179809570313 334.8187255859375 182.5598297119141 334.7889709472656 182.5017395019531 334.7889709472656 C 182.4431610107422 334.7889709472656 182.3846588134766 334.8192138671875 182.3695526123047 334.8799743652344 C 182.361572265625 334.90771484375 181.6366577148438 337.6674194335938 180.4531860351563 338.7538452148438 C 179.3257293701172 339.7887573242188 178.3564910888672 340.4191589355469 176.4700927734375 340.7918701171875 C 176.4060211181641 340.8057861328125 176.3599700927734 340.8612670898438 176.3599700927734 340.9247131347656 C 176.3599700927734 340.9901123046875 176.4060211181641 341.0456848144531 176.4700927734375 341.0575561523438 C 178.3545227050781 341.4302673339844 179.32373046875 342.0607299804688 180.4531860351563 343.0955810546875 C 181.6366577148438 344.1820983886719 182.361572265625 346.9437561035156 182.3695526123047 346.9714660644531 C 182.3836059570313 347.0309448242188 182.4396820068359 347.0725708007813 182.5017700195313 347.0725708007813 M 182.5017700195313 349.0725708007813 C 181.5232238769531 349.0725708007813 180.6806488037109 348.4205322265625 180.4353790283203 347.4805297851563 C 180.1001739501953 346.2425537109375 179.5019836425781 344.9373474121094 179.1006164550781 344.56884765625 C 178.1857299804688 343.7306213378906 177.5325622558594 343.3072204589844 176.0879669189453 343.0207214355469 C 175.0855712890625 342.8263244628906 174.3599700927734 341.9477233886719 174.3599700927734 340.9247131347656 C 174.3599700927734 339.9273071289063 175.0689544677734 339.0494689941406 176.0457611083984 338.83740234375 C 176.0579528808594 338.8347473144531 176.0701751708984 338.8322143554688 176.0824279785156 338.8298034667969 C 177.5329895019531 338.543212890625 178.1858825683594 338.1202087402344 179.1007385253906 337.2804565429688 C 179.5028686523438 336.9112854003906 180.1023254394531 335.6033325195313 180.4370574951172 334.3646850585938 C 180.6838073730469 333.4351501464844 181.5279693603516 332.7889709472656 182.5017242431641 332.7889709472656 C 183.4679870605469 332.7889709472656 184.3165130615234 333.4342651367188 184.5652008056641 334.3581848144531 C 184.5682830810547 334.36962890625 184.5712585449219 334.381103515625 184.5741424560547 334.3926086425781 C 184.8150329589844 335.3119201660156 185.4353942871094 336.8513793945313 185.9028472900391 337.2804870605469 C 186.817626953125 338.1202087402344 187.4705047607422 338.543212890625 188.9210510253906 338.8298034667969 C 188.9332733154297 338.8322143554688 188.9454803466797 338.8347473144531 188.9576568603516 338.83740234375 C 189.9345245361328 339.0494384765625 190.6435546875 339.9272766113281 190.6435546875 340.9247131347656 C 190.6435546875 341.9476928710938 189.9180603027344 342.8262329101563 188.9156951904297 343.0206909179688 C 187.4689483642578 343.3072509765625 186.8165588378906 343.730224609375 185.9027862548828 344.5690002441406 C 185.4174194335938 345.0138244628906 184.8096923828125 346.5586242675781 184.5731658935547 347.4607238769531 C 184.5705871582031 347.470947265625 184.5679321289063 347.4811096191406 184.565185546875 347.4913024902344 C 184.3145904541016 348.4223327636719 183.4660797119141 349.0725708007813 182.5017700195313 349.0725708007813 Z" stroke="none" fill="#fff"/>
    </g>
    <g id="_2" data-name="2" transform="translate(-129.907 -99.789)" fill="#fff20e" stroke-linecap="round" stroke-linejoin="round">
      <path d="M 188.3600158691406 359.7890625 C 187.7770080566406 359.7890625 187.2759246826172 359.4011840820313 187.1337738037109 358.8429870605469 L 187.1330261230469 358.8402709960938 C 186.6109161376953 356.906494140625 185.2963409423828 353.2381896972656 183.6811370849609 351.7553100585938 C 181.5645599365234 349.8160400390625 179.8540191650391 348.7051086425781 176.3840026855469 348.018310546875 C 175.7900543212891 347.9039001464844 175.3599548339844 347.3833923339844 175.3599548339844 346.7771606445313 C 175.3599548339844 346.1866760253906 175.7817993164063 345.6665344238281 176.3630218505859 345.5403747558594 L 176.3721466064453 345.5384216308594 L 176.3812866210938 345.5365905761719 C 179.8585968017578 344.8495178222656 181.5678558349609 343.7388305664063 183.6811981201172 341.7989501953125 C 185.2968444824219 340.3157958984375 186.6112060546875 336.64990234375 187.1331176757813 334.7176208496094 L 187.1345062255859 334.7125854492188 C 187.2761993408203 334.1680603027344 187.7781829833984 333.7889404296875 188.3599548339844 333.7889404296875 C 188.9448547363281 333.7889404296875 189.4367218017578 334.15625 189.5838928222656 334.7029418945313 L 189.5921936035156 334.7337951660156 L 189.5940856933594 334.7431640625 C 189.8732299804688 335.8424682617188 191.2440338134766 340.1513671875 193.0388641357422 341.7989807128906 C 195.1521148681641 343.7388000488281 196.8613433837891 344.8495178222656 200.3386535644531 345.5365905761719 L 200.3477783203125 345.5383911132813 L 200.3568725585938 345.5403747558594 C 200.9381561279297 345.66650390625 201.3600463867188 346.1866455078125 201.3600463867188 346.7771606445313 C 201.3600463867188 347.3840637207031 200.9289093017578 347.9050903320313 200.3338775634766 348.0187072753906 C 196.8597869873047 348.7057800292969 195.1513824462891 349.8162841796875 193.038818359375 351.75537109375 C 192.2113952636719 352.5137329101563 191.3628234863281 353.9391479492188 190.5843353271484 355.8780822753906 C 189.9720916748047 357.4029541015625 189.6246337890625 358.6963806152344 189.5917510986328 358.8209838867188 L 189.5903778076172 358.8273315429688 L 189.5838775634766 358.8514709472656 C 189.4352264404297 359.4035034179688 188.9319763183594 359.7890625 188.3600158691406 359.7890625 Z" stroke="none"/>
      <path d="M 188.3600158691406 358.7890625 C 188.4812927246094 358.7890625 188.5869750976563 358.7077026367188 188.6182556152344 358.5914916992188 C 188.6299743652344 358.537353515625 190.0463256835938 353.1415405273438 192.3626098632813 351.0186767578125 C 194.5653991699219 348.9967651367188 196.4591369628906 347.7649536132813 200.1448059082031 347.0367431640625 C 200.27001953125 347.0135498046875 200.3600463867188 346.9049682617188 200.3600463867188 346.7771606445313 C 200.3600463867188 346.6531982421875 200.27001953125 346.5447998046875 200.1448059082031 346.5176391601563 C 196.4591369628906 345.7893676757813 194.5653991699219 344.5576782226563 192.3626098632813 342.53564453125 C 190.0502624511719 340.4129638671875 188.6299743652344 335.0209350585938 188.6182556152344 334.962890625 C 188.5870971679688 334.8471069335938 188.4734497070313 334.7889709472656 188.3599548339844 334.7889709472656 C 188.2454986572266 334.7889709472656 188.1312103271484 334.8480529785156 188.1016845703125 334.9667358398438 C 188.0861206054688 335.0209350585938 186.6697387695313 340.4129638671875 184.357421875 342.53564453125 C 182.1545715332031 344.5576782226563 180.2608337402344 345.7893676757813 176.5751342773438 346.5176391601563 C 176.449951171875 346.5447998046875 176.3599548339844 346.6531982421875 176.3599548339844 346.7771606445313 C 176.3599548339844 346.9049682617188 176.449951171875 347.0135498046875 176.5751342773438 347.0367431640625 C 180.2569885253906 347.7649536132813 182.1506652832031 348.9967651367188 184.357421875 351.0186767578125 C 186.6697387695313 353.1415405273438 188.0861206054688 358.537353515625 188.1016845703125 358.5914916992188 C 188.129150390625 358.7077026367188 188.2387084960938 358.7890625 188.3600158691406 358.7890625 M 188.3600158691406 360.7890625 C 187.3199310302734 360.7890625 186.4249572753906 360.0962829589844 186.1669006347656 359.0983581542969 C 185.7062835693359 357.3934020996094 184.4537200927734 353.8221130371094 183.0048522949219 352.491943359375 C 181.0267181396484 350.6795349121094 179.4290161132813 349.6408996582031 176.1936340332031 349.0000305175781 C 175.1300811767578 348.7945556640625 174.3599548339844 347.8625183105469 174.3599548339844 346.7771606445313 C 174.3599548339844 345.7195129394531 175.1131591796875 344.7883911132813 176.1509094238281 344.5631408691406 C 176.1630554199219 344.5605163574219 176.1752471923828 344.5579833984375 176.1874389648438 344.5555725097656 C 179.4318542480469 343.9144897460938 181.0288391113281 342.8761596679688 183.0049743652344 341.062255859375 C 184.4549713134766 339.7311706542969 185.7078247070313 336.1594848632813 186.1676940917969 334.4568786621094 C 186.1681823730469 334.4551086425781 186.1686553955078 334.453369140625 186.1690979003906 334.4516906738281 C 186.4286651611328 333.4710388183594 187.3247528076172 332.7889404296875 188.3599548339844 332.7889404296875 C 189.3869781494141 332.7889404296875 190.2873382568359 333.4691162109375 190.5495147705078 334.4430236816406 C 190.5533294677734 334.4571838378906 190.5569915771484 334.4714050292969 190.5604858398438 334.4856567382813 C 190.5842132568359 334.5751342773438 190.9298858642578 335.8604736328125 191.5309753417969 337.3477172851563 C 192.2393646240234 339.1004638671875 193.0150451660156 340.4196472167969 193.7151031494141 341.0622863769531 C 195.6911468505859 342.8761596679688 197.2880859375 343.9144897460938 200.5325012207031 344.5555725097656 C 200.544677734375 344.5579833984375 200.5568084716797 344.5604858398438 200.5689239501953 344.5631103515625 C 201.6067810058594 344.788330078125 202.3600463867188 345.7194519042969 202.3600463867188 346.7771606445313 C 202.3600463867188 347.8627014160156 201.5897521972656 348.7948303222656 200.5259094238281 349.0001220703125 C 197.2861022949219 349.6412048339844 195.6899566650391 350.6793518066406 193.7150421142578 352.4920959472656 C 192.2704467773438 353.8160705566406 190.9668579101563 357.4926147460938 190.5595855712891 359.0723876953125 C 190.5563507080078 359.08544921875 190.552978515625 359.0984802246094 190.5494842529297 359.1114807128906 C 190.2835235595703 360.0992126464844 189.3831939697266 360.7890625 188.3600158691406 360.7890625 Z" stroke="none" fill="#fff"/>
    </g>
    <g id="_3" data-name="3" transform="translate(-92.907 -66.789)" fill="#f6ffa8" stroke-linecap="round" stroke-linejoin="round">
      <path d="M 185.3836059570313 353.8362426757813 C 184.8319702148438 353.8362426757813 184.3575286865234 353.4690856933594 184.2217559814453 352.9404907226563 L 184.2214813232422 352.939453125 C 183.8359069824219 351.5111694335938 182.8704376220703 348.806640625 181.6974945068359 347.7297973632813 C 180.1399993896484 346.302734375 178.8817291259766 345.4852905273438 176.3296356201172 344.9802856445313 C 175.7671356201172 344.8711853027344 175.3599548339844 344.3779907226563 175.3599548339844 343.8036804199219 C 175.3599548339844 343.2437133789063 175.7594146728516 342.7506408691406 176.3097991943359 342.6312561035156 L 176.31884765625 342.6293029785156 L 176.3279266357422 342.6275329589844 C 178.8849639892578 342.1222534179688 180.1424255371094 341.3049926757813 181.6975555419922 339.8775024414063 C 182.8707580566406 338.8005065917969 183.8361053466797 336.0978088378906 184.2215576171875 334.6706237792969 L 184.2224884033203 334.667236328125 C 184.3581390380859 334.1493835449219 184.8334655761719 333.7889709472656 185.383544921875 333.7889709472656 C 185.928466796875 333.7889709472656 186.4054260253906 334.1470642089844 186.5434265136719 334.6598510742188 L 186.5516815185547 334.6905212402344 L 186.5532989501953 334.6985168457031 C 186.7641906738281 335.5194396972656 187.7760772705078 338.6900634765625 189.0696563720703 339.8775329589844 C 190.6247253417969 341.3049926757813 191.8821563720703 342.1222534179688 194.439208984375 342.6275329589844 L 194.4482574462891 342.6293029785156 L 194.4572601318359 342.6312561035156 C 195.0077056884766 342.7506103515625 195.4072265625 343.2436828613281 195.4072265625 343.8036804199219 C 195.4072265625 344.3775634765625 195.0005798339844 344.8704528808594 194.4387054443359 344.9800415039063 C 191.8821105957031 345.4852294921875 190.6247253417969 346.3024597167969 189.0696105957031 347.7298889160156 C 187.8010406494141 348.8925170898438 186.8059692382813 351.92529296875 186.5514831542969 352.9162292480469 L 186.5498504638672 352.9237365722656 L 186.5433959960938 352.9477233886719 C 186.4024963378906 353.4708862304688 185.9255828857422 353.8362426757813 185.3836059570313 353.8362426757813 Z" stroke="none"/>
      <path d="M 185.3836059570313 352.8362426757813 C 185.4747924804688 352.8362426757813 185.5542602539063 352.7750549316406 185.5777893066406 352.6876831054688 C 185.5866088867188 352.64697265625 186.6516418457031 348.5895080566406 188.3934020996094 346.9931640625 C 190.0498352050781 345.4727478027344 191.473876953125 344.5464782714844 194.245361328125 343.9989013671875 C 194.3395385742188 343.9814453125 194.4072265625 343.8998107910156 194.4072265625 343.8036804199219 C 194.4072265625 343.7104797363281 194.3395385742188 343.6289672851563 194.245361328125 343.6085510253906 C 191.473876953125 343.0609130859375 190.0498352050781 342.1347045898438 188.3934020996094 340.6141967773438 C 186.6546020507813 339.0180053710938 185.5866088867188 334.96337890625 185.5777893066406 334.9197387695313 C 185.5543518066406 334.8326721191406 185.4689025878906 334.7889404296875 185.3835601806641 334.7889404296875 C 185.2974853515625 334.7889404296875 185.2115325927734 334.8333740234375 185.1893310546875 334.9226379394531 C 185.1776428222656 334.96337890625 184.1125793457031 339.0180053710938 182.373779296875 340.6141967773438 C 180.7173156738281 342.1347045898438 179.2932739257813 343.0609130859375 176.5217590332031 343.6085510253906 C 176.4276123046875 343.6289672851563 176.3599548339844 343.7104797363281 176.3599548339844 343.8036804199219 C 176.3599548339844 343.8998107910156 176.4276123046875 343.9814453125 176.5217590332031 343.9989013671875 C 179.2904052734375 344.5464782714844 180.7143859863281 345.4727478027344 182.373779296875 346.9931640625 C 184.1125793457031 348.5895080566406 185.1776428222656 352.64697265625 185.1893310546875 352.6876831054688 C 185.2099914550781 352.7750549316406 185.2923889160156 352.8362426757813 185.3836059570313 352.8362426757813 M 185.3836059570313 354.8362426757813 C 184.3750762939453 354.8362426757813 183.5068817138672 354.1644592285156 183.2550506591797 353.1964111328125 C 182.8675689697266 351.7626342773438 181.9538879394531 349.3226928710938 181.0212097167969 348.4664611816406 C 179.5718536376953 347.1384887695313 178.4705963134766 346.4240417480469 176.1405487060547 345.9622497558594 C 175.1077728271484 345.7626037597656 174.3599548339844 344.8575439453125 174.3599548339844 343.8036804199219 C 174.3599548339844 342.7764587402344 175.0908355712891 341.8724060058594 176.0978393554688 341.6539916992188 C 176.1098937988281 341.6513671875 176.1219635009766 341.6488647460938 176.1340637207031 341.646484375 C 178.4720458984375 341.1845092773438 179.5728149414063 340.4704284667969 181.0213165283203 339.1408081054688 C 181.9550323486328 338.28369140625 182.8693695068359 335.8419799804688 183.2561340332031 334.4098815917969 C 183.25634765625 334.4091491699219 183.2565460205078 334.4084167480469 183.2567291259766 334.4076843261719 C 183.5096893310547 333.4528503417969 184.3794403076172 332.7889709472656 185.383544921875 332.7889709472656 C 186.3797760009766 332.7889709472656 187.2538299560547 333.4514465332031 187.5090942382813 334.4000244140625 C 187.5127105712891 334.4134826660156 187.5161743164063 334.4269409179688 187.5195159912109 334.4404296875 C 187.8038940429688 335.5377807617188 188.7548370361328 338.2310791015625 189.7458953857422 339.140869140625 C 191.1943359375 340.4704284667969 192.2951049804688 341.1845092773438 194.633056640625 341.646484375 C 194.6451110839844 341.6488647460938 194.6571350097656 341.6513671875 194.6691436767578 341.6539611816406 C 195.6762542724609 341.872314453125 196.4072265625 342.7763977050781 196.4072265625 343.8036804199219 C 196.4072265625 344.8572692871094 195.6597442626953 345.7621459960938 194.6273651123047 345.9620971679688 C 192.2933502197266 346.4240112304688 191.1932525634766 347.1380004882813 189.7458343505859 348.4665832519531 C 188.7571563720703 349.3727111816406 187.8036041259766 352.0732116699219 187.5181274414063 353.1725769042969 C 187.5151824951172 353.184326171875 187.5121307373047 353.1960754394531 187.5089874267578 353.2077941894531 C 187.2507629394531 354.1665954589844 186.3767700195313 354.8362426757813 185.3836059570313 354.8362426757813 Z" stroke="none" fill="#fff"/>
    </g>
    <g id="_4" data-name="4" transform="translate(59.093 -56.789)" fill="#f6ffa8" stroke-linecap="round" stroke-linejoin="round">
      <path d="M 183.6336059570313 350.3362121582031 C 183.1003265380859 350.3362121582031 182.6415557861328 349.9812316894531 182.5096130371094 349.4699096679688 L 182.5096130371094 349.4699096679688 C 182.2251739501953 348.41650390625 181.4456481933594 346.2025146484375 180.5312042236328 345.3629760742188 C 179.302734375 344.2373962402344 178.3103637695313 343.592529296875 176.2993011474609 343.1943664550781 C 175.7544555664063 343.0890502929688 175.3599548339844 342.6114807128906 175.3599548339844 342.0553894042969 C 175.3599548339844 341.5133666992188 175.7462615966797 341.0362243652344 176.2785034179688 340.9208374023438 L 176.2875061035156 340.9188842773438 L 176.2965240478516 340.9171142578125 C 178.3125152587891 340.5187377929688 179.3043365478516 339.8740234375 180.5312652587891 338.7477722167969 C 181.4459838867188 337.9080810546875 182.2253723144531 335.6956176757813 182.5096740722656 334.6430358886719 L 182.5103759765625 334.6404724121094 C 182.6424865722656 334.1383056640625 183.1021118164063 333.7889404296875 183.6335754394531 333.7889404296875 C 184.1603393554688 333.7889404296875 184.6218109130859 334.1366577148438 184.7557830810547 334.6345520019531 L 184.7640686035156 334.6653442382813 L 184.7655181884766 334.6725158691406 C 184.9360198974609 335.3299865722656 185.7353057861328 337.8292236328125 186.7359466552734 338.747802734375 C 187.9628295898438 339.8740234375 188.9546203613281 340.5187377929688 190.9705963134766 340.9171142578125 L 190.9795837402344 340.9188842773438 L 190.9885406494141 340.9208068847656 C 191.5208587646484 341.0361633300781 191.9072265625 341.5133361816406 191.9072265625 342.0553894042969 C 191.9072265625 342.6111755371094 191.5131683349609 343.0885009765625 190.9687652587891 343.1941833496094 C 188.9541625976563 343.5924682617188 187.9625396728516 344.2371520996094 186.7359008789063 345.363037109375 C 185.8251190185547 346.1977844238281 185.0171356201172 348.4640502929688 184.7637023925781 349.445556640625 L 184.7622222900391 349.4524230957031 L 184.7557373046875 349.4765014648438 C 184.6194152832031 349.9826965332031 184.1579742431641 350.3362121582031 183.6336059570313 350.3362121582031 Z" stroke="none"/>
      <path d="M 183.6336059570313 349.3362121582031 C 183.7071075439453 349.3362121582031 183.7711639404297 349.2868957519531 183.7901306152344 349.2164611816406 C 183.7972259521484 349.1836547851563 184.6557159423828 345.9130859375 186.0596923828125 344.6263427734375 C 187.3948822021484 343.4007873535156 188.5427551269531 342.6541442871094 190.7767486572266 342.2127685546875 C 190.8526611328125 342.1986999511719 190.9072265625 342.1329040527344 190.9072265625 342.0553894042969 C 190.9072265625 341.9802856445313 190.8526611328125 341.9145812988281 190.7767486572266 341.8981323242188 C 188.5427551269531 341.4566955566406 187.3948822021484 340.7101135253906 186.0596923828125 339.4844665527344 C 184.6581115722656 338.1978454589844 183.7972259521484 334.9295654296875 183.7901306152344 334.8943786621094 C 183.771240234375 334.8241882324219 183.7023620605469 334.7889404296875 183.6335601806641 334.7889404296875 C 183.5641937255859 334.7889404296875 183.4949035644531 334.8247680664063 183.4770050048828 334.896728515625 C 183.4675750732422 334.9295654296875 182.6090698242188 338.1978454589844 181.2074890136719 339.4844665527344 C 179.8722686767578 340.7101135253906 178.7243957519531 341.4566955566406 176.4903717041016 341.8981323242188 C 176.4144897460938 341.9145812988281 176.3599548339844 341.9802856445313 176.3599548339844 342.0553894042969 C 176.3599548339844 342.1329040527344 176.4144897460938 342.1986999511719 176.4903717041016 342.2127685546875 C 178.7220916748047 342.6541442871094 179.8699035644531 343.4007873535156 181.2074890136719 344.6263427734375 C 182.6090698242188 345.9130859375 183.4675750732422 349.1836547851563 183.4770050048828 349.2164611816406 C 183.49365234375 349.2868957519531 183.5600738525391 349.3362121582031 183.6336059570313 349.3362121582031 M 183.6336059570313 351.3362121582031 C 182.6430511474609 351.3362121582031 181.7902526855469 350.676025390625 181.5425872802734 349.7247009277344 C 181.1749877929688 348.3661193847656 180.4440155029297 346.6404418945313 179.8549194335938 346.099609375 C 178.7178802490234 345.0578308105469 177.9057312011719 344.5319519042969 176.106201171875 344.175537109375 C 175.0931701660156 343.9780883789063 174.3599548339844 343.0896606445313 174.3599548339844 342.0553894042969 C 174.3599548339844 341.0460815429688 175.0777130126953 340.1579284667969 176.0666351318359 339.9435424804688 C 176.0786285400391 339.94091796875 176.0906372070313 339.9384460449219 176.1026763916016 339.9360656738281 C 177.9074554443359 339.5794372558594 178.7188568115234 339.0540161132813 179.8550262451172 338.0110778808594 C 180.4452056884766 337.4693298339844 181.1773834228516 335.7406005859375 181.5442657470703 334.3822937011719 C 181.5443420410156 334.3820190429688 181.5444183349609 334.3817749023438 181.5444793701172 334.3815002441406 C 181.793701171875 333.4420776367188 182.6479339599609 332.7889404296875 183.6335754394531 332.7889404296875 C 184.6116027832031 332.7889404296875 185.4701538085938 333.4410095214844 185.7214050292969 334.3746337890625 C 185.7247772216797 334.3871154785156 185.7280120849609 334.3996276855469 185.7311248779297 334.4121704101563 C 186.0270385742188 335.5474548339844 186.7740478515625 337.4253234863281 187.4121856689453 338.0111083984375 C 188.5482940673828 339.0540161132813 189.3596801757813 339.5794372558594 191.1644439697266 339.9360656738281 C 191.1764373779297 339.9384155273438 191.1883850097656 339.94091796875 191.2003326416016 339.9435119628906 C 192.1893768310547 340.1578369140625 192.9072265625 341.0460205078125 192.9072265625 342.0553894042969 C 192.9072265625 343.0906066894531 192.1726684570313 343.9797058105469 191.1581878662109 344.1760559082031 C 189.3579406738281 344.5325927734375 188.5470275878906 345.0580444335938 187.412109375 346.0997619628906 C 186.7748107910156 346.6838684082031 186.0265808105469 348.5662536621094 185.729736328125 349.7042541503906 C 185.7270202636719 349.7150268554688 185.7242126464844 349.7257995605469 185.7213134765625 349.7365417480469 C 185.4676818847656 350.6784057617188 184.6091766357422 351.3362121582031 183.6336059570313 351.3362121582031 Z" stroke="none" fill="#fff"/>
    </g>
    <g id="_5" data-name="5" transform="translate(131.093 -77.789)" fill="#fff20e" stroke-linecap="round" stroke-linejoin="round">
      <path d="M 181.8600158691406 346.7890625 C 181.3451843261719 346.7890625 180.9021606445313 346.4460754394531 180.7742462158203 345.9519958496094 C 180.5650634765625 345.1783142089844 179.9987487792969 343.5606079101563 179.3491821289063 342.9642333984375 C 178.4346923828125 342.1263732910156 177.7398071289063 341.67578125 176.2676086425781 341.3841857910156 C 175.7411651611328 341.2822875976563 175.3599395751953 340.8207397460938 175.3599395751953 340.2835693359375 C 175.3599395751953 339.7593383789063 175.7332153320313 339.2982482910156 176.2474975585938 339.1871948242188 L 176.2560882568359 339.1853332519531 L 176.2647094726563 339.1836547851563 C 177.7409973144531 338.8919372558594 178.4356079101563 338.4414672851563 179.3492584228516 337.6028442382813 C 179.9524993896484 337.049072265625 180.5322570800781 335.5126342773438 180.7747497558594 334.6150207519531 L 180.7749481201172 334.6143493652344 C 180.9031372070313 334.1275939941406 181.3470916748047 333.7889404296875 181.8599853515625 333.7889404296875 C 182.3683013916016 333.7889404296875 182.8140563964844 334.1260375976563 182.9440002441406 334.6087036132813 L 182.9524078369141 334.639892578125 L 182.9536437988281 334.6460876464844 C 183.1421356201172 335.3692932128906 183.7259521484375 337.0109252929688 184.3707733154297 337.6028747558594 C 185.2843780517578 338.4414672851563 185.9789733886719 338.8919372558594 187.4552459716797 339.1836547851563 L 187.4638366699219 339.1853332519531 L 187.4723968505859 339.1871948242188 C 187.9867401123047 339.2982177734375 188.3600616455078 339.7593078613281 188.3600616455078 340.2835693359375 C 188.3600616455078 340.8205261230469 187.9791259765625 341.2819519042969 187.4529724121094 341.3840637207031 C 185.9782257080078 341.6757202148438 185.2839508056641 342.1260986328125 184.3707275390625 342.9643249511719 C 183.7267608642578 343.5545349121094 183.1400756835938 345.2057189941406 182.9517974853516 345.9283752441406 L 182.9505462646484 345.9341735839844 L 182.9439849853516 345.95849609375 C 182.8123016357422 346.447509765625 182.3665618896484 346.7890625 181.8600158691406 346.7890625 Z" stroke="none"/>
      <path d="M 181.8600158691406 345.7890625 C 181.9156036376953 345.7890625 181.9640350341797 345.7517700195313 181.9783782958984 345.698486328125 C 181.9837341308594 345.6737060546875 182.6329040527344 343.2006225585938 183.6945343017578 342.2276000976563 C 184.7041625976563 341.3009033203125 185.5721435546875 340.736328125 187.2613983154297 340.402587890625 C 187.3188018798828 340.3919067382813 187.3600616455078 340.3421630859375 187.3600616455078 340.2835693359375 C 187.3600616455078 340.2267456054688 187.3188018798828 340.1770629882813 187.2613983154297 340.1646728515625 C 185.5721435546875 339.8308715820313 184.7041625976563 339.2662963867188 183.6945343017578 338.3395385742188 C 182.6347045898438 337.3666381835938 181.9837341308594 334.895263671875 181.9783782958984 334.86865234375 C 181.9640960693359 334.8155822753906 181.9120025634766 334.7889404296875 181.8599853515625 334.7889404296875 C 181.8075256347656 334.7889404296875 181.7551422119141 334.8160400390625 181.7416076660156 334.8704223632813 C 181.7344665527344 334.895263671875 181.0852966308594 337.3666381835938 180.0254821777344 338.3395385742188 C 179.0158233642578 339.2662963867188 178.1478424072266 339.8308715820313 176.4585571289063 340.1646728515625 C 176.4011840820313 340.1770629882813 176.3599395751953 340.2267456054688 176.3599395751953 340.2835693359375 C 176.3599395751953 340.3421630859375 176.4011840820313 340.3919067382813 176.4585571289063 340.402587890625 C 178.1461029052734 340.736328125 179.0140380859375 341.3009033203125 180.0254821777344 342.2276000976563 C 181.0852966308594 343.2006225585938 181.7344665527344 345.6737060546875 181.7416076660156 345.698486328125 C 181.7541961669922 345.7517700195313 181.8044128417969 345.7890625 181.8600158691406 345.7890625 M 181.8600158691406 347.7890625 C 180.8880767822266 347.7890625 180.0512084960938 347.141357421875 179.8074188232422 346.2075500488281 C 179.5207672119141 345.1497192382813 179.0018920898438 344.0029296875 178.6728820800781 343.7008666992188 C 177.8675537109375 342.9629821777344 177.3276214599609 342.6136169433594 176.0738677978516 342.365234375 C 175.0795745849609 342.1710205078125 174.3599395751953 341.2986145019531 174.3599395751953 340.2835693359375 C 174.3599395751953 339.2916564941406 175.0650177001953 338.4194946289063 176.0364379882813 338.2097473144531 C 176.0478973388672 338.2072448730469 176.0593566894531 338.2048950195313 176.0708618164063 338.2026062011719 C 177.3284759521484 337.9541015625 177.8679809570313 337.6051025390625 178.6730499267578 336.8661193847656 C 179.0028533935547 336.5633850097656 179.5231018066406 335.4134521484375 179.8091735839844 334.3549194335938 C 180.0545959472656 333.4311218261719 180.8930358886719 332.7889404296875 181.8599853515625 332.7889404296875 C 182.8194427490234 332.7889404296875 183.6622619628906 333.4302673339844 183.9095764160156 334.3485412597656 C 183.9125671386719 334.3597106933594 183.9154815673828 334.3708801269531 183.9182891845703 334.382080078125 C 184.1506805419922 335.26611328125 184.6931762695313 336.5413513183594 185.0470275878906 336.8661804199219 C 185.8520050048828 337.6051025390625 186.3914947509766 337.9541015625 187.6491088867188 338.2026062011719 C 187.6605529785156 338.2048645019531 187.6719818115234 338.2072448730469 187.6833953857422 338.209716796875 C 188.6549224853516 338.4194030761719 189.3600616455078 339.2915954589844 189.3600616455078 340.2835693359375 C 189.3600616455078 341.2991333007813 188.6397705078125 342.1718444824219 187.6447143554688 342.3655090332031 C 186.3902893066406 342.6138916015625 185.85107421875 342.9629516601563 185.0469360351563 343.7010192871094 C 184.6873474121094 344.0306091308594 184.1551208496094 345.2843627929688 183.9173431396484 346.1888122558594 C 183.9148406982422 346.19873046875 183.9122467041016 346.2086486816406 183.9095916748047 346.2185363769531 C 183.6605834960938 347.1432189941406 182.8177642822266 347.7890625 181.8600158691406 347.7890625 Z" stroke="none" fill="#fff"/>
    </g>
    <g id="_6" data-name="6" transform="translate(153.093 -87.789)" fill="#f6ffa8" stroke-linecap="round" stroke-linejoin="round">
      <path d="M 185.3600158691406 353.7890625 C 184.8083953857422 353.7890625 184.3340454101563 353.4218444824219 184.1985473632813 352.8931274414063 L 184.1984252929688 352.8927307128906 C 183.81396484375 351.4684448242188 182.8512878417969 348.7715759277344 181.6817779541016 347.6979064941406 C 180.1288757324219 346.2750549316406 178.8743591308594 345.4599914550781 176.3302154541016 344.9563903808594 C 175.7674255371094 344.8477783203125 175.3599548339844 344.3545227050781 175.3599548339844 343.7801208496094 C 175.3599548339844 343.2205505371094 175.7591094970703 342.7277221679688 176.3090667724609 342.6082763671875 L 176.3182678222656 342.6062622070313 L 176.3274841308594 342.6044616699219 C 178.8772583007813 342.1006164550781 180.1311340332031 341.2857055664063 181.6818389892578 339.8623046875 C 182.8515930175781 338.7884826660156 183.8141632080078 336.0933837890625 184.198486328125 334.6702270507813 L 184.1993865966797 334.6669616699219 C 184.3349914550781 334.1492919921875 184.8101043701172 333.7889709472656 185.3599548339844 333.7889709472656 C 185.9046173095703 333.7889709472656 186.3813629150391 334.1469421386719 186.5193176269531 334.6594848632813 L 186.5276031494141 334.6902770996094 L 186.5292205810547 334.6982727050781 C 186.7395782470703 335.5171203613281 187.7484893798828 338.6783752441406 189.0382232666016 339.8623352050781 C 190.5888671875 341.2857055664063 191.8427276611328 342.1006469726563 194.3924560546875 342.6044616699219 L 194.4016265869141 342.6062622070313 L 194.4107513427734 342.6082458496094 C 194.9608154296875 342.7276611328125 195.3600463867188 343.2204895019531 195.3600463867188 343.7801208496094 C 195.3600463867188 344.3542785644531 194.9528656005859 344.8472900390625 194.3904571533203 344.9562377929688 C 191.8421478271484 345.4600219726563 190.5886077880859 346.2748718261719 189.0381774902344 347.6979675292969 C 187.7733917236328 348.857177734375 186.7812042236328 351.881103515625 186.5273895263672 352.869384765625 L 186.5258178710938 352.8766479492188 L 186.5193634033203 352.9006042480469 C 186.3786926269531 353.4237060546875 185.9019470214844 353.7890625 185.3600158691406 353.7890625 Z" stroke="none"/>
      <path d="M 185.3600158691406 352.7890625 C 185.4509582519531 352.7890625 185.5302429199219 352.7280578613281 185.5536804199219 352.6408996582031 C 185.5624694824219 352.6002807617188 186.624755859375 348.5534362792969 188.3619689941406 346.9612731933594 C 190.0140686035156 345.44482421875 191.4343566894531 344.5209655761719 194.1986083984375 343.9748229980469 C 194.2925415039063 343.9574279785156 194.3600463867188 343.8759765625 194.3600463867188 343.7801208496094 C 194.3600463867188 343.6871643066406 194.2925415039063 343.6058654785156 194.1986083984375 343.5854797363281 C 191.4343566894531 343.0392761230469 190.0140686035156 342.1155090332031 188.3619689941406 340.5989990234375 C 186.627685546875 339.0069580078125 185.5624694824219 334.9629516601563 185.5536804199219 334.9194030761719 C 185.5303039550781 334.8325500488281 185.4450836181641 334.7889709472656 185.3599700927734 334.7889709472656 C 185.2741241455078 334.7889709472656 185.1884002685547 334.8332824707031 185.166259765625 334.9223022460938 C 185.1546020507813 334.9629516601563 184.0923156738281 339.0069580078125 182.3580627441406 340.5989990234375 C 180.7059326171875 342.1155090332031 179.2856140136719 343.0392761230469 176.5213317871094 343.5854797363281 C 176.4274597167969 343.6058654785156 176.3599548339844 343.6871643066406 176.3599548339844 343.7801208496094 C 176.3599548339844 343.8759765625 176.4274597167969 343.9574279785156 176.5213317871094 343.9748229980469 C 179.2827453613281 344.5209655761719 180.7030029296875 345.44482421875 182.3580627441406 346.9612731933594 C 184.0923156738281 348.5534362792969 185.1546020507813 352.6002807617188 185.166259765625 352.6408996582031 C 185.1868591308594 352.7280578613281 185.26904296875 352.7890625 185.3600158691406 352.7890625 M 185.3600158691406 354.7890625 C 184.3512573242188 354.7890625 183.4829864501953 354.1169128417969 183.2316436767578 353.1483764648438 C 182.8451690673828 351.7188415527344 181.9346771240234 349.28759765625 181.0054931640625 348.4345397949219 C 179.560546875 347.1106262207031 178.4628295898438 346.3984680175781 176.1398315429688 345.9381103515625 C 175.1073913574219 345.7384338378906 174.3599548339844 344.8337097167969 174.3599548339844 343.7801208496094 C 174.3599548339844 342.7534790039063 175.0903930664063 341.8496704101563 176.0968017578125 341.6310729980469 C 176.1090545654297 341.6283874511719 176.121337890625 341.6258544921875 176.1336364746094 341.6234130859375 C 178.4642944335938 341.1629028320313 179.5616302490234 340.4510498046875 181.005615234375 339.1256103515625 C 181.9361114501953 338.2714233398438 182.8475036621094 335.8372497558594 183.2330780029297 334.4095153808594 C 183.2332916259766 334.4087219238281 183.2335052490234 334.4079284667969 183.2337188720703 334.4071655273438 C 183.4867248535156 333.4526672363281 184.356201171875 332.7889709472656 185.3599548339844 332.7889709472656 C 186.3559265136719 332.7889709472656 187.2297515869141 333.4512939453125 187.4849700927734 334.399658203125 C 187.4886016845703 334.4131469726563 187.4920959472656 334.4266662597656 187.4954376220703 334.4402465820313 C 187.7790069580078 335.5343322753906 188.7268676757813 338.2190551757813 189.7144775390625 339.1256408691406 C 191.1583862304688 340.4510498046875 192.2557067871094 341.1629028320313 194.5863037109375 341.6234130859375 C 194.5985260009766 341.6258239746094 194.6107177734375 341.6283569335938 194.6228790283203 341.6310119628906 C 195.6294708251953 341.8495178222656 196.3600463867188 342.7533264160156 196.3600463867188 343.7801208496094 C 196.3600463867188 344.8334350585938 195.6129302978516 345.7379455566406 194.5809173583984 345.9379577636719 C 192.2542724609375 346.3984069824219 191.1573181152344 347.1102294921875 189.7144012451172 348.4346923828125 C 188.7292022705078 349.3376159667969 187.7787170410156 352.0295104980469 187.4940490722656 353.1256103515625 C 187.4911651611328 353.13720703125 187.4881591796875 353.1487731933594 187.4850616455078 353.1603088378906 C 187.2271575927734 354.1192932128906 186.3533172607422 354.7890625 185.3600158691406 354.7890625 Z" stroke="none" fill="#fff"/>
    </g>
    <g id="_7" data-name="7" transform="translate(156.093 -52.789)" fill="#fff20e" stroke-linecap="round" stroke-linejoin="round">
      <path d="M 189.3023986816406 361.6737976074219 C 188.7093811035156 361.6737976074219 188.1998443603516 361.2793273925781 188.0557250976563 360.7117309570313 L 188.0548553466797 360.7085876464844 C 187.489501953125 358.6147766113281 186.0644073486328 354.6412963867188 184.3091583251953 353.0298461914063 C 182.0157318115234 350.9284973144531 180.1622772216797 349.7247009277344 176.4019165039063 348.9803466796875 C 175.7976837158203 348.864501953125 175.3599548339844 348.3351745605469 175.3599548339844 347.7185974121094 C 175.3599548339844 347.1185607910156 175.7888031005859 346.5898742675781 176.3796691894531 346.4614868164063 L 176.3889007568359 346.4595031738281 L 176.3981628417969 346.4576721191406 C 180.1668243408203 345.7129821777344 182.0191345214844 344.5093994140625 184.3092346191406 342.4073181152344 C 186.0649719238281 340.7955322265625 187.4898376464844 336.8246765136719 188.0549468994141 334.7324829101563 L 188.0565490722656 334.7266845703125 C 188.2002716064453 334.1738586425781 188.7105712890625 333.7889404296875 189.3022918701172 333.7889404296875 C 189.8972320556641 333.7889404296875 190.3972625732422 334.1618041992188 190.5465393066406 334.7167663574219 L 190.5547485351563 334.7472839355469 L 190.5566711425781 334.7567749023438 C 190.8572692871094 335.9439086914063 192.3416900634766 340.6137084960938 194.2955780029297 342.4073486328125 C 196.5856170654297 344.5093994140625 198.4378814697266 345.7130126953125 202.2064819335938 346.4576721191406 L 202.2156829833984 346.45947265625 L 202.2248382568359 346.4614562988281 C 202.8158264160156 346.5898132324219 203.2447814941406 347.1184997558594 203.2447814941406 347.7185974121094 C 203.2447814941406 348.3355712890625 202.8065643310547 348.8651428222656 202.2016906738281 348.9805297851563 C 198.4365081787109 349.7251892089844 196.5847473144531 350.9286804199219 194.2955474853516 353.0299072265625 C 193.3940124511719 353.8561706542969 192.4714813232422 355.4046630859375 191.6271057128906 357.5084838867188 C 190.9624481201172 359.1645202636719 190.5877380371094 360.5634460449219 190.5543212890625 360.6903686523438 L 190.5529479980469 360.6966857910156 L 190.5465850830078 360.7203369140625 C 190.3956756591797 361.28173828125 189.8840637207031 361.6737976074219 189.3023986816406 361.6737976074219 Z" stroke="none"/>
      <path d="M 189.3023986816406 360.6737976074219 C 189.4331665039063 360.6737976074219 189.5471801757813 360.5860900878906 189.5808715820313 360.4607543945313 C 189.5935363769531 360.40234375 191.1211242675781 354.5828247070313 193.6193237304688 352.293212890625 C 195.9951171875 350.1124877929688 198.0375366210938 348.7839660644531 202.0126342773438 347.9985656738281 C 202.147705078125 347.9735717773438 202.2447814941406 347.8564453125 202.2447814941406 347.7185974121094 C 202.2447814941406 347.5849304199219 202.147705078125 347.468017578125 202.0126342773438 347.4386901855469 C 198.0375366210938 346.6532287597656 195.9951171875 345.3247985839844 193.6193237304688 343.1440124511719 C 191.1253356933594 340.8545837402344 189.5935363769531 335.0391540527344 189.5808715820313 334.9765319824219 C 189.5472717285156 334.8516235351563 189.4247131347656 334.7889404296875 189.3023071289063 334.7889404296875 C 189.1788787841797 334.7889404296875 189.0556030273438 334.8526611328125 189.0237731933594 334.9806823730469 C 189.0069885253906 335.0391540527344 187.4793701171875 340.8545837402344 184.9854431152344 343.1440124511719 C 182.609619140625 345.3247985839844 180.567138671875 346.6532287597656 176.5920104980469 347.4386901855469 C 176.45703125 347.468017578125 176.3599548339844 347.5849304199219 176.3599548339844 347.7185974121094 C 176.3599548339844 347.8564453125 176.45703125 347.9735717773438 176.5920104980469 347.9985656738281 C 180.5630187988281 348.7839660644531 182.6054077148438 350.1124877929688 184.9854431152344 352.293212890625 C 187.4793701171875 354.5828247070313 189.0069885253906 360.40234375 189.0237731933594 360.4607543945313 C 189.0533752441406 360.5860900878906 189.1715698242188 360.6737976074219 189.3023986816406 360.6737976074219 M 189.3023986816406 362.6737976074219 C 188.252197265625 362.6737976074219 187.3487854003906 361.9744567871094 187.0888366699219 360.967041015625 C 186.5879669189453 359.113037109375 185.2220916748047 355.2255249023438 183.6328735351563 353.7664794921875 C 181.4775695800781 351.7916870117188 179.7366180419922 350.6601257324219 176.2097778320313 349.9617004394531 C 175.1367950439453 349.7541809082031 174.3599548339844 348.8137512207031 174.3599548339844 347.7185974121094 C 174.3599548339844 346.6515197753906 175.1200714111328 345.7118530273438 176.1673431396484 345.4842834472656 C 176.1796417236328 345.4816284179688 176.1919708251953 345.4790649414063 176.2043151855469 345.4766235351563 C 179.7400970458984 344.7779846191406 181.4801177978516 343.6467590332031 183.6330108642578 341.6705932617188 C 185.223388671875 340.2106323242188 186.5894317626953 336.3232727050781 187.0895538330078 334.4717407226563 C 187.0901641845703 334.4694519042969 187.0907592773438 334.4672546386719 187.0913238525391 334.4651489257813 C 187.3530731201172 333.4764709472656 188.2572937011719 332.7889404296875 189.3022918701172 332.7889404296875 C 190.3393096923828 332.7889404296875 191.2480621337891 333.4748840332031 191.5122222900391 334.4570922851563 C 191.5160827636719 334.4713745117188 191.5197601318359 334.4857177734375 191.5233001708984 334.5000915527344 C 191.5477142333984 334.5924377441406 191.9211120605469 335.984375 192.5746612548828 337.6023559570313 C 193.3478393554688 339.5165710449219 194.1991729736328 340.9613647460938 194.9718322753906 341.670654296875 C 197.1246337890625 343.6467590332031 198.8646240234375 344.7779846191406 202.4003295898438 345.4766235351563 C 202.4125823974609 345.4790344238281 202.4248352050781 345.4815979003906 202.4370422363281 345.4842529296875 C 203.4845123291016 345.7117004394531 204.2447814941406 346.6513671875 204.2447814941406 347.7185974121094 C 204.2447814941406 348.8140869140625 203.4674987792969 349.7546691894531 202.3940277099609 349.9618835449219 C 198.8628387451172 350.6605224609375 197.1234130859375 351.7916259765625 194.9717559814453 353.7666320800781 C 194.1953735351563 354.4781799316406 193.3421325683594 355.9275512695313 192.5680999755859 357.8487548828125 C 191.9104461669922 359.4810791015625 191.5434112548828 360.8609924316406 191.5218353271484 360.9430847167969 C 191.5187835693359 360.9553833007813 191.5156097412109 360.9676818847656 191.5123138427734 360.9799499511719 C 191.2442169189453 361.9772644042969 190.3354644775391 362.6737976074219 189.3023986816406 362.6737976074219 Z" stroke="none" fill="#fff"/>
    </g>
    <g id="_8" data-name="8" transform="translate(-151.907 33.211)" fill="#f6ffa8" stroke-linecap="round" stroke-linejoin="round">
      <path d="M 185.3599395751953 353.7888488769531 C 184.8085479736328 353.7888488769531 184.3344116210938 353.4219360351563 184.1986541748047 352.8936462402344 L 184.1983184814453 352.8924255371094 C 183.8137359619141 351.4680786132813 182.8508911132813 348.7711791992188 181.6817016601563 347.69775390625 C 180.1290283203125 346.275146484375 178.8745727539063 345.4600830078125 176.3310546875 344.9564208984375 C 175.7678375244141 344.84814453125 175.3599548339844 344.3547668457031 175.3599548339844 343.780029296875 C 175.3599548339844 343.2204895019531 175.7590942382813 342.7276611328125 176.3090362548828 342.6081848144531 L 176.3182373046875 342.6061706542969 L 176.3274688720703 342.6043701171875 C 178.8771820068359 342.1005554199219 180.1310577392578 341.28564453125 181.6817626953125 339.8622436523438 C 182.8514862060547 338.7884216308594 183.8140563964844 336.0933837890625 184.1984100341797 334.6702270507813 L 184.19921875 334.6672973632813 C 184.3346710205078 334.1494140625 184.8098602294922 333.7889709472656 185.35986328125 333.7889709472656 C 185.9045562744141 333.7889709472656 186.3813018798828 334.1469421386719 186.5192260742188 334.6595458984375 L 186.5274353027344 334.6900634765625 L 186.529052734375 334.6980895996094 C 186.7393951416016 335.5167541503906 187.7485198974609 338.6784362792969 189.0381164550781 339.8622741699219 C 190.5887756347656 341.28564453125 191.8426055908203 342.1005554199219 194.3922882080078 342.6043701171875 L 194.4014587402344 342.6061706542969 L 194.4105987548828 342.608154296875 C 194.9606323242188 342.7275695800781 195.35986328125 343.2203979492188 195.35986328125 343.780029296875 C 195.35986328125 344.3546752929688 194.9521179199219 344.8479614257813 194.3890228271484 344.9563598632813 C 191.8416442871094 345.460205078125 190.5881805419922 346.2750244140625 189.0380706787109 347.6978149414063 C 187.7736358642578 348.856689453125 186.7810974121094 351.8812255859375 186.5271911621094 352.8694763183594 L 186.5256042480469 352.8767395019531 L 186.5193023681641 352.9001770019531 C 186.3787231445313 353.4234313964844 185.9019622802734 353.7888488769531 185.3599395751953 353.7888488769531 Z" stroke="none"/>
      <path d="M 185.3599395751953 352.7888488769531 C 185.4508666992188 352.7888488769531 185.5301513671875 352.7278442382813 185.5535736083984 352.6406860351563 C 185.5623931884766 352.60009765625 186.6246490478516 348.5532836914063 188.3618621826172 346.9611206054688 C 190.0139465332031 345.4447021484375 191.4342193603516 344.5208740234375 194.1984405517578 343.9747009277344 C 194.2923583984375 343.9573364257813 194.35986328125 343.8758544921875 194.35986328125 343.780029296875 C 194.35986328125 343.6870727539063 194.2923583984375 343.6057739257813 194.1984405517578 343.5853881835938 C 191.4342193603516 343.0391845703125 190.0139465332031 342.1154174804688 188.3618621826172 340.5989379882813 C 186.6275787353516 339.0068969726563 185.5623931884766 334.9629516601563 185.5535736083984 334.9193725585938 C 185.5302124023438 334.8325500488281 185.4449920654297 334.7889404296875 185.35986328125 334.7889404296875 C 185.2740478515625 334.7889404296875 185.1883087158203 334.8332824707031 185.1661834716797 334.9222717285156 C 185.1545104980469 334.9629516601563 184.0922241210938 339.0068969726563 182.3579864501953 340.5989379882813 C 180.7058715820313 342.1154174804688 179.2855682373047 343.0391845703125 176.5213165283203 343.5853881835938 C 176.4274597167969 343.6057739257813 176.3599548339844 343.6870727539063 176.3599548339844 343.780029296875 C 176.3599548339844 343.8758544921875 176.4274597167969 343.9573364257813 176.5213165283203 343.9747009277344 C 179.2826995849609 344.5208740234375 180.7029418945313 345.4447021484375 182.3579864501953 346.9611206054688 C 184.0922241210938 348.5532836914063 185.1545104980469 352.60009765625 185.1661834716797 352.6406860351563 C 185.186767578125 352.7278442382813 185.2689514160156 352.7888488769531 185.3599395751953 352.7888488769531 M 185.3599395751953 354.7888488769531 C 184.3511199951172 354.7888488769531 183.4828796386719 354.1166687011719 183.2315521240234 353.1481323242188 C 182.8449401855469 351.7184753417969 181.9343414306641 349.2872314453125 181.0054016113281 348.4343872070313 C 179.5599670410156 347.1100463867188 178.4618530273438 346.3977966308594 176.1371002197266 345.9374389648438 C 175.1061096191406 345.7367248535156 174.3599548339844 344.8327331542969 174.3599548339844 343.780029296875 C 174.3599548339844 342.7533874511719 175.0903778076172 341.849609375 176.0967559814453 341.6309814453125 C 176.1090240478516 341.6282958984375 176.1213073730469 341.6257629394531 176.1336364746094 341.6233215332031 C 178.4642333984375 341.1628112792969 179.5615539550781 340.4509582519531 181.0055541992188 339.1255493164063 C 181.9360046386719 338.2713623046875 182.847412109375 335.8372192382813 183.2330017089844 334.4094848632813 C 183.2332153320313 334.40869140625 183.2334442138672 334.4078674316406 183.2336578369141 334.4070739746094 C 183.4866638183594 333.45263671875 184.3561401367188 332.7889709472656 185.35986328125 332.7889709472656 C 186.3558959960938 332.7889709472656 187.229736328125 333.4513549804688 187.4848937988281 334.3997802734375 C 187.4884643554688 334.4130554199219 187.4918975830078 334.4263305664063 187.4951782226563 334.4396667480469 C 187.7786865234375 335.5335693359375 188.7267608642578 338.218994140625 189.71435546875 339.1256103515625 C 191.1582641601563 340.4509887695313 192.2555847167969 341.1628112792969 194.5861358642578 341.6233215332031 C 194.5983734130859 341.625732421875 194.6105651855469 341.6282653808594 194.6227416992188 341.6309204101563 C 195.6293029785156 341.8494262695313 196.35986328125 342.7532653808594 196.35986328125 343.780029296875 C 196.35986328125 344.83349609375 195.6126556396484 345.7379760742188 194.5805358886719 345.9378662109375 C 192.2538909912109 346.3983764648438 191.1571807861328 347.1101379394531 189.7142791748047 348.4345397949219 C 188.8157958984375 349.2579956054688 187.8593292236328 351.7178955078125 187.493896484375 353.1255493164063 C 187.4910583496094 353.136962890625 187.4881134033203 353.1483459472656 187.4850616455078 353.15966796875 C 187.2273101806641 354.118896484375 186.3534240722656 354.7888488769531 185.3599395751953 354.7888488769531 Z" stroke="none" fill="#fff"/>
    </g>
    <g id="_9" data-name="9" transform="translate(-131.907 67.211)" fill="#fff20e" stroke-linecap="round" stroke-linejoin="round">
      <path d="M 181.5017700195313 346.0725708007813 C 180.9907379150391 346.0725708007813 180.5510559082031 345.7322998046875 180.4238433837891 345.2419128417969 C 180.1988067626953 344.4092407226563 179.6637268066406 342.9877014160156 179.1104278564453 342.479736328125 C 178.2647399902344 341.7048645019531 177.6222076416016 341.2881469726563 176.26123046875 341.0185241699219 C 175.7384796142578 340.9173889160156 175.3599548339844 340.4591674804688 175.3599548339844 339.9256896972656 C 175.3599548339844 339.4058837890625 175.7299194335938 338.9481506347656 176.2396545410156 338.8373107910156 L 176.2489624023438 338.8352966308594 L 176.25830078125 338.8334655761719 C 177.6232147216797 338.5637512207031 178.2655181884766 338.1471862792969 179.1104888916016 337.37158203125 C 179.6644287109375 336.8630676269531 180.1996917724609 335.4410705566406 180.4243316650391 334.6093444824219 L 180.4244995117188 334.6087341308594 C 180.5519866943359 334.1252746582031 180.9927062988281 333.7889709472656 181.5017395019531 333.7889709472656 C 182.0064392089844 333.7889709472656 182.4490509033203 334.1240234375 182.5780792236328 334.6037292480469 L 182.5862579345703 334.6341857910156 L 182.5874176025391 334.6399230957031 C 182.7566375732422 335.2861938476563 183.3082885742188 336.8347778320313 183.89306640625 337.37158203125 C 184.7379913330078 338.1471862792969 185.3802795410156 338.5637512207031 186.7451782226563 338.8334655761719 L 186.7544403076172 338.8352966308594 L 186.763671875 338.8372802734375 C 187.2735137939453 338.9480590820313 187.6435546875 339.4058227539063 187.6435546875 339.9256896972656 C 187.6435546875 340.4586486816406 187.2658386230469 340.9164428710938 186.7438812255859 341.0182189941406 C 185.3799133300781 341.2878723144531 184.7377624511719 341.7044372558594 183.8930511474609 342.4797973632813 C 183.3028564453125 343.0206909179688 182.7606506347656 344.5484313964844 182.5855865478516 345.2186889648438 L 182.5844573974609 345.223876953125 L 182.5782012939453 345.2471618652344 C 182.44775390625 345.733154296875 182.0051116943359 346.0725708007813 181.5017700195313 346.0725708007813 Z" stroke="none"/>
      <path d="M 181.5017700195313 345.0725708007813 C 181.5537261962891 345.0725708007813 181.5990295410156 345.0377197265625 181.6123962402344 344.9879150390625 C 181.617431640625 344.9647216796875 182.2243347167969 342.6527099609375 183.2168273925781 341.7431030273438 C 184.1606750488281 340.8767395019531 184.9721069335938 340.3489379882813 186.5513305664063 340.0369262695313 C 186.6049957275391 340.0269775390625 186.6435546875 339.9804382324219 186.6435546875 339.9256896972656 C 186.6435546875 339.8725891113281 186.6049957275391 339.8261413574219 186.5513305664063 339.8144836425781 C 184.9721069335938 339.50244140625 184.1606750488281 338.9746704101563 183.2168273925781 338.1082763671875 C 182.2259979248047 337.19873046875 181.617431640625 334.8883666992188 181.6123962402344 334.8634643554688 C 181.5990600585938 334.8138732910156 181.5503692626953 334.7889709472656 181.5017395019531 334.7889709472656 C 181.4526977539063 334.7889709472656 181.4037322998047 334.8142700195313 181.3910827636719 334.8651123046875 C 181.3844146728516 334.8883666992188 180.7775115966797 337.19873046875 179.7867126464844 338.1082763671875 C 178.8428344726563 338.9746704101563 178.0314025878906 339.50244140625 176.4521484375 339.8144836425781 C 176.3985290527344 339.8261413574219 176.3599548339844 339.8725891113281 176.3599548339844 339.9256896972656 C 176.3599548339844 339.9804382324219 176.3985290527344 340.0269775390625 176.4521484375 340.0369262695313 C 178.0297546386719 340.3489379882813 178.8411712646484 340.8767395019531 179.7867126464844 341.7431030273438 C 180.7775115966797 342.6527099609375 181.3844146728516 344.9647216796875 181.3910827636719 344.9879150390625 C 181.40283203125 345.0377197265625 181.4497985839844 345.0725708007813 181.5017700195313 345.0725708007813 M 181.5017700195313 347.0725708007813 C 180.533935546875 347.0725708007813 179.7006683349609 346.4278869628906 179.4572601318359 345.498291015625 C 179.19921875 344.5456848144531 178.7217712402344 343.4804382324219 178.4341583251953 343.2164001464844 C 177.7008972167969 342.5445556640625 177.2090911865234 342.2261047363281 176.0696868896484 342.0000305175781 C 175.0779113769531 341.8074035644531 174.3599548339844 340.9378662109375 174.3599548339844 339.9256896972656 C 174.3599548339844 338.9389038085938 175.0611114501953 338.0702209472656 176.0271606445313 337.8601379394531 C 176.0395812988281 337.8574523925781 176.052001953125 337.8548583984375 176.0644683837891 337.8524169921875 C 177.2092895507813 337.626220703125 177.7006988525391 337.3082275390625 178.4342651367188 336.6348876953125 C 178.7225952148438 336.3702087402344 179.2012634277344 335.3023071289063 179.4587249755859 334.3493347167969 C 179.7034606933594 333.4288330078125 180.5386199951172 332.7889709472656 181.5017395019531 332.7889709472656 C 182.4577941894531 332.7889709472656 183.2975158691406 333.4284362792969 183.5437622070313 334.3440246582031 C 183.5465698242188 334.3544311523438 183.5492858886719 334.3648986816406 183.5519104003906 334.3753356933594 C 183.7610473632813 335.1689147949219 184.2602844238281 336.3512573242188 184.5693054199219 336.6349182128906 C 185.3028106689453 337.3082275390625 185.7942047119141 337.626220703125 186.9390106201172 337.8524169921875 C 186.9513702392578 337.8548583984375 186.9636993408203 337.857421875 186.9760131835938 337.860107421875 C 187.9422607421875 338.0700378417969 188.6435546875 338.9387512207031 188.6435546875 339.9256896972656 C 188.6435546875 340.9377746582031 187.9259185791016 341.8070983886719 186.9343414306641 341.9999084472656 C 185.7928771972656 342.2260437011719 185.3018493652344 342.5440673828125 184.5692596435547 343.2164916992188 C 184.2548980712891 343.504638671875 183.7648010253906 344.6680297851563 183.5509185791016 345.4800109863281 C 183.5486755371094 345.4888305664063 183.5463714599609 345.4976196289063 183.5440216064453 345.5064086914063 C 183.2964935302734 346.4285278320313 182.4566955566406 347.0725708007813 181.5017700195313 347.0725708007813 Z" stroke="none" fill="#fff"/>
    </g>
    <g id="_10" data-name="10" transform="translate(-102.907 31.211)" fill="#f6ffa8" stroke-linecap="round" stroke-linejoin="round">
      <path d="M 194.3611755371094 371.7913208007813 C 193.7156219482422 371.7913208007813 193.1614227294922 371.3626708984375 193.0056457519531 370.7461242675781 C 193.0049591064453 370.7435607910156 193.0042114257813 370.7408142089844 193.00341796875 370.7378540039063 C 192.2062377929688 367.7850952148438 190.1880798339844 362.1737060546875 187.6805725097656 359.8717346191406 C 184.5082550048828 356.965087890625 181.7851409912109 355.1908569335938 176.4925994873047 354.1435852050781 C 175.8358154296875 354.0179748535156 175.3599548339844 353.4425964355469 175.3599548339844 352.7723999023438 C 175.3599548339844 352.1207275390625 175.8267211914063 351.5460205078125 176.4698181152344 351.4059143066406 L 176.4793243408203 351.4038391113281 L 176.4888610839844 351.4019775390625 C 181.7919616699219 350.3541564941406 184.5135498046875 348.5801391601563 187.6806182861328 345.6730346679688 C 190.1895446777344 343.3698425292969 192.2070465087891 337.7622680664063 193.0036010742188 334.8119812011719 C 193.0048065185547 334.8075256347656 193.0059051513672 334.8034973144531 193.0068664550781 334.7999267578125 C 193.1622161865234 334.2039794921875 193.7168731689453 333.7890014648438 194.3610992431641 333.7890014648438 C 195.0093078613281 333.7890014648438 195.5530700683594 334.1912231445313 195.7141571044922 334.7899169921875 L 195.7224884033203 334.8208618164063 L 195.7242126464844 334.8294372558594 C 195.7691802978516 335.0010375976563 196.2904663085938 336.9546203613281 197.2324676513672 339.2999572753906 C 198.4296569824219 342.2806091308594 199.7468872070313 344.484375 201.041748046875 345.6730651855469 C 204.2087554931641 348.5801391601563 206.9302825927734 350.3541564941406 212.2332916259766 351.4019775390625 L 212.2427215576172 351.4038391113281 L 212.2521209716797 351.4058837890625 C 212.8954315185547 351.5458984375 213.3623352050781 352.12060546875 213.3623352050781 352.7723999023438 C 213.3623352050781 353.4425048828125 212.8866729736328 354.0177307128906 212.2300262451172 354.1434936523438 C 206.9293212890625 355.191162109375 204.2084655761719 356.9650268554688 201.0417175292969 359.8717651367188 C 197.8616027832031 362.7862548828125 195.8005981445313 370.4257202148438 195.7222442626953 370.7232360839844 L 195.7206726074219 370.7304992675781 L 195.7143402099609 370.7541198730469 C 195.5504608154297 371.3648071289063 194.9940185546875 371.7913208007813 194.3611755371094 371.7913208007813 Z" stroke="none"/>
      <path d="M 194.3611755371094 370.7913208007813 C 194.5430603027344 370.7913208007813 194.7016906738281 370.6693725585938 194.7485046386719 370.4949340820313 C 194.7660827636719 370.4137573242188 196.8908386230469 362.3195190429688 200.3655090332031 359.1350708007813 C 203.6698913574219 356.1019897460938 206.5106506347656 354.2540893554688 212.0394592285156 353.1618041992188 C 212.2273254394531 353.1270141601563 212.3623352050781 352.9640502929688 212.3623352050781 352.7723999023438 C 212.3623352050781 352.5864868164063 212.2273254394531 352.4238891601563 212.0394592285156 352.3829956054688 C 206.5106506347656 351.2905883789063 203.6698913574219 349.4429321289063 200.3655090332031 346.4097290039063 C 196.8966979980469 343.2254028320313 194.7660827636719 335.1370239257813 194.7485046386719 335.0497436523438 C 194.7017974853516 334.8761901855469 194.5313262939453 334.7890014648438 194.3610992431641 334.7890014648438 C 194.1893920898438 334.7890014648438 194.0179138183594 334.8775939941406 193.9736633300781 335.0556030273438 C 193.9503479003906 335.1370239257813 191.8255920410156 343.2254028320313 188.3568420410156 346.4097290039063 C 185.0523986816406 349.4429321289063 182.2115783691406 351.2905883789063 176.6827087402344 352.3829956054688 C 176.4950256347656 352.4238891601563 176.3599548339844 352.5864868164063 176.3599548339844 352.7723999023438 C 176.3599548339844 352.9640502929688 176.4950256347656 353.1270141601563 176.6827087402344 353.1618041992188 C 182.2058410644531 354.2540893554688 185.0465393066406 356.1019897460938 188.3568420410156 359.1350708007813 C 191.8255920410156 362.3195190429688 193.9503479003906 370.4137573242188 193.9736633300781 370.4949340820313 C 194.0148010253906 370.6693725585938 194.1792297363281 370.7913208007813 194.3611755371094 370.7913208007813 M 194.3611755371094 372.7913208007813 C 193.2579956054688 372.7913208007813 192.3096618652344 372.0572814941406 192.0384368896484 371.0002136230469 C 192.0382843017578 370.9996643066406 192.0381317138672 370.9990844726563 192.0379791259766 370.9985046386719 C 191.2688751220703 368.1497192382813 189.3432006835938 362.7555847167969 187.0042877197266 360.6083679199219 C 183.8986053466797 357.7627563476563 181.3891296386719 356.1324157714844 176.3018341064453 355.1252136230469 C 175.1756439208984 354.9084167480469 174.3599548339844 353.9216003417969 174.3599548339844 352.7723999023438 C 174.3599548339844 351.6539306640625 175.1577606201172 350.6683044433594 176.2569580078125 350.4288330078125 C 176.2696075439453 350.4260864257813 176.2823181152344 350.4234313964844 176.2950286865234 350.4209289550781 C 181.3948974609375 349.4132995605469 183.9028015136719 347.7833557128906 187.00439453125 344.9363403320313 C 189.3446807861328 342.7879638671875 191.2696838378906 337.3976440429688 192.0381774902344 334.5513305664063 C 192.0390777587891 334.5479736328125 192.0399475097656 334.5447692871094 192.040771484375 334.5417785644531 C 192.3129577636719 333.508056640625 193.2623748779297 332.7890014648438 194.3610992431641 332.7890014648438 C 195.4505004882813 332.7890014648438 196.4040069580078 333.5049743652344 196.6798248291016 334.5301208496094 C 196.6844024658203 334.5471496582031 196.6887664794922 334.5642700195313 196.6929016113281 334.5814208984375 C 197.0982208251953 336.1762084960938 199.1237030029297 342.5548400878906 201.718017578125 344.9363708496094 C 204.8195037841797 347.7833557128906 207.3273620605469 349.4132995605469 212.4271392822266 350.4209289550781 C 212.4397125244141 350.4234008789063 212.4522705078125 350.426025390625 212.4647979736328 350.4287414550781 C 213.5643005371094 350.6680603027344 214.3623352050781 351.6537170410156 214.3623352050781 352.7723999023438 C 214.3623352050781 353.9217224121094 213.5466156005859 354.9085083007813 212.4202423095703 355.125244140625 C 207.3252563476563 356.1327819824219 204.8184661865234 357.7625122070313 201.7179412841797 360.6084899902344 C 200.5338287353516 361.6936950683594 199.3069305419922 363.762939453125 198.1687316894531 366.5935363769531 C 197.2417297363281 368.89892578125 196.7155303955078 370.8778076171875 196.6903991699219 370.9735412597656 C 196.6871185302734 370.98681640625 196.6837158203125 371.0000610351563 196.6801605224609 371.0132751464844 C 196.3992462158203 372.0601806640625 195.4456329345703 372.7913208007813 194.3611755371094 372.7913208007813 Z" stroke="none" fill="#fff"/>
    </g>
    <g id="_11" data-name="11" transform="translate(-29.907 16.211)" fill="#fff20e" stroke-linecap="round" stroke-linejoin="round">
      <path d="M 182.3599853515625 347.7890625 C 181.8397064208984 347.7890625 181.3922424316406 347.4425964355469 181.2633666992188 346.9434204101563 C 181.0329895019531 346.0908203125 180.40673828125 344.3055114746094 179.6823883056641 343.6405029296875 C 178.6932373046875 342.7341918945313 177.8942108154297 342.21484375 176.2763671875 341.8944702148438 C 175.7447967529297 341.7915954589844 175.3599548339844 341.3256225585938 175.3599548339844 340.7831115722656 C 175.3599548339844 340.2547912597656 175.7361602783203 339.789306640625 176.2545013427734 339.67626953125 L 176.2640686035156 339.6741943359375 L 176.2736968994141 339.6723022460938 C 177.8959197998047 339.3517761230469 178.6944122314453 338.8326110839844 179.6824493408203 337.9256591796875 C 180.4075927734375 337.2599792480469 181.0339660644531 335.4741821289063 181.2638549804688 334.6229248046875 L 181.2643432617188 334.6211547851563 C 181.3938446044922 334.13037109375 181.842041015625 333.7890014648438 182.3599700927734 333.7890014648438 C 182.8734893798828 333.7890014648438 183.3236694335938 334.1290588378906 183.4547424316406 334.6159973144531 L 183.4630737304688 334.64697265625 L 183.4644012451172 334.6535339355469 C 183.6710662841797 335.4494323730469 184.3171234130859 337.2643432617188 185.0375671386719 337.9256896972656 C 186.0255737304688 338.8326110839844 186.8240356445313 339.3517761230469 188.4462280273438 339.6723022460938 L 188.4557647705078 339.6741638183594 L 188.4652557373047 339.6762390136719 C 188.9837188720703 339.7891845703125 189.3600158691406 340.2546997070313 189.3600158691406 340.7831115722656 C 189.3600158691406 341.32568359375 188.9750823974609 341.7916259765625 188.4434509277344 341.8945007324219 C 186.8231964111328 342.2149963378906 186.0251312255859 342.7340698242188 185.0375366210938 343.6405639648438 C 184.3184661865234 344.2995910644531 183.6692352294922 346.1244812011719 183.4625091552734 346.9201354980469 L 183.4612426757813 346.926025390625 L 183.4548187255859 346.9498901367188 C 183.3219909667969 347.4439697265625 182.8717803955078 347.7890625 182.3599853515625 347.7890625 Z" stroke="none"/>
      <path d="M 182.3599853515625 346.7890625 C 182.4206237792969 346.7890625 182.4734802246094 346.7484130859375 182.4891052246094 346.6902770996094 C 182.4949645996094 346.6632080078125 183.2031555175781 343.9653015136719 184.3613128662109 342.9038696289063 C 185.4627075195313 341.8929138183594 186.4095764160156 341.2769775390625 188.2523956298828 340.9129028320313 C 188.3150024414063 340.9013061523438 188.3600158691406 340.8469848632813 188.3600158691406 340.7831115722656 C 188.3600158691406 340.7211608886719 188.3150024414063 340.6669616699219 188.2523956298828 340.6533203125 C 186.4095764160156 340.2892150878906 185.4627075195313 339.6733703613281 184.3613128662109 338.662353515625 C 183.2051086425781 337.6009826660156 182.4949645996094 334.9049987792969 182.4891052246094 334.8759155273438 C 182.4735260009766 334.8180541992188 182.4167175292969 334.7890014648438 182.3599700927734 334.7890014648438 C 182.302734375 334.7890014648438 182.2455902099609 334.8185424804688 182.2308349609375 334.8778686523438 C 182.2230529785156 334.9049987792969 181.5148468017578 337.6009826660156 180.3586730957031 338.662353515625 C 179.2572631835938 339.6733703613281 178.3103790283203 340.2892150878906 176.467529296875 340.6533203125 C 176.4049682617188 340.6669616699219 176.3599548339844 340.7211608886719 176.3599548339844 340.7831115722656 C 176.3599548339844 340.8469848632813 176.4049682617188 340.9013061523438 176.467529296875 340.9129028320313 C 178.3084716796875 341.2769775390625 179.2553100585938 341.8929138183594 180.3586730957031 342.9038696289063 C 181.5148468017578 343.9653015136719 182.2230529785156 346.6632080078125 182.2308349609375 346.6902770996094 C 182.2445373535156 346.7484130859375 182.2993469238281 346.7890625 182.3599853515625 346.7890625 M 182.3599853515625 348.7890625 C 181.3827972412109 348.7890625 180.5417327880859 348.1380920410156 180.2967224121094 347.1995849609375 C 179.9713439941406 345.9975280761719 179.3929443359375 344.7322998046875 179.0061187744141 344.3771667480469 C 178.1187286376953 343.5640869140625 177.4852905273438 343.1535339355469 176.0842132568359 342.8758239746094 C 175.0839233398438 342.6812438964844 174.3599548339844 341.8041687011719 174.3599548339844 340.7831115722656 C 174.3599548339844 339.7880554199219 175.067138671875 338.9116516113281 176.0414733886719 338.69921875 C 176.0542449951172 338.6964416503906 176.0670318603516 338.6937866210938 176.0798492431641 338.6912536621094 C 177.486083984375 338.4134216308594 178.1191253662109 338.0032653808594 179.0062103271484 337.18896484375 C 179.3939208984375 336.8330688476563 179.9736328125 335.56494140625 180.2984313964844 334.3622131347656 C 180.2984771728516 334.362060546875 180.2985076904297 334.3619384765625 180.2985382080078 334.3617858886719 C 180.5452728271484 333.4339904785156 181.3879547119141 332.7890014648438 182.3599700927734 332.7890014648438 C 183.3248138427734 332.7890014648438 184.1720886230469 333.4334716796875 184.42041015625 334.356201171875 C 184.4235534667969 334.3678894042969 184.4265899658203 334.3796081542969 184.4295196533203 334.391357421875 C 184.6637573242188 335.2841491699219 185.2637329101563 336.7758483886719 185.7138214111328 337.1889953613281 C 186.6008605957031 338.0032653808594 187.2338714599609 338.4134216308594 188.6400604248047 338.6912536621094 C 188.6527709960938 338.6937561035156 188.6654663085938 338.6964111328125 188.6781311035156 338.6991577148438 C 189.6526794433594 338.9114685058594 190.3600158691406 339.7879028320313 190.3600158691406 340.7831115722656 C 190.3600158691406 341.8035583496094 189.6368560791016 342.6801452636719 188.6375122070313 342.87548828125 C 187.2332916259766 343.1532287597656 186.6004028320313 343.5634155273438 185.7137451171875 344.3772888183594 C 185.2638702392578 344.7895812988281 184.6631164550781 346.2848510742188 184.4282989501953 347.1796569824219 C 184.42578125 347.1896362304688 184.4231872558594 347.1995849609375 184.4205322265625 347.2095031738281 C 184.1705017089844 348.1395263671875 183.3231811523438 348.7890625 182.3599853515625 348.7890625 Z" stroke="none" fill="#fff"/>
    </g>
    <g id="_12" data-name="12" transform="translate(89.093 59.211)" fill="#fff20e" stroke-linecap="round" stroke-linejoin="round">
      <path d="M 194.3611755371094 371.7913208007813 C 193.7156219482422 371.7913208007813 193.1614227294922 371.3626708984375 193.0056457519531 370.7461242675781 C 193.0049591064453 370.7435607910156 193.0042114257813 370.7408142089844 193.00341796875 370.7378540039063 C 192.2062377929688 367.7850952148438 190.1880798339844 362.1737060546875 187.6805725097656 359.8717346191406 C 184.5082550048828 356.965087890625 181.7851409912109 355.1908569335938 176.4925994873047 354.1435852050781 C 175.8358154296875 354.0179748535156 175.3599548339844 353.4425964355469 175.3599548339844 352.7723999023438 C 175.3599548339844 352.1207275390625 175.8267211914063 351.5460205078125 176.4698181152344 351.4059143066406 L 176.4793243408203 351.4038391113281 L 176.4888610839844 351.4019775390625 C 181.7919616699219 350.3541564941406 184.5135498046875 348.5801391601563 187.6806182861328 345.6730346679688 C 190.1895446777344 343.3698425292969 192.2070465087891 337.7622680664063 193.0036010742188 334.8119812011719 C 193.0048065185547 334.8075256347656 193.0059051513672 334.8034973144531 193.0068664550781 334.7999267578125 C 193.1622161865234 334.2039794921875 193.7168731689453 333.7890014648438 194.3610992431641 333.7890014648438 C 195.0093078613281 333.7890014648438 195.5530700683594 334.1912231445313 195.7141571044922 334.7899169921875 L 195.7224884033203 334.8208618164063 L 195.7242126464844 334.8294372558594 C 195.7691802978516 335.0010375976563 196.2904663085938 336.9546203613281 197.2324676513672 339.2999572753906 C 198.4296569824219 342.2806091308594 199.7468872070313 344.484375 201.041748046875 345.6730651855469 C 204.2087554931641 348.5801391601563 206.9302825927734 350.3541564941406 212.2332916259766 351.4019775390625 L 212.2427215576172 351.4038391113281 L 212.2521209716797 351.4058837890625 C 212.8954315185547 351.5458984375 213.3623352050781 352.12060546875 213.3623352050781 352.7723999023438 C 213.3623352050781 353.4425048828125 212.8866729736328 354.0177307128906 212.2300262451172 354.1434936523438 C 206.9293212890625 355.191162109375 204.2084655761719 356.9650268554688 201.0417175292969 359.8717651367188 C 197.8616027832031 362.7862548828125 195.8005981445313 370.4257202148438 195.7222442626953 370.7232360839844 L 195.7206726074219 370.7304992675781 L 195.7143402099609 370.7541198730469 C 195.5504608154297 371.3648071289063 194.9940185546875 371.7913208007813 194.3611755371094 371.7913208007813 Z" stroke="none"/>
      <path d="M 194.3611755371094 370.7913208007813 C 194.5430603027344 370.7913208007813 194.7016906738281 370.6693725585938 194.7485046386719 370.4949340820313 C 194.7660827636719 370.4137573242188 196.8908386230469 362.3195190429688 200.3655090332031 359.1350708007813 C 203.6698913574219 356.1019897460938 206.5106506347656 354.2540893554688 212.0394592285156 353.1618041992188 C 212.2273254394531 353.1270141601563 212.3623352050781 352.9640502929688 212.3623352050781 352.7723999023438 C 212.3623352050781 352.5864868164063 212.2273254394531 352.4238891601563 212.0394592285156 352.3829956054688 C 206.5106506347656 351.2905883789063 203.6698913574219 349.4429321289063 200.3655090332031 346.4097290039063 C 196.8966979980469 343.2254028320313 194.7660827636719 335.1370239257813 194.7485046386719 335.0497436523438 C 194.7017974853516 334.8761901855469 194.5313262939453 334.7890014648438 194.3610992431641 334.7890014648438 C 194.1893920898438 334.7890014648438 194.0179138183594 334.8775939941406 193.9736633300781 335.0556030273438 C 193.9503479003906 335.1370239257813 191.8255920410156 343.2254028320313 188.3568420410156 346.4097290039063 C 185.0523986816406 349.4429321289063 182.2115783691406 351.2905883789063 176.6827087402344 352.3829956054688 C 176.4950256347656 352.4238891601563 176.3599548339844 352.5864868164063 176.3599548339844 352.7723999023438 C 176.3599548339844 352.9640502929688 176.4950256347656 353.1270141601563 176.6827087402344 353.1618041992188 C 182.2058410644531 354.2540893554688 185.0465393066406 356.1019897460938 188.3568420410156 359.1350708007813 C 191.8255920410156 362.3195190429688 193.9503479003906 370.4137573242188 193.9736633300781 370.4949340820313 C 194.0148010253906 370.6693725585938 194.1792297363281 370.7913208007813 194.3611755371094 370.7913208007813 M 194.3611755371094 372.7913208007813 C 193.2579956054688 372.7913208007813 192.3096618652344 372.0572814941406 192.0384368896484 371.0002136230469 C 192.0382843017578 370.9996643066406 192.0381317138672 370.9990844726563 192.0379791259766 370.9985046386719 C 191.2688751220703 368.1497192382813 189.3432006835938 362.7555847167969 187.0042877197266 360.6083679199219 C 183.8986053466797 357.7627563476563 181.3891296386719 356.1324157714844 176.3018341064453 355.1252136230469 C 175.1756439208984 354.9084167480469 174.3599548339844 353.9216003417969 174.3599548339844 352.7723999023438 C 174.3599548339844 351.6539306640625 175.1577606201172 350.6683044433594 176.2569580078125 350.4288330078125 C 176.2696075439453 350.4260864257813 176.2823181152344 350.4234313964844 176.2950286865234 350.4209289550781 C 181.3948974609375 349.4132995605469 183.9028015136719 347.7833557128906 187.00439453125 344.9363403320313 C 189.3446807861328 342.7879638671875 191.2696838378906 337.3976440429688 192.0381774902344 334.5513305664063 C 192.0390777587891 334.5479736328125 192.0399475097656 334.5447692871094 192.040771484375 334.5417785644531 C 192.3129577636719 333.508056640625 193.2623748779297 332.7890014648438 194.3610992431641 332.7890014648438 C 195.4505004882813 332.7890014648438 196.4040069580078 333.5049743652344 196.6798248291016 334.5301208496094 C 196.6844024658203 334.5471496582031 196.6887664794922 334.5642700195313 196.6929016113281 334.5814208984375 C 197.0982208251953 336.1762084960938 199.1237030029297 342.5548400878906 201.718017578125 344.9363708496094 C 204.8195037841797 347.7833557128906 207.3273620605469 349.4132995605469 212.4271392822266 350.4209289550781 C 212.4397125244141 350.4234008789063 212.4522705078125 350.426025390625 212.4647979736328 350.4287414550781 C 213.5643005371094 350.6680603027344 214.3623352050781 351.6537170410156 214.3623352050781 352.7723999023438 C 214.3623352050781 353.9217224121094 213.5466156005859 354.9085083007813 212.4202423095703 355.125244140625 C 207.3252563476563 356.1327819824219 204.8184661865234 357.7625122070313 201.7179412841797 360.6084899902344 C 200.5338287353516 361.6936950683594 199.3069305419922 363.762939453125 198.1687316894531 366.5935363769531 C 197.2417297363281 368.89892578125 196.7155303955078 370.8778076171875 196.6903991699219 370.9735412597656 C 196.6871185302734 370.98681640625 196.6837158203125 371.0000610351563 196.6801605224609 371.0132751464844 C 196.3992462158203 372.0601806640625 195.4456329345703 372.7913208007813 194.3611755371094 372.7913208007813 Z" stroke="none" fill="#fff"/>
    </g>
    <g id="_13" data-name="13" transform="translate(115.093 37.211)" fill="#f6ffa8" stroke-linecap="round" stroke-linejoin="round">
      <path d="M 181.5017700195313 346.0725708007813 C 180.9907379150391 346.0725708007813 180.5510559082031 345.7322998046875 180.4238433837891 345.2419128417969 C 180.1988067626953 344.4092407226563 179.6637268066406 342.9877014160156 179.1104278564453 342.479736328125 C 178.2647399902344 341.7048645019531 177.6222076416016 341.2881469726563 176.26123046875 341.0185241699219 C 175.7384796142578 340.9173889160156 175.3599548339844 340.4591674804688 175.3599548339844 339.9256896972656 C 175.3599548339844 339.4058837890625 175.7299194335938 338.9481506347656 176.2396545410156 338.8373107910156 L 176.2489624023438 338.8352966308594 L 176.25830078125 338.8334655761719 C 177.6232147216797 338.5637512207031 178.2655181884766 338.1471862792969 179.1104888916016 337.37158203125 C 179.6644287109375 336.8630676269531 180.1996917724609 335.4410705566406 180.4243316650391 334.6093444824219 L 180.4244995117188 334.6087341308594 C 180.5519866943359 334.1252746582031 180.9927062988281 333.7889709472656 181.5017395019531 333.7889709472656 C 182.0064392089844 333.7889709472656 182.4490509033203 334.1240234375 182.5780792236328 334.6037292480469 L 182.5862579345703 334.6341857910156 L 182.5874176025391 334.6399230957031 C 182.7566375732422 335.2861938476563 183.3082885742188 336.8347778320313 183.89306640625 337.37158203125 C 184.7379913330078 338.1471862792969 185.3802795410156 338.5637512207031 186.7451782226563 338.8334655761719 L 186.7544403076172 338.8352966308594 L 186.763671875 338.8372802734375 C 187.2735137939453 338.9480590820313 187.6435546875 339.4058227539063 187.6435546875 339.9256896972656 C 187.6435546875 340.4586486816406 187.2658386230469 340.9164428710938 186.7438812255859 341.0182189941406 C 185.3799133300781 341.2878723144531 184.7377624511719 341.7044372558594 183.8930511474609 342.4797973632813 C 183.3028564453125 343.0206909179688 182.7606506347656 344.5484313964844 182.5855865478516 345.2186889648438 L 182.5844573974609 345.223876953125 L 182.5782012939453 345.2471618652344 C 182.44775390625 345.733154296875 182.0051116943359 346.0725708007813 181.5017700195313 346.0725708007813 Z" stroke="none"/>
      <path d="M 181.5017700195313 345.0725708007813 C 181.5537261962891 345.0725708007813 181.5990295410156 345.0377197265625 181.6123962402344 344.9879150390625 C 181.617431640625 344.9647216796875 182.2243347167969 342.6527099609375 183.2168273925781 341.7431030273438 C 184.1606750488281 340.8767395019531 184.9721069335938 340.3489379882813 186.5513305664063 340.0369262695313 C 186.6049957275391 340.0269775390625 186.6435546875 339.9804382324219 186.6435546875 339.9256896972656 C 186.6435546875 339.8725891113281 186.6049957275391 339.8261413574219 186.5513305664063 339.8144836425781 C 184.9721069335938 339.50244140625 184.1606750488281 338.9746704101563 183.2168273925781 338.1082763671875 C 182.2259979248047 337.19873046875 181.617431640625 334.8883666992188 181.6123962402344 334.8634643554688 C 181.5990600585938 334.8138732910156 181.5503692626953 334.7889709472656 181.5017395019531 334.7889709472656 C 181.4526977539063 334.7889709472656 181.4037322998047 334.8142700195313 181.3910827636719 334.8651123046875 C 181.3844146728516 334.8883666992188 180.7775115966797 337.19873046875 179.7867126464844 338.1082763671875 C 178.8428344726563 338.9746704101563 178.0314025878906 339.50244140625 176.4521484375 339.8144836425781 C 176.3985290527344 339.8261413574219 176.3599548339844 339.8725891113281 176.3599548339844 339.9256896972656 C 176.3599548339844 339.9804382324219 176.3985290527344 340.0269775390625 176.4521484375 340.0369262695313 C 178.0297546386719 340.3489379882813 178.8411712646484 340.8767395019531 179.7867126464844 341.7431030273438 C 180.7775115966797 342.6527099609375 181.3844146728516 344.9647216796875 181.3910827636719 344.9879150390625 C 181.40283203125 345.0377197265625 181.4497985839844 345.0725708007813 181.5017700195313 345.0725708007813 M 181.5017700195313 347.0725708007813 C 180.533935546875 347.0725708007813 179.7006683349609 346.4278869628906 179.4572601318359 345.498291015625 C 179.19921875 344.5456848144531 178.7217712402344 343.4804382324219 178.4341583251953 343.2164001464844 C 177.7008972167969 342.5445556640625 177.2090911865234 342.2261047363281 176.0696868896484 342.0000305175781 C 175.0779113769531 341.8074035644531 174.3599548339844 340.9378662109375 174.3599548339844 339.9256896972656 C 174.3599548339844 338.9389038085938 175.0611114501953 338.0702209472656 176.0271606445313 337.8601379394531 C 176.0395812988281 337.8574523925781 176.052001953125 337.8548583984375 176.0644683837891 337.8524169921875 C 177.2092895507813 337.626220703125 177.7006988525391 337.3082275390625 178.4342651367188 336.6348876953125 C 178.7225952148438 336.3702087402344 179.2012634277344 335.3023071289063 179.4587249755859 334.3493347167969 C 179.7034606933594 333.4288330078125 180.5386199951172 332.7889709472656 181.5017395019531 332.7889709472656 C 182.4577941894531 332.7889709472656 183.2975158691406 333.4284362792969 183.5437622070313 334.3440246582031 C 183.5465698242188 334.3544311523438 183.5492858886719 334.3648986816406 183.5519104003906 334.3753356933594 C 183.7610473632813 335.1689147949219 184.2602844238281 336.3512573242188 184.5693054199219 336.6349182128906 C 185.3028106689453 337.3082275390625 185.7942047119141 337.626220703125 186.9390106201172 337.8524169921875 C 186.9513702392578 337.8548583984375 186.9636993408203 337.857421875 186.9760131835938 337.860107421875 C 187.9422607421875 338.0700378417969 188.6435546875 338.9387512207031 188.6435546875 339.9256896972656 C 188.6435546875 340.9377746582031 187.9259185791016 341.8070983886719 186.9343414306641 341.9999084472656 C 185.7928771972656 342.2260437011719 185.3018493652344 342.5440673828125 184.5692596435547 343.2164916992188 C 184.2548980712891 343.504638671875 183.7648010253906 344.6680297851563 183.5509185791016 345.4800109863281 C 183.5486755371094 345.4888305664063 183.5463714599609 345.4976196289063 183.5440216064453 345.5064086914063 C 183.2964935302734 346.4285278320313 182.4566955566406 347.0725708007813 181.5017700195313 347.0725708007813 Z" stroke="none" fill="#fff"/>
    </g>
    <g id="_14" data-name="14" transform="translate(135.093 54.211)" fill="#f6ffa8" stroke-linecap="round" stroke-linejoin="round">
      <path d="M 185.3599395751953 353.7888488769531 C 184.8085479736328 353.7888488769531 184.3344116210938 353.4219360351563 184.1986541748047 352.8936462402344 L 184.1983184814453 352.8924255371094 C 183.8137359619141 351.4680786132813 182.8508911132813 348.7711791992188 181.6817016601563 347.69775390625 C 180.1290283203125 346.275146484375 178.8745727539063 345.4600830078125 176.3310546875 344.9564208984375 C 175.7678375244141 344.84814453125 175.3599548339844 344.3547668457031 175.3599548339844 343.780029296875 C 175.3599548339844 343.2204895019531 175.7590942382813 342.7276611328125 176.3090362548828 342.6081848144531 L 176.3182373046875 342.6061706542969 L 176.3274688720703 342.6043701171875 C 178.8771820068359 342.1005554199219 180.1310577392578 341.28564453125 181.6817626953125 339.8622436523438 C 182.8514862060547 338.7884216308594 183.8140563964844 336.0933837890625 184.1984100341797 334.6702270507813 L 184.19921875 334.6672973632813 C 184.3346710205078 334.1494140625 184.8098602294922 333.7889709472656 185.35986328125 333.7889709472656 C 185.9045562744141 333.7889709472656 186.3813018798828 334.1469421386719 186.5192260742188 334.6595458984375 L 186.5274353027344 334.6900634765625 L 186.529052734375 334.6980895996094 C 186.7393951416016 335.5167541503906 187.7485198974609 338.6784362792969 189.0381164550781 339.8622741699219 C 190.5887756347656 341.28564453125 191.8426055908203 342.1005554199219 194.3922882080078 342.6043701171875 L 194.4014587402344 342.6061706542969 L 194.4105987548828 342.608154296875 C 194.9606323242188 342.7275695800781 195.35986328125 343.2203979492188 195.35986328125 343.780029296875 C 195.35986328125 344.3546752929688 194.9521179199219 344.8479614257813 194.3890228271484 344.9563598632813 C 191.8416442871094 345.460205078125 190.5881805419922 346.2750244140625 189.0380706787109 347.6978149414063 C 187.7736358642578 348.856689453125 186.7810974121094 351.8812255859375 186.5271911621094 352.8694763183594 L 186.5256042480469 352.8767395019531 L 186.5193023681641 352.9001770019531 C 186.3787231445313 353.4234313964844 185.9019622802734 353.7888488769531 185.3599395751953 353.7888488769531 Z" stroke="none"/>
      <path d="M 185.3599395751953 352.7888488769531 C 185.4508666992188 352.7888488769531 185.5301513671875 352.7278442382813 185.5535736083984 352.6406860351563 C 185.5623931884766 352.60009765625 186.6246490478516 348.5532836914063 188.3618621826172 346.9611206054688 C 190.0139465332031 345.4447021484375 191.4342193603516 344.5208740234375 194.1984405517578 343.9747009277344 C 194.2923583984375 343.9573364257813 194.35986328125 343.8758544921875 194.35986328125 343.780029296875 C 194.35986328125 343.6870727539063 194.2923583984375 343.6057739257813 194.1984405517578 343.5853881835938 C 191.4342193603516 343.0391845703125 190.0139465332031 342.1154174804688 188.3618621826172 340.5989379882813 C 186.6275787353516 339.0068969726563 185.5623931884766 334.9629516601563 185.5535736083984 334.9193725585938 C 185.5302124023438 334.8325500488281 185.4449920654297 334.7889404296875 185.35986328125 334.7889404296875 C 185.2740478515625 334.7889404296875 185.1883087158203 334.8332824707031 185.1661834716797 334.9222717285156 C 185.1545104980469 334.9629516601563 184.0922241210938 339.0068969726563 182.3579864501953 340.5989379882813 C 180.7058715820313 342.1154174804688 179.2855682373047 343.0391845703125 176.5213165283203 343.5853881835938 C 176.4274597167969 343.6057739257813 176.3599548339844 343.6870727539063 176.3599548339844 343.780029296875 C 176.3599548339844 343.8758544921875 176.4274597167969 343.9573364257813 176.5213165283203 343.9747009277344 C 179.2826995849609 344.5208740234375 180.7029418945313 345.4447021484375 182.3579864501953 346.9611206054688 C 184.0922241210938 348.5532836914063 185.1545104980469 352.60009765625 185.1661834716797 352.6406860351563 C 185.186767578125 352.7278442382813 185.2689514160156 352.7888488769531 185.3599395751953 352.7888488769531 M 185.3599395751953 354.7888488769531 C 184.3511199951172 354.7888488769531 183.4828796386719 354.1166687011719 183.2315521240234 353.1481323242188 C 182.8449401855469 351.7184753417969 181.9343414306641 349.2872314453125 181.0054016113281 348.4343872070313 C 179.5599670410156 347.1100463867188 178.4618530273438 346.3977966308594 176.1371002197266 345.9374389648438 C 175.1061096191406 345.7367248535156 174.3599548339844 344.8327331542969 174.3599548339844 343.780029296875 C 174.3599548339844 342.7533874511719 175.0903778076172 341.849609375 176.0967559814453 341.6309814453125 C 176.1090240478516 341.6282958984375 176.1213073730469 341.6257629394531 176.1336364746094 341.6233215332031 C 178.4642333984375 341.1628112792969 179.5615539550781 340.4509582519531 181.0055541992188 339.1255493164063 C 181.9360046386719 338.2713623046875 182.847412109375 335.8372192382813 183.2330017089844 334.4094848632813 C 183.2332153320313 334.40869140625 183.2334442138672 334.4078674316406 183.2336578369141 334.4070739746094 C 183.4866638183594 333.45263671875 184.3561401367188 332.7889709472656 185.35986328125 332.7889709472656 C 186.3558959960938 332.7889709472656 187.229736328125 333.4513549804688 187.4848937988281 334.3997802734375 C 187.4884643554688 334.4130554199219 187.4918975830078 334.4263305664063 187.4951782226563 334.4396667480469 C 187.7786865234375 335.5335693359375 188.7267608642578 338.218994140625 189.71435546875 339.1256103515625 C 191.1582641601563 340.4509887695313 192.2555847167969 341.1628112792969 194.5861358642578 341.6233215332031 C 194.5983734130859 341.625732421875 194.6105651855469 341.6282653808594 194.6227416992188 341.6309204101563 C 195.6293029785156 341.8494262695313 196.35986328125 342.7532653808594 196.35986328125 343.780029296875 C 196.35986328125 344.83349609375 195.6126556396484 345.7379760742188 194.5805358886719 345.9378662109375 C 192.2538909912109 346.3983764648438 191.1571807861328 347.1101379394531 189.7142791748047 348.4345397949219 C 188.8157958984375 349.2579956054688 187.8593292236328 351.7178955078125 187.493896484375 353.1255493164063 C 187.4910583496094 353.136962890625 187.4881134033203 353.1483459472656 187.4850616455078 353.15966796875 C 187.2273101806641 354.118896484375 186.3534240722656 354.7888488769531 185.3599395751953 354.7888488769531 Z" stroke="none" fill="#fff"/>
    </g>
  </g>
</svg>
