<svg xmlns="http://www.w3.org/2000/svg" width="318.114" height="287.19" viewBox="0 0 318.114 287.19">
  <defs>
    <style>
      .cls-1 {
        fill: #ff760e;
      }

      .cls-1, .cls-2, .cls-3 {
        stroke-linejoin: round;
      }

      .cls-2 {
        fill: #fff20e;
      }

      .cls-3 {
        fill: #ff7da0;
      }

      .cls-4, .cls-5 {
        stroke: none;
      }

      .cls-5 {
        fill: #fff;
      }
    </style>
  </defs>
  <g id="star1" transform="translate(-100.959 -35.101)">
    <g id="_1" data-name="1" class="cls-1" transform="translate(113.868 64.57)">
      <path class="cls-4" d="M 34.83437347412109 48.08281326293945 C 33.68871307373047 48.08281326293945 31.55553436279297 47.64308166503906 26.28042411804199 43.84087371826172 C 24.36153984069824 42.4577751159668 22.67019653320313 41.09024429321289 21.7823429107666 40.35502624511719 C 19.44424438476563 41.12509536743164 12.68801879882813 43.2375602722168 8.93497371673584 43.2375602722168 C 7.934653759002686 43.2375602722168 7.158683776855469 43.09270095825195 6.562723636627197 42.79472351074219 L 6.115513801574707 42.57111358642578 L 5.891903877258301 42.1239013671875 C 5.363573551177979 41.06724166870117 5.00041389465332 39.0242919921875 6.897613525390625 32.55148315429688 C 7.605396270751953 30.13668632507324 8.391166687011719 27.92384338378906 8.80185604095459 26.80587959289551 C 8.127564430236816 25.84768104553223 6.829663276672363 23.95923042297363 5.545193672180176 21.84607124328613 C 2.067303657531738 16.1243724822998 1.874183654785156 13.99887180328369 2.03148365020752 12.89783191680908 L 2.102193593978882 12.40285205841064 L 2.455743789672852 12.04930210113525 C 3.321533679962158 11.18351173400879 5.379383563995361 10.0324821472168 13.22030353546143 10.0324821472168 C 15.27248382568359 10.0324821472168 17.09114837646484 10.11242389678955 18.10671806335449 10.16794395446777 C 18.80611610412598 9.187381744384766 20.1786994934082 7.296500682830811 21.73911285400391 5.325452327728271 C 25.94440460205078 0.01350209023803473 27.6672534942627 -1.01299786567688 28.59734344482422 -1.323027968406677 L 29.1867733001709 -1.519497871398926 L 29.74250411987305 -1.241637945175171 C 30.80674362182617 -0.7095178961753845 32.31526184082031 0.7190120816230774 34.55270385742188 7.095712184906006 C 35.38584518432617 9.470161437988281 36.03590774536133 11.72961330413818 36.3528938293457 12.87907028198242 C 37.4951286315918 13.2776346206665 39.75999069213867 14.09361839294434 42.1410026550293 15.09615230560303 C 48.46284484863281 17.75798225402832 49.87175369262695 19.29573249816895 50.39290237426758 20.33804130554199 L 50.65384292602539 20.85991287231445 L 50.49355316162109 21.42094230651855 C 50.18601226806641 22.4973316192627 49.15863418579102 24.40511131286621 43.8105354309082 28.52761268615723 C 41.81781768798828 30.06366348266602 39.90608215332031 31.38070106506348 38.92773818969727 32.03961181640625 C 38.90970611572266 33.23569869995117 38.84836196899414 35.60466766357422 38.63982391357422 38.14889144897461 C 38.07890319824219 44.99204254150391 36.96314239501953 46.83434295654297 36.17268371582031 47.62480163574219 L 35.81913375854492 47.97835159301758 L 35.32415390014648 48.0490608215332 C 35.16742324829102 48.07145309448242 35.00264358520508 48.08281326293945 34.83437347412109 48.08281326293945 Z"/>
      <path class="cls-5" d="M 29.07168388366699 0.1000022888183594 C 26.28383445739746 1.029281616210938 18.84957504272461 11.71604156494141 18.84957504272461 11.71604156494141 C 18.84957504272461 11.71604156494141 16.27923965454102 11.53247833251953 13.22030258178711 11.53247833251953 C 9.395900726318359 11.53247833251953 4.807186126708984 11.81917953491211 3.516403198242188 13.10996246337891 C 3.051765441894531 16.36245155334473 10.48602294921875 26.58456230163574 10.48602294921875 26.58456230163574 C 10.48602294921875 26.58456230163574 5.839614868164063 38.66522979736328 7.233543395996094 41.45308303833008 C 7.631710052490234 41.65216827392578 8.219959259033203 41.73755645751953 8.934970855712891 41.73755645751953 C 13.22626876831055 41.73755645751953 22.10206413269043 38.66522979736328 22.10206413269043 38.66522979736328 C 22.10206413269043 38.66522979736328 31.33914566040039 46.58280944824219 34.83437347412109 46.58280944824219 C 34.93151092529297 46.58280944824219 35.02408218383789 46.57670593261719 35.11202239990234 46.56414031982422 C 37.43523406982422 44.24094390869141 37.43523406982422 31.23097229003906 37.43523406982422 31.23097229003906 C 37.43523406982422 31.23097229003906 48.12198257446289 24.2613525390625 49.05126190185547 21.00886154174805 C 47.65733337402344 18.22101211547852 35.11202239990234 14.03924179077148 35.11202239990234 14.03924179077148 C 35.11202239990234 14.03924179077148 31.85954284667969 1.493923187255859 29.07168388366699 0.1000022888183594 M 29.07162284851074 -2.900005340576172 C 29.53313064575195 -2.900005340576172 29.99277496337891 -2.793556213378906 30.4133129119873 -2.583286285400391 C 31.81236457824707 -1.883766174316406 33.56639099121094 -0.24578857421875 35.96810150146484 6.599082946777344 C 36.65835952758789 8.566307067871094 37.22550201416016 10.45742797851563 37.58671951293945 11.72432708740234 C 38.84888458251953 12.17588043212891 40.74734878540039 12.88180923461914 42.72309494018555 13.71370315551758 C 49.4588737487793 16.5498218536377 51.05832290649414 18.31477165222168 51.73454284667969 19.66722297668457 C 52.07021331787109 20.33855247497559 52.14203262329102 21.1113224029541 51.93583297729492 21.83302116394043 C 51.53916549682617 23.22139167785645 50.36122512817383 25.37204170227051 44.72629547119141 29.71563148498535 C 43.07970428466797 30.9848804473877 41.48596572875977 32.10802459716797 40.41229248046875 32.84413528442383 C 40.38114929199219 34.1683235168457 40.30774688720703 36.16152191162109 40.13480377197266 38.27143096923828 C 39.95590209960938 40.45404052734375 39.70542144775391 42.31693267822266 39.39034271240234 43.80835342407227 C 38.88644409179688 46.19345092773438 38.2212028503418 47.69761276245117 37.23334503173828 48.68546295166016 C 36.77432250976563 49.14448165893555 36.17881393432617 49.44222259521484 35.53619384765625 49.53400039672852 C 35.30943298339844 49.56639099121094 35.07331085205078 49.58281326293945 34.83437347412109 49.58281326293945 C 33.36638641357422 49.58281326293945 30.96778297424316 49.0684814453125 25.40334320068359 45.05772399902344 C 23.84622383117676 43.93537902832031 22.43482780456543 42.82188415527344 21.46751594543457 42.03640747070313 C 18.55144882202148 42.97212219238281 12.56803894042969 44.73756408691406 8.934974670410156 44.73756408691406 C 7.696414947509766 44.73756408691406 6.701023101806641 44.54091262817383 5.891933441162109 44.13638305664063 C 5.311332702636719 43.84609222412109 4.840564727783203 43.37531280517578 4.550262451171875 42.79472351074219 C 3.858783721923828 41.41178131103516 3.425914764404297 39.06318283081055 5.458171844482422 32.12957000732422 C 6.044395446777344 30.1295051574707 6.683712005615234 28.26433944702148 7.126815795898438 27.02574348449707 C 6.393726348876953 25.96440887451172 5.323558807373047 24.36931419372559 4.263404846191406 22.62519264221191 C 3.152534484863281 20.79763221740723 2.279884338378906 19.17751121520996 1.669692993164063 17.80984115600586 C 0.7109947204589844 15.66103172302246 0.3541145324707031 14.03280258178711 0.5465545654296875 12.68570327758789 C 0.6383552551269531 12.04311370849609 0.9360923767089844 11.4476318359375 1.395084381103516 10.98864364624023 C 2.501594543457031 9.882133483886719 4.239543914794922 9.226360321044922 7.030242919921875 8.862373352050781 C 8.708553314208984 8.643470764160156 10.79119491577148 8.532482147216797 13.22030258178711 8.532482147216797 C 14.83055114746094 8.532482147216797 16.30160903930664 8.581020355224609 17.36530303955078 8.62921142578125 C 18.13521575927734 7.564884185791016 19.28754425048828 6.00555419921875 20.56304359436035 4.394393920898438 C 24.94183349609375 -1.13671875 26.84188461303711 -2.319007873535156 28.12300300598145 -2.746047973632813 C 28.4317684173584 -2.848972320556641 28.75216102600098 -2.900005340576172 29.07162284851074 -2.900005340576172 Z"/>
    </g>
    <g id="_2" data-name="2" class="cls-2" transform="translate(208.09 51.538) rotate(80)">
      <path class="cls-4" d="M 18.58064270019531 36.60604095458984 L 18.05936431884766 36.43227386474609 C 17.13719367980957 36.12487411499023 15.59122371673584 35.1746826171875 12.82440376281738 30.49238204956055 C 11.8873929977417 28.90668678283691 11.09915542602539 27.38398551940918 10.65897655487061 26.50560569763184 C 9.687387466430664 26.40080642700195 7.999041080474854 26.19565773010254 6.19951343536377 25.87174224853516 C 0.8737835288047791 24.9131031036377 -0.5577864646911621 23.78268241882324 -1.17129647731781 23.01579284667969 L -1.499996423721313 22.60492324829102 L -1.499996423721313 22.0787525177002 C -1.499996423721313 21.05939292907715 -1.040146470069885 19.3753719329834 2.545783519744873 15.36757278442383 C 3.77398157119751 13.99487495422363 4.988960742950439 12.77659511566162 5.691228866577148 12.08985614776611 C 5.498193740844727 11.12184047698975 5.178152084350586 9.416424751281738 4.92530345916748 7.574262619018555 C 4.193133354187012 2.239862680435181 4.67629337310791 0.5940426588058472 5.179013729095459 -0.2438273131847382 L 5.438993453979492 -0.6771172881126404 L 5.908163547515869 -0.8647873401641846 C 6.264873504638672 -1.007477283477783 6.667313575744629 -1.076837301254272 7.138473510742188 -1.076837301254272 C 8.581733703613281 -1.076837301254272 10.86092376708984 -0.3838273286819458 14.10629367828369 1.041782736778259 C 15.5590181350708 1.679927349090576 16.85268402099609 2.311845541000366 17.62409973144531 2.698906421661377 C 18.37621688842773 2.268812894821167 19.64080238342285 1.566919207572937 21.0757942199707 0.8585126996040344 C 24.29057312011719 -0.7285172939300537 26.61465263366699 -1.49999725818634 28.18086433410645 -1.49999725818634 C 28.61212348937988 -1.49999725818634 29.00630378723145 -1.441487312316895 29.35246276855469 -1.326097369194031 L 29.87887382507324 -1.150627374649048 L 30.16435432434082 -0.6748173236846924 C 30.6593132019043 0.1501226872205734 31.16072273254395 1.77771270275116 30.64033317565918 7.085652828216553 C 30.46136093139648 8.911195755004883 30.21556091308594 10.60242366790771 30.06348419189453 11.57376098632813 C 30.80977439880371 12.22185707092285 32.09143447875977 13.36512851715088 33.38690185546875 14.66060256958008 C 37.21453475952148 18.48824310302734 37.70538330078125 20.17492294311523 37.70538330078125 21.21673202514648 L 37.70538330078125 21.6322135925293 L 37.49162292480469 21.98848342895508 C 36.96142196655273 22.87214279174805 35.68142318725586 24.03717231750488 30.44583320617676 25.21249198913574 C 28.66754150390625 25.61170196533203 26.97883987426758 25.88935089111328 26.0155143737793 26.03467750549316 C 25.58673858642578 26.94101524353027 24.80430221557617 28.55218505859375 23.89243316650391 30.23003196716309 C 21.29092407226563 35.01681137084961 20.00531387329102 36.03615188598633 19.09081268310547 36.40196228027344 L 18.58064270019531 36.60604095458984 Z"/>
      <path class="cls-5" d="M 28.18087005615234 -3.814697265625e-06 C 25.01691818237305 -3.814697265625e-06 17.67168426513672 4.407083511352539 17.67168426513672 4.407083511352539 C 17.67168426513672 4.407083511352539 10.06632423400879 0.4235115051269531 7.138469696044922 0.4231605529785156 C 6.872159957885742 0.4231300354003906 6.644931793212891 0.4560508728027344 6.465253829956055 0.527923583984375 C 5.172203063964844 2.682992935180664 7.32728385925293 12.59636306762695 7.32728385925293 12.59636306762695 C 7.32728385925293 12.59636306762695 3.814697265625e-06 19.49263381958008 3.814697265625e-06 22.0787525177002 C 1.724063873291016 24.23383331298828 11.63744354248047 25.09587287902832 11.63744354248047 25.09587287902832 C 11.63744354248047 25.09587287902832 15.94761276245117 34.14719390869141 18.53371429443359 35.00925445556641 C 20.68879318237305 34.14719390869141 24.99896240234375 24.66482162475586 24.99896240234375 24.66482162475586 C 24.99896240234375 24.66482162475586 34.91233444213867 23.37178230285645 36.20538330078125 21.21673202514648 C 36.20538330078125 18.63062286376953 28.44709396362305 12.16536331176758 28.44709396362305 12.16536331176758 C 28.44709396362305 12.16536331176758 30.1711540222168 2.252002716064453 28.87811279296875 0.09691238403320313 C 28.67923164367676 0.03061676025390625 28.4444637298584 -3.814697265625e-06 28.18087005615234 -3.814697265625e-06 M 28.18087387084961 -3.000007629394531 C 28.77360343933105 -3.000007629394531 29.32736396789551 -2.915607452392578 29.82675361633301 -2.7491455078125 C 30.50616455078125 -2.522697448730469 31.08214378356934 -2.060657501220703 31.45060348510742 -1.446556091308594 C 32.10236358642578 -0.3602790832519531 32.69315338134766 1.520301818847656 32.13318252563477 7.232011795043945 C 31.99405288696289 8.651098251342773 31.81514358520508 9.991666793823242 31.66913223266602 10.98828506469727 C 32.42888259887695 11.66403388977051 33.43460083007813 12.58697319030762 34.44756317138672 13.59994316101074 C 35.67372512817383 14.82611274719238 36.66476440429688 15.94026184082031 37.39315414428711 16.91144180297852 C 38.62953186035156 18.55996322631836 39.20538330078125 19.92799377441406 39.20538330078125 21.21673202514648 C 39.20538330078125 21.76047134399414 39.05760192871094 22.29398345947266 38.77785491943359 22.76023292541504 C 38.11059188842773 23.87232208251953 36.90346527099609 24.73252296447754 34.97896194458008 25.46732330322266 C 33.86179351806641 25.89387130737305 32.44717407226563 26.30055236816406 30.77439308166504 26.67607307434082 C 29.37331390380859 26.9905948638916 28.02536392211914 27.23162460327148 27.02775382995605 27.39401626586914 C 26.57211685180664 28.33547973632813 25.9306640625 29.6209545135498 25.21036338806152 30.94630241394043 C 22.38866424560547 36.13824462890625 20.86939239501953 37.30606079101563 19.64791297912598 37.79467391967773 C 19.29083251953125 37.93750762939453 18.91245460510254 38.00925445556641 18.53369522094727 38.00925445556641 C 18.21362686157227 38.00925445556641 17.89332008361816 37.95806884765625 17.58500289916992 37.85529327392578 C 16.39972305297852 37.46018218994141 15.26469421386719 36.5397834777832 14.01302337646484 34.95871353149414 C 13.24966430664063 33.99446105957031 12.41526412963867 32.7485237121582 11.53301429748535 31.2554817199707 C 10.79844856262207 30.01237678527832 10.15264129638672 28.8059253692627 9.687692642211914 27.90439796447754 C 8.687192916870117 27.78437232971191 7.343038558959961 27.6016788482666 5.933784484863281 27.34801292419434 C 4.233842849731445 27.04203224182129 2.779712677001953 26.6928825378418 1.611763000488281 26.31028366088867 C -0.3005561828613281 25.68382263183594 -1.557086944580078 24.93473243713379 -2.342605590820313 23.95283126831055 C -2.768157958984375 23.4208927154541 -2.999996185302734 22.75996398925781 -2.999996185302734 22.0787525177002 C -2.999996185302734 20.71271133422852 -2.473926544189453 18.728271484375 1.427913665771484 14.36738204956055 C 2.391365051269531 13.29058265686035 3.347831726074219 12.30576324462891 4.065902709960938 11.58782768249512 C 3.876335144042969 10.58502960205078 3.637439727783203 9.222232818603516 3.439243316650391 7.778232574462891 C 3.204002380371094 6.064403533935547 3.074672698974609 4.581912994384766 3.054843902587891 3.371963500976563 C 3.021835327148438 1.358444213867188 3.280261993408203 0.005283355712890625 3.892784118652344 -1.015567779541016 C 4.230113983154297 -1.577785491943359 4.742343902587891 -2.014019012451172 5.351102828979492 -2.257518768310547 C 5.888294219970703 -2.472389221191406 6.472833633422852 -2.576835632324219 7.138113021850586 -2.576835632324219 C 8.194683074951172 -2.576705932617188 10.12822341918945 -2.343807220458984 14.70952415466309 -0.3314476013183594 C 15.80293464660645 0.1488418579101563 16.80933380126953 0.6263389587402344 17.57876777648926 1.002700805664063 C 18.33430862426758 0.5826034545898438 19.32620048522949 0.04940414428710938 20.41179275512695 -0.4865188598632813 C 24.97544479370117 -2.739456176757813 27.03140258789063 -3.000007629394531 28.18087387084961 -3.000007629394531 Z"/>
    </g>
    <g id="_3" data-name="3" class="cls-3" transform="matrix(0.719, -0.695, 0.695, 0.719, 291.993, 65.016)">
      <path class="cls-4" d="M 22.05113983154297 38.61977386474609 L 21.59698104858398 38.61977386474609 C 20.60489082336426 38.61977386474609 19.50963020324707 38.11322402954102 18.1501407623291 37.025634765625 C 17.25044059753418 36.30587387084961 16.2215404510498 35.31614685058594 15.09202098846436 34.08393478393555 C 13.84891986846924 32.72782135009766 12.76411819458008 31.38625144958496 12.15142250061035 30.60577392578125 C 10.876540184021 30.73884963989258 8.372296333312988 30.9616641998291 5.897090911865234 30.9616641998291 C 2.16062068939209 30.9616641998291 0.01477071922272444 30.48208427429199 -1.060649275779724 29.40667533874512 L -1.499999284744263 28.96732521057129 L -1.499999284744263 28.34600448608398 C -1.499999284744263 27.52920532226563 -1.157089233398438 26.07269477844238 1.386270761489868 21.4628849029541 C 2.29941725730896 19.80781745910645 3.201923370361328 18.28439331054688 3.708525896072388 17.44229316711426 C 3.327835321426392 16.57636260986328 2.674150228500366 15.04015350341797 2.05060076713562 13.33957481384277 C 0.2447407245635986 8.414495468139648 0.3404407203197479 6.626675128936768 0.569530725479126 5.710344791412354 L 0.7101806998252869 5.147745132446289 L 1.192700743675232 4.826065063476563 C 1.83729076385498 4.396345138549805 2.750200748443604 4.196195125579834 4.065670490264893 4.196195125579834 C 7.113617897033691 4.196195125579834 11.88906669616699 5.304462432861328 13.76951026916504 5.772415161132813 C 14.49840259552002 5.126936912536621 15.80749130249023 3.98747181892395 17.27997016906738 2.798155069351196 C 21.44292068481445 -0.5642349720001221 23.07061004638672 -1.239665031433105 23.93280029296875 -1.455204963684082 L 24.75672149658203 -1.661185026168823 L 25.35726165771484 -1.060654997825623 C 26.05013084411621 -0.3677849769592285 27.06638145446777 1.181065082550049 27.88873100280762 6.608715057373047 C 28.174072265625 8.492030143737793 28.34490776062012 10.2436580657959 28.4288158416748 11.2280216217041 C 29.27670097351074 11.70760726928711 30.76155853271484 12.57455348968506 32.29949188232422 13.59983539581299 C 36.81537246704102 16.61040496826172 37.65864181518555 18.24261474609375 37.90010070800781 19.20844459533691 L 38.03467178344727 19.74676513671875 L 37.78652191162109 20.24306488037109 C 37.32403182983398 21.16804504394531 36.13536071777344 22.66555595397949 31.17380142211914 24.9809455871582 C 29.47404098510742 25.77416801452637 27.86483383178711 26.41310691833496 26.94376182556152 26.76420211791992 C 26.73123931884766 27.7413444519043 26.3361873626709 29.46530151367188 25.824951171875 31.28302574157715 C 24.34584999084473 36.54201507568359 23.2331600189209 37.83176422119141 22.42903137207031 38.36785507202148 L 22.05113983154297 38.61977386474609 Z"/>
      <path class="cls-5" d="M 24.29660034179688 -3.814697265625e-06 C 21.59698104858398 0.6749038696289063 14.17306137084961 7.423955917358398 14.17306137084961 7.423955917358398 C 14.17306137084961 7.423955917358398 7.694007873535156 5.696197509765625 4.065670013427734 5.696197509765625 C 3.158515930175781 5.696197509765625 2.429714202880859 5.804166793823242 2.024742126464844 6.07414436340332 C 1.349842071533203 8.773765563964844 5.399271011352539 17.54753494262695 5.399271011352539 17.54753494262695 C 5.399271011352539 17.54753494262695 0 26.3212947845459 0 28.34600448608398 C 0.8676567077636719 29.21364974975586 3.3472900390625 29.4616641998291 5.897098541259766 29.4616641998291 C 9.297449111938477 29.4616641998291 12.82322120666504 29.02091598510742 12.82322120666504 29.02091598510742 C 12.82322120666504 29.02091598510742 18.89737129211426 37.11976623535156 21.59698104858398 37.11976623535156 C 23.62170028686523 35.76996612548828 25.64641952514648 25.64638519287109 25.64641952514648 25.64638519287109 C 25.64641952514648 25.64638519287109 35.09506988525391 22.27186584472656 36.44488143920898 19.57224464416504 C 35.76998901367188 16.87262535095215 26.99617004394531 12.14829444885254 26.99617004394531 12.14829444885254 C 26.99617004394531 12.14829444885254 26.32131958007813 2.024715423583984 24.29660034179688 -3.814697265625e-06 M 24.29648590087891 -3.000068664550781 C 25.08241081237793 -3.000068664550781 25.8483772277832 -2.690868377685547 26.41792106628418 -2.121326446533203 C 27.3316707611084 -1.207576751708984 28.4931812286377 0.5849342346191406 29.37180137634277 6.384014129638672 C 29.59767723083496 7.87483024597168 29.75344085693359 9.286476135253906 29.85208892822266 10.31543731689453 C 30.73012542724609 10.82600975036621 31.91526412963867 11.54091835021973 33.13153076171875 12.35175514221191 C 37.00117111206055 14.93149566650391 38.86248016357422 16.87329483032227 39.35531234741211 18.84465408325195 C 39.52899169921875 19.53940582275391 39.44842147827148 20.27336502075195 39.1281623840332 20.91388511657715 C 38.51774978637695 22.13471603393555 37.13409042358398 23.85477447509766 31.80813026428223 26.34022521972656 C 30.47039031982422 26.96450424194336 29.18596839904785 27.49600982666016 28.23361968994141 27.87229347229004 C 28.00321960449219 28.88414192199707 27.67120361328125 30.25880432128906 27.2689208984375 31.68913459777832 C 26.79553985595703 33.37227630615234 26.31919097900391 34.79286575317383 25.85311126708984 35.91145324707031 C 25.06452178955078 37.80407333374023 24.26510047912598 38.94657516479492 23.26107025146484 39.61592483520508 C 22.76827049255371 39.94445419311523 22.18925094604492 40.11976623535156 21.59698104858398 40.11976623535156 C 19.48929977416992 40.11976623535156 17.21320152282715 38.6177864074707 13.98628997802734 35.09751510620117 C 13.01015281677246 34.03264236450195 12.12835311889648 32.97545623779297 11.48587417602539 32.17820358276367 C 10.07546424865723 32.3086051940918 7.976993560791016 32.46166610717773 5.897100448608398 32.46166610717773 C 1.674652099609375 32.46166610717773 -0.7233810424804688 31.865234375 -2.121299743652344 30.46734619140625 C -2.683917999267578 29.90473556518555 -3 29.14166450500488 -3 28.34600448608398 C -3 27.35991477966309 -2.762538909912109 25.87748527526855 0.07291030883789063 20.7382640838623 C 0.7914047241210938 19.43599891662598 1.503738403320313 18.21366500854492 2.026554107666016 17.33293151855469 C 1.640426635742188 16.42902565002441 1.131931304931641 15.19135093688965 0.6422920227050781 13.85596466064453 C -1.284111022949219 8.602144241333008 -1.186199188232422 6.548614501953125 -0.8856887817382813 5.34654426574707 C -0.7046890258789063 4.622524261474609 -0.2603187561035156 3.991966247558594 0.3606414794921875 3.577995300292969 C 1.263042449951172 2.976394653320313 2.440341949462891 2.696193695068359 4.065670013427734 2.696193695068359 C 6.940603256225586 2.696193695068359 11.09305381774902 3.584484100341797 13.36762046813965 4.128810882568359 C 14.12996673583984 3.463871002197266 15.18484687805176 2.562202453613281 16.33746147155762 1.631244659423828 C 20.68223190307617 -1.878005981445313 22.48437118530273 -2.639274597167969 23.56899070739746 -2.910434722900391 C 23.80990600585938 -2.970664978027344 24.05417633056641 -3.000068664550781 24.29648590087891 -3.000068664550781 Z"/>
    </g>
    <g id="_4" data-name="4" class="cls-2" transform="translate(282.273 58.387)">
      <path class="cls-4" d="M 105.3396606445313 55.27885437011719 L 104.8177795410156 55.01791381835938 C 103.7422866821289 54.48015213012695 101.9226455688477 52.94061279296875 98.55204772949219 45.81048202514648 C 97.25515747070313 43.06705474853516 96.1871337890625 40.4642448425293 95.68505096435547 39.20698547363281 C 94.33106994628906 38.9407958984375 91.50579071044922 38.34712982177734 88.53599548339844 37.49142456054688 C 86.12589263916016 36.79698181152344 84.12216186523438 36.07207107543945 82.58049011230469 35.3368034362793 C 80.37673187255859 34.28578186035156 79.04895782470703 33.17636108398438 78.52131652832031 31.94514274597168 L 78.40003967285156 31.66216278076172 L 78.40003967285156 31.35428237915039 C 78.40003967285156 30.05163383483887 79.07033538818359 27.69521331787109 84.86624908447266 22.29445266723633 C 87.07042694091797 20.24056243896484 89.24705505371094 18.46175003051758 90.30378723144531 17.61844635009766 C 90.17568969726563 16.26357841491699 89.93410491943359 13.42748165130615 89.83399963378906 10.37449264526367 C 89.75305938720703 7.905882835388184 89.78321075439453 5.811882972717285 89.92359161376953 4.150642871856689 C 90.12390899658203 1.780212998390198 90.54563903808594 0.2656429708003998 91.25078582763672 -0.6157770156860352 L 91.62188720703125 -1.079637050628662 L 92.2099609375 -1.163647055625916 C 92.40103149414063 -1.19094705581665 92.60540008544922 -1.204787015914917 92.8173828125 -1.204787015914917 C 94.84880065917969 -1.204787015914917 98.20939636230469 0.1073529645800591 103.0912322998047 2.806612968444824 C 105.6072082519531 4.197754383087158 107.8227081298828 5.572134017944336 108.8947448730469 6.251393795013428 C 111.4435806274414 5.176129341125488 119.8019485473633 1.805673003196716 124.4223556518555 1.805673003196716 C 125.3672561645508 1.805673003196716 126.1345672607422 1.937672972679138 126.7681274414063 2.209203004837036 L 127.2731628417969 2.425642967224121 L 127.5188827514648 2.91709303855896 C 128.0533294677734 3.985992908477783 128.5992736816406 6.304722785949707 127.1762619018555 14.0666332244873 C 126.6226272583008 17.08645057678223 125.9676895141602 19.85151100158691 125.6470413208008 21.15277099609375 C 126.5085830688477 22.13656234741211 128.2882843017578 24.2104606628418 130.0902862548828 26.56304359436035 C 134.7594451904297 32.65887451171875 135.2994384765625 35.01344299316406 135.2994384765625 36.25423431396484 L 135.2994384765625 36.78040313720703 L 134.9707489013672 37.19126129150391 C 134.2442321777344 38.09942245483398 132.8307189941406 38.79118347167969 130.5223236083984 39.36828231811523 C 128.9246520996094 39.76770401000977 126.8801574707031 40.11424255371094 124.4455871582031 40.39827346801758 C 121.4554824829102 40.74712371826172 118.6442108154297 40.9149169921875 117.2825698852539 40.9822883605957 C 116.6254425048828 42.15232467651367 115.2523727416992 44.53423690795898 113.6140594482422 47.01651382446289 C 109.3138580322266 53.53194427490234 107.1524200439453 54.76092147827148 105.9006881713867 55.11856460571289 L 105.3396606445313 55.27885437011719 Z"/>
      <path class="cls-5" d="M 92.8173828125 0.2952117919921875 C 92.67688751220703 0.2952117919921875 92.54513549804688 0.3036956787109375 92.42208862304688 0.3212738037109375 C 90.24430084228516 3.043464660644531 91.87764739990234 18.28775405883789 91.87764739990234 18.28775405883789 C 91.87764739990234 18.28775405883789 79.90003967285156 27.543212890625 79.90003967285156 31.35428237915039 C 81.53330993652344 35.16535186767578 96.77762603759766 37.88754272460938 96.77762603759766 37.88754272460938 C 96.77762603759766 37.88754272460938 102.222038269043 52.04295349121094 105.4886093139648 53.67627334594727 C 109.2996597290039 52.58739471435547 116.3773956298828 39.5208740234375 116.3773956298828 39.5208740234375 C 116.3773956298828 39.5208740234375 131.6217041015625 38.97643280029297 133.7994384765625 36.25423431396484 C 133.7994384765625 32.44317245483398 123.9994888305664 21.55439376831055 123.9994888305664 21.55439376831055 C 123.9994888305664 21.55439376831055 127.8105392456055 6.854541778564453 126.1772384643555 3.587913513183594 C 125.7199325561523 3.391921997070313 125.1214294433594 3.305683135986328 124.42236328125 3.305675506591797 C 119.2956085205078 3.305618286132813 108.7552261352539 7.943412780761719 108.7552261352539 7.943412780761719 C 108.7552261352539 7.943412780761719 97.0283203125 0.2952117919921875 92.8173828125 0.2952117919921875 M 92.8173828125 -2.704788208007813 C 94.27951812744141 -2.704788208007813 97.01055145263672 -2.269538879394531 103.8170471191406 1.493911743164063 C 105.9243240356445 2.659069061279297 107.8252487182617 3.813678741455078 109.0360412597656 4.568687438964844 C 110.152946472168 4.109611511230469 111.8038864135742 3.455207824707031 113.6651382446289 2.796451568603516 C 118.3348617553711 1.143692016601563 121.9540786743164 0.3056716918945313 124.4222793579102 0.3056716918945313 C 125.5744857788086 0.305694580078125 126.5350723266602 0.4773521423339844 127.359016418457 0.8304824829101563 C 128.0111999511719 1.110004425048828 128.5431976318359 1.61163330078125 128.8605346679688 2.246284484863281 C 129.5021057128906 3.529453277587891 129.7051391601563 5.298133850097656 129.518798828125 7.981121063232422 C 129.3981781005859 9.718112945556641 129.1064453125 11.85658264160156 128.6516723632813 14.33712387084961 C 128.1829986572266 16.8935432434082 127.6421890258789 19.27150344848633 127.2873992919922 20.75379180908203 C 128.2547454833984 21.87525749206543 129.7606506347656 23.66592597961426 131.2810974121094 25.65093231201172 C 136.1722106933594 32.03651428222656 136.7994384765625 34.67179107666016 136.7994384765625 36.25423431396484 C 136.7994384765625 36.93544387817383 136.5675964355469 37.59637451171875 136.1420593261719 38.12830352783203 C 135.1868286132813 39.32234191894531 133.5658569335938 40.153564453125 130.8861083984375 40.82350158691406 C 129.2261657714844 41.23849487304688 127.1177520751953 41.59669494628906 124.6194076538086 41.88816070556641 C 122.1052017211914 42.18149185180664 119.7141647338867 42.34869384765625 118.1820831298828 42.43627548217773 C 117.4323959350586 43.74497222900391 116.240592956543 45.76002502441406 114.865966796875 47.8427734375 C 110.3426284790039 54.69629287719727 107.9189376831055 56.10193252563477 106.3127822875977 56.56084442138672 C 106.0425796508789 56.63804244995117 105.7651824951172 56.67627716064453 105.4886703491211 56.67627716064453 C 105.026611328125 56.67627716064453 104.5669479370117 56.56954956054688 104.1469497680664 56.35954284667969 C 102.8467559814453 55.70944213867188 101.6304397583008 54.39774322509766 100.2030868530273 52.10646438598633 C 99.28422546386719 50.63143157958984 98.27247619628906 48.72885131835938 97.19593811035156 46.45155334472656 C 96.10470581054688 44.14317321777344 95.17278289794922 41.93146896362305 94.59645843505859 40.51742935180664 C 93.06101226806641 40.20018005371094 90.64096832275391 39.65896224975586 88.12069702148438 38.93278503417969 C 85.63174438476563 38.21563339233398 83.55050659179688 37.4612922668457 81.93478393554688 36.69071197509766 C 79.35226440429688 35.45904541015625 77.82951354980469 34.13886260986328 77.14259338378906 32.5360107421875 C 76.98255920410156 32.16259384155273 76.90003967285156 31.76055335998535 76.90003967285156 31.35428237915039 C 76.90003967285156 29.7425537109375 77.70361328125 27.98741340637207 79.42892456054688 25.83076286315918 C 80.5133056640625 24.47529220581055 81.99862670898438 22.91628265380859 83.84365844726563 21.19704437255859 C 85.70566558837891 19.46198654174805 87.54988098144531 17.91882705688477 88.73726654052734 16.95425415039063 C 88.60306549072266 15.42159271240234 88.41921997070313 12.99813079833984 88.33480834960938 10.42364120483398 C 88.06292724609375 2.131633758544922 89.06420135498047 -0.2837257385253906 90.07949829101563 -1.552837371826172 C 90.55626678466797 -2.148788452148438 91.24225616455078 -2.540626525878906 91.99778747558594 -2.648567199707031 C 92.25888824462891 -2.685878753662109 92.53463745117188 -2.704788208007813 92.8173828125 -2.704788208007813 Z"/>
    </g>
    <g id="_5" data-name="5" class="cls-3" transform="matrix(0.995, 0.105, -0.105, 0.995, 156.958, 129.408)">
      <path class="cls-4" d="M 10.98023223876953 22.24925994873047 L 10.45896244049072 22.07549858093262 C 9.724482536315918 21.83066940307617 8.743402481079102 21.19075012207031 7.035732269287109 18.30084991455078 C 6.569587707519531 17.51199722290039 6.164597034454346 16.74861907958984 5.889216423034668 16.21023559570313 C 5.292271614074707 16.14071273803711 4.442789077758789 16.02854919433594 3.548222303390503 15.86752891540527 C 0.2401823550462723 15.2720890045166 -0.711647629737854 14.53619956970215 -1.171307682991028 13.96162891387939 L -1.499997615814209 13.55075931549072 L -1.499997615814209 13.02458953857422 C -1.499997615814209 12.26969909667969 -1.197827696800232 11.16027927398682 1.043372392654419 8.655399322509766 C 1.654694557189941 7.972156524658203 2.260940790176392 7.352384090423584 2.690266609191895 6.925887107849121 C 2.575565338134766 6.328596591949463 2.421879053115845 5.468214511871338 2.296102285385132 4.551819324493408 C 1.840752363204956 1.234239220619202 2.157652378082275 0.1564392298460007 2.527712345123291 -0.460320770740509 L 2.787692308425903 -0.8936107754707336 L 3.25686240196228 -1.081280708312988 C 3.541302442550659 -1.195060729980469 3.853432416915894 -1.250370740890503 4.211092472076416 -1.250370740890503 C 4.8096923828125 -1.250370740890503 5.912712574005127 -1.11543071269989 8.568912506103516 0.05137923359870911 C 9.272260665893555 0.3603440821170807 9.913864135742188 0.6671733856201172 10.37803554534912 0.895920991897583 C 10.83277130126953 0.6410097479820251 11.46356582641602 0.2989920377731323 12.16063213348389 -0.04513076692819595 C 14.14370250701904 -1.024110794067383 15.60378265380859 -1.500000715255737 16.62432289123535 -1.500000715255737 C 16.94496154785156 -1.500000715255737 17.24293327331543 -1.454870820045471 17.50997161865234 -1.365850806236267 L 18.03639221191406 -1.190380811691284 L 18.32187271118164 -0.7145707607269287 C 18.68369293212891 -0.1115307658910751 19.01006317138672 0.9486892223358154 18.68739318847656 4.239959239959717 C 18.59885215759277 5.143049716949463 18.48288345336914 5.991652011871338 18.39390754699707 6.587123394012451 C 18.84880065917969 6.988931655883789 19.48700141906738 7.570143222808838 20.13040161132813 8.213549613952637 C 22.53403282165527 10.61718940734863 22.85810279846191 11.73733901977539 22.85810279846191 12.51606941223145 L 22.85810279846191 12.93154907226563 L 22.64433288574219 13.28781890869141 C 22.24509239196777 13.95321941375732 21.39240264892578 14.73323917388916 18.09519195556641 15.47341918945313 C 17.20750999450684 15.67269611358643 16.35643577575684 15.82156658172607 15.7622652053833 15.91623306274414 C 15.49294567108154 16.47637748718262 15.09092617034912 17.28793334960938 14.63497257232666 18.12689018249512 C 13.0112419128418 21.11454963684082 12.16404247283936 21.7757396697998 11.49040222167969 22.04518890380859 L 10.98023223876953 22.24925994873047 Z"/>
      <path class="cls-5" d="M 16.62431907653809 -3.814697265625e-06 C 14.75785636901855 -3.814697265625e-06 10.42479228973389 2.599809646606445 10.42479228973389 2.599809646606445 C 10.42479228973389 2.599809646606445 5.938273429870605 0.2498359680175781 4.211090087890625 0.2496280670166016 C 4.053991317749023 0.2496089935302734 3.919946670532227 0.2690315246582031 3.81395149230957 0.3114299774169922 C 3.051162719726563 1.582738876342773 4.322471618652344 7.430788993835449 4.322471618652344 7.430788993835449 C 4.322471618652344 7.430788993835449 1.9073486328125e-06 11.49899959564209 1.9073486328125e-06 13.02458953857422 C 1.017051696777344 14.2959098815918 6.865102767944336 14.80442905426025 6.865102767944336 14.80442905426025 C 6.865102767944336 14.80442905426025 9.407742500305176 20.14394950866699 10.93331241607666 20.65247917175293 C 12.20463275909424 20.14394950866699 14.74726295471191 14.55014991760254 14.74726295471191 14.55014991760254 C 14.74726295471191 14.55014991760254 20.59531211853027 13.78736877441406 21.35810279846191 12.51606941223145 C 21.35810279846191 10.99047946929932 16.7813720703125 7.176528930664063 16.7813720703125 7.176528930664063 C 16.7813720703125 7.176528930664063 17.79842185974121 1.328498840332031 17.0356330871582 0.05716896057128906 C 16.91830825805664 0.01806068420410156 16.77981567382813 -3.814697265625e-06 16.62431907653809 -3.814697265625e-06 M 16.62432289123535 -3 C 17.10651206970215 -3 17.56411170959473 -2.928960800170898 17.9843921661377 -2.788860321044922 C 18.66374206542969 -2.562379837036133 19.23968315124512 -2.100370407104492 19.60812187194824 -1.486310958862305 C 20.30891227722168 -0.3183002471923828 20.47466278076172 1.383110046386719 20.18023300170898 4.386309623718262 C 20.12361907958984 4.963780403137207 20.05606269836426 5.520182609558105 19.99094390869141 6.006583213806152 C 20.35931015014648 6.344184875488281 20.77438354492188 6.736207008361816 21.19106292724609 7.152889251708984 C 23.4405517578125 9.402379035949707 24.35810279846191 10.95619964599609 24.35810279846191 12.51606941223145 C 24.35810279846191 13.0598087310791 24.21032333374023 13.59331893920898 23.93057250976563 14.05956935882568 C 23.12225151062012 15.4067497253418 21.52682304382324 16.24039840698242 18.42374229431152 16.9370002746582 C 17.83862113952637 17.06834983825684 17.26819229125977 17.17874336242676 16.77107429504395 17.26712036132813 C 16.53580474853516 17.73978996276855 16.25578117370605 18.28585243225098 15.95290184020996 18.84314918518066 C 14.41772270202637 21.66790008544922 13.35924243927002 22.91319847106934 12.04749202728271 23.43790817260742 C 11.69041728973389 23.58073997497559 11.31204986572266 23.65248107910156 10.93329811096191 23.65248107910156 C 10.6132345199585 23.65248107910156 10.29293060302734 23.60129737854004 9.984622001647949 23.4985294342041 C 8.551862716674805 23.02093887329102 7.323371887207031 21.73614883422852 5.744342803955078 19.06394958496094 C 5.440070152282715 18.54903030395508 5.160533905029297 18.04387092590332 4.923618316650391 17.60036849975586 C 4.429851531982422 17.53366851806641 3.864980697631836 17.44865798950195 3.282491683959961 17.34380912780762 C 0.2781314849853516 16.80301856994629 -1.404138565063477 16.07176971435547 -2.342607498168945 14.89866924285889 C -2.768157958984375 14.36672973632813 -2.999998092651367 13.7057991027832 -2.999998092651367 13.02458953857422 C -2.999998092651367 11.53321933746338 -2.15241813659668 9.977609634399414 -0.07448768615722656 7.655209541320801 C 0.324676513671875 7.209085464477539 0.7223129272460938 6.788491249084473 1.073524475097656 6.427455902099609 C 0.9857139587402344 5.928764343261719 0.8920764923095703 5.353536605834961 0.8100318908691406 4.755788803100586 C 0.3865127563476563 1.670108795166016 0.5074729919433594 -0.008729934692382813 1.241472244262695 -1.232061386108398 C 1.578792572021484 -1.79425048828125 2.090972900390625 -2.230461120605469 2.699691772460938 -2.473960876464844 C 3.158172607421875 -2.657371520996094 3.666603088378906 -2.750370025634766 4.210851669311523 -2.750370025634766 C 5.0072021484375 -2.750270843505859 6.290172576904297 -2.587820053100586 9.172142028808594 -1.321901321411133 C 9.587447166442871 -1.139472961425781 9.982391357421875 -0.9575271606445313 10.33449745178223 -0.7907943725585938 C 10.68496227264404 -0.9788627624511719 11.07969760894775 -1.184322357177734 11.49663257598877 -1.39015007019043 C 14.4195728302002 -2.833120346069336 15.82297229766846 -3 16.62432289123535 -3 Z"/>
    </g>
    <g id="_6" data-name="6" class="cls-1" transform="translate(341.343 119.739) rotate(18)">
      <path class="cls-4" d="M 13.61269187927246 24.11617660522461 L 13.158522605896 24.11617660522461 C 11.97543239593506 24.11617660522461 10.66093254089355 23.23284721374512 8.763152122497559 21.16254615783691 C 8.115511894226074 20.45602989196777 7.53682279586792 19.75533866882324 7.143149375915527 19.262451171875 C 6.296711444854736 19.34414672851563 4.938210487365723 19.45027732849121 3.592932224273682 19.45027732849121 C 1.148512363433838 19.45027732849121 -0.2867076694965363 19.10513687133789 -1.060657620429993 18.33119583129883 L -1.499997615814209 17.8918571472168 L -1.499997615814209 17.27053642272949 C -1.499997615814209 16.66943550109863 -1.278127670288086 15.71104621887207 0.331452339887619 12.79368686676025 C 0.8078464865684509 11.93023300170898 1.27971625328064 11.12480163574219 1.601815223693848 10.58467388153076 C 1.362477660179138 10.02990245819092 1.024038910865784 9.21540355682373 0.6991123557090759 8.329246520996094 C -0.44384765625 5.212086200714111 -0.3933176696300507 4.023916244506836 -0.2216076701879501 3.337036371231079 L -0.08095766603946686 2.774426460266113 L 0.4015723466873169 2.452746391296387 C 0.895042359828949 2.123766422271729 1.554552316665649 1.970556378364563 2.477102279663086 1.970556378364563 C 4.248053073883057 1.970556378364563 6.913727283477783 2.556540250778198 8.231554985046387 2.874979972839355 C 8.699184417724609 2.464969396591187 9.393803596496582 1.867756843566895 10.15999221801758 1.248906373977661 C 12.78658199310303 -0.8725636005401611 13.86033248901367 -1.310413599014282 14.43951225280762 -1.45521354675293 L 15.26344203948975 -1.661203622817993 L 15.86398220062256 -1.06066358089447 C 16.38523292541504 -0.5394036173820496 17.05036163330078 0.4999063909053802 17.57139205932617 3.938726425170898 C 17.72078704833984 4.924746513366699 17.81942749023438 5.853081226348877 17.87762641906738 6.483944416046143 C 18.4177360534668 6.795081615447998 19.19960975646973 7.261866092681885 20.00440216064453 7.798386573791504 C 22.89222145080566 9.723596572875977 23.47506141662598 10.82053661346436 23.66020202636719 11.56109619140625 L 23.79477310180664 12.09940624237061 L 23.54662322998047 12.59570598602295 C 23.1984920501709 13.29196643829346 22.39452171325684 14.27986621856689 19.24128150939941 15.75138664245605 C 18.35455322265625 16.16519355773926 17.5068244934082 16.51144790649414 16.92057418823242 16.74029731750488 C 16.78098487854004 17.36289024353027 16.56540870666504 18.27036666870117 16.29870223999023 19.21866607666016 C 15.35355186462402 22.5792064666748 14.6308126449585 23.43741607666016 13.99058246612549 23.8642463684082 L 13.61269187927246 24.11617660522461 Z"/>
      <path class="cls-5" d="M 14.80332183837891 -3.814697265625e-06 C 13.158522605896 0.4112071990966797 8.635282516479492 4.523237228393555 8.635282516479492 4.523237228393555 C 8.635282516479492 4.523237228393555 4.687753677368164 3.470556259155273 2.477096557617188 3.470556259155273 C 1.924388885498047 3.470556259155273 1.480356216430664 3.536336898803711 1.233612060546875 3.700826644897461 C 0.8224220275878906 5.345645904541016 3.289642333984375 10.69128608703613 3.289642333984375 10.69128608703613 C 3.289642333984375 10.69128608703613 1.9073486328125e-06 16.03692626953125 1.9073486328125e-06 17.27053642272949 C 0.5286388397216797 17.79916763305664 2.039402008056641 17.95027542114258 3.592935562133789 17.95027542114258 C 5.664682388305664 17.95027542114258 7.812862396240234 17.68173599243164 7.812862396240234 17.68173599243164 C 7.812862396240234 17.68173599243164 11.51369190216064 22.61617660522461 13.158522605896 22.61617660522461 C 14.39212226867676 21.79376602172852 15.62572288513184 15.6257266998291 15.62572288513184 15.6257266998291 C 15.62572288513184 15.6257266998291 21.38257217407227 13.56970596313477 22.20498275756836 11.92488670349121 C 21.79378318786621 10.2800760269165 16.44811248779297 7.401656150817871 16.44811248779297 7.401656150817871 C 16.44811248779297 7.401656150817871 16.03692245483398 1.233606338500977 14.80332183837891 -3.814697265625e-06 M 14.80321884155273 -3.000064849853516 C 15.58914852142334 -3.000064849853516 16.3551025390625 -2.690864562988281 16.92465209960938 -2.121313095092773 C 17.95371246337891 -1.092243194580078 18.59067153930664 0.6529064178466797 19.05446243286133 3.714025497436523 C 19.15587997436523 4.38337516784668 19.23477172851563 5.027956008911133 19.2940845489502 5.577005386352539 C 19.75675392150879 5.854578018188477 20.29190444946289 6.187294006347656 20.8364429473877 6.550315856933594 C 23.45841217041016 8.298275947570801 24.73810195922852 9.688026428222656 25.11541175842285 11.19728660583496 C 25.28910255432129 11.89203643798828 25.20853233337402 12.62599658966064 24.88826179504395 13.266526222229 C 24.20033264160156 14.64239692687988 22.70122146606445 15.79204654693604 19.87560272216797 17.11066627502441 C 19.28190040588379 17.38772773742676 18.70419692993164 17.63595581054688 18.20489120483398 17.84127807617188 C 18.07759284973145 18.37264060974121 17.92118072509766 18.99007606506348 17.74267196655273 19.62477684020996 C 16.86066246032715 22.76086616516113 16.04195213317871 24.2994270324707 14.8226318359375 25.1123161315918 C 14.32983207702637 25.44085693359375 13.7508020401001 25.61617660522461 13.158522605896 25.61617660522461 C 11.49098205566406 25.61617660522461 9.897202491760254 24.61952590942383 7.657422065734863 22.1761360168457 C 7.226115226745605 21.70561981201172 6.823821067810059 21.23713684082031 6.482219696044922 20.82578468322754 C 5.655668258666992 20.89096260070801 4.621051788330078 20.95027542114258 3.592931747436523 20.95027542114258 C 0.67999267578125 20.95027542114258 -1.028938293457031 20.48421669006348 -2.121297836303711 19.39187622070313 C -2.683917999267578 18.82926559448242 -2.999998092651367 18.06619644165039 -2.999998092651367 17.27053642272949 C -2.999998092651367 16.31750679016113 -2.662397384643555 15.11494636535645 -0.9819068908691406 12.06906604766846 C -0.663421630859375 11.49181461334229 -0.3466854095458984 10.93959522247314 -0.07359695434570313 10.47225189208984 C -0.2707996368408203 9.994709968566895 -0.4930515289306641 9.43511962890625 -0.709197998046875 8.845626831054688 C -1.724327087402344 6.077085494995117 -2.013717651367188 4.320865631103516 -1.676816940307617 2.973245620727539 C -1.495817184448242 2.24920654296875 -1.051437377929688 1.618637084960938 -0.4304676055908203 1.204656600952148 C 0.3208026885986328 0.703826904296875 1.244701385498047 0.4705562591552734 2.477092742919922 0.4705562591552734 C 4.109308242797852 0.4705562591552734 6.335238456726074 0.9014930725097656 7.828766822814941 1.23914909362793 C 8.232589721679688 0.8930301666259766 8.70998477935791 0.4919052124023438 9.21749210357666 0.08199691772460938 C 12.02663230895996 -2.186923980712891 13.24974250793457 -2.703933715820313 14.07570266723633 -2.910423278808594 C 14.31662178039551 -2.97065544128418 14.5609073638916 -3.000064849853516 14.80321884155273 -3.000064849853516 Z"/>
    </g>
    <g id="_7" data-name="7" class="cls-1" transform="translate(131.332 196.668) rotate(-65)">
      <path class="cls-4" d="M 10.99858283996582 19.62320327758789 L 10.5444221496582 19.62320327758789 C 9.50449275970459 19.62320327758789 8.385432243347168 18.8864631652832 6.802582263946533 17.15971374511719 C 6.331467628479004 16.64577484130859 5.90522575378418 16.13539886474609 5.592202663421631 15.74742794036865 C 4.902987003326416 15.81078147888184 3.886592149734497 15.88424396514893 2.879152536392212 15.88424396514893 C 0.8073624968528748 15.88424396514893 -0.370897501707077 15.58995342254639 -1.060647487640381 14.90021324157715 L -1.499997496604919 14.46086311340332 L -1.499997496604919 13.83954334259033 C -1.499997496604919 13.35369396209717 -1.383727550506592 12.62461376190186 0.004702493082731962 10.10812377929688 C 0.3515046536922455 9.479548454284668 0.6954155564308167 8.889011383056641 0.9499532580375671 8.459956169128418 C 0.7621096968650818 8.019650459289551 0.5167881846427917 7.421681880950928 0.2804524898529053 6.777133464813232 C -0.6633874773979187 4.202993392944336 -0.6146075129508972 3.193603515625 -0.4666575193405151 2.601813554763794 L -0.3260174989700317 2.03921365737915 L 0.1565124988555908 1.717533588409424 C 0.6031525135040283 1.419773578643799 1.184172511100769 1.281093597412109 1.984992504119873 1.281093597412109 C 3.384575366973877 1.281093597412109 5.401217460632324 1.710837244987488 6.517038822174072 1.977291345596313 C 6.888411045074463 1.653591394424438 7.398120880126953 1.218231797218323 7.954342365264893 0.7689735293388367 C 10.0810022354126 -0.9487064480781555 10.96559238433838 -1.321946501731873 11.4986629486084 -1.455206513404846 L 12.32259273529053 -1.66119647026062 L 12.92313289642334 -1.060646414756775 C 13.37306213378906 -0.6107064485549927 13.94473266601563 0.2701335549354553 14.37526226043701 3.111613512039185 C 14.48433494567871 3.831483364105225 14.55996322631836 4.513664722442627 14.60826396942139 5.014970302581787 C 15.03584480285645 5.263914108276367 15.6083345413208 5.609711647033691 16.19558334350586 6.001213550567627 C 18.09281158447266 7.26603364944458 19.00596237182617 8.220303535461426 19.2489128112793 9.19205379486084 L 19.38350296020508 9.73038387298584 L 19.13534164428711 10.22669315338135 C 18.83475303649902 10.82787322998047 18.15499305725098 11.67413330078125 15.54479217529297 12.8922233581543 C 14.89905738830566 13.19356822967529 14.27865123748779 13.45072269439697 13.81493282318115 13.63423538208008 C 13.70251274108887 14.12696552276611 13.54183292388916 14.79086303710938 13.34764289855957 15.48133373260498 C 12.56402206420898 18.26753425598145 11.93715286254883 18.99749374389648 11.37646293640137 19.37128448486328 L 10.99858283996582 19.62320327758789 Z"/>
      <path class="cls-5" d="M 11.86246299743652 3.814697265625e-06 C 10.5444221496582 0.3295135498046875 6.919772148132324 3.624643325805664 6.919772148132324 3.624643325805664 C 6.919772148132324 3.624643325805664 3.756464958190918 2.781088829040527 1.984991073608398 2.781088829040527 C 1.542087554931641 2.781088829040527 1.186271667480469 2.83380126953125 0.9885520935058594 2.96561336517334 C 0.6590423583984375 4.283663749694824 2.636122703552246 8.567343711853027 2.636122703552246 8.567343711853027 C 2.636122703552246 8.567343711853027 1.9073486328125e-06 12.85100364685059 1.9073486328125e-06 13.83954334259033 C 0.4236240386962891 14.26316070556641 1.634244918823242 14.38424777984619 2.879149436950684 14.38424777984619 C 4.53931713104248 14.38424777984619 6.2607421875 14.16905403137207 6.2607421875 14.16905403137207 C 6.2607421875 14.16905403137207 9.226362228393555 18.12320327758789 10.5444221496582 18.12320327758789 C 11.53297233581543 17.46418380737305 12.52149200439453 12.52149391174316 12.52149200439453 12.52149391174316 C 12.52149200439453 12.52149391174316 17.13467216491699 10.87392425537109 17.79370307922363 9.555873870849609 C 17.46417236328125 8.237823486328125 13.18051242828369 5.931233406066895 13.18051242828369 5.931233406066895 C 13.18051242828369 5.931233406066895 12.85099220275879 0.9885330200195313 11.86246299743652 3.814697265625e-06 M 11.86235237121582 -3.00006103515625 C 12.64827919006348 -3.00006103515625 13.41423988342285 -2.690858840942383 13.98378276824951 -2.121316909790039 C 14.91777229309082 -1.187326431274414 15.46087265014648 0.2636528015136719 15.85833263397217 2.886903762817383 C 15.92348003387451 3.316878318786621 15.97722721099854 3.734440803527832 16.02075576782227 4.111336708068848 C 16.33523178100586 4.303611755371094 16.67921257019043 4.520853042602539 17.02763175964355 4.753133773803711 C 19.2630729675293 6.243423461914063 20.36258316040039 7.462143898010254 20.70412254333496 8.82823371887207 C 20.87782287597656 9.522993087768555 20.7972526550293 10.25698375701904 20.47698211669922 10.89752388000488 C 19.86062240600586 12.13023376464844 18.57528305053711 13.13329315185547 16.17912292480469 14.25150299072266 C 15.80235576629639 14.42732620239258 15.43331146240234 14.58898735046387 15.09599113464355 14.73106479644775 C 15.00725936889648 15.0903434753418 14.90487194061279 15.48476982116699 14.79162216186523 15.88744354248047 C 14.04186248779297 18.55326271057129 13.31762313842773 19.87996292114258 12.2085018157959 20.6193733215332 C 11.71570205688477 20.9478931427002 11.13669204711914 21.12320327758789 10.5444221496582 21.12320327758789 C 9.195052146911621 21.12320327758789 8.129252433776855 20.39541435241699 7.444962501525879 19.84797286987305 C 6.914982795715332 19.42399406433105 6.32683277130127 18.86055374145508 5.696852684020996 18.17330360412598 C 5.424530029296875 17.8762264251709 5.166264533996582 17.58001708984375 4.934019088745117 17.30547332763672 C 4.318029403686523 17.34893417358398 3.59676456451416 17.38424301147461 2.879152297973633 17.38424301147461 C 0.3718433380126953 17.38424301147461 -1.123617172241211 16.95856285095215 -2.121316909790039 15.96086311340332 C -2.683927536010742 15.39825344085693 -2.999998092651367 14.63519382476807 -2.999998092651367 13.83954334259033 C -2.999998092651367 12.9588737487793 -2.723247528076172 11.94740295410156 -1.30866813659668 9.383503913879395 C -1.106687545776367 9.01741886138916 -0.9055442810058594 8.663722038269043 -0.7215614318847656 8.345729827880859 C -0.8521862030029297 8.022587776184082 -0.9915294647216797 7.665313720703125 -1.127857208251953 7.293513298034668 C -1.985527038574219 4.954413414001465 -2.222988128662109 3.442483901977539 -1.921876907348633 2.23801326751709 C -1.740867614746094 1.513982772827148 -1.296497344970703 0.8834133148193359 -0.6755180358886719 0.4694442749023438 C 0.2499923706054688 -0.1475467681884766 1.2861328125 -0.2189064025878906 1.984992027282715 -0.2189064025878906 C 3.253151893615723 -0.2189064025878906 4.898719787597656 0.079345703125 6.114437103271484 0.3454437255859375 C 6.388004302978516 0.1135177612304688 6.692572593688965 -0.1400661468505859 7.011842727661133 -0.3979358673095703 C 9.346872329711914 -2.283926010131836 10.37339210510254 -2.720056533813477 11.13485240936279 -2.910427093505859 C 11.37577152252197 -2.97065544128418 11.62004089355469 -3.00006103515625 11.86235237121582 -3.00006103515625 Z"/>
    </g>
    <g id="_8" data-name="8" class="cls-2" transform="matrix(0.995, 0.105, -0.105, 0.995, 110.962, 221.4)">
      <path class="cls-4" d="M 33.90681076049805 65.55641937255859 L 33.38555145263672 65.38265991210938 C 32.00726318359375 64.92322540283203 30.48181343078613 63.61931991577148 28.72202301025391 61.39642715454102 C 27.43901252746582 59.77578735351563 26.01759338378906 57.64949035644531 24.49725341796875 55.07659912109375 C 22.55829238891602 51.79528427124023 20.97313117980957 48.66596984863281 20.28033828735352 47.26141357421875 C 18.72962951660156 47.10433578491211 15.27095508575439 46.71574783325195 11.54586219787598 46.04523086547852 C 8.62047290802002 45.51865768432617 6.143532752990723 44.92617034912109 4.183852672576904 44.28419876098633 C 1.496932506561279 43.40399932861328 -0.2547574639320374 42.419189453125 -1.171307444572449 41.27349853515625 L -1.499997496604919 40.86262893676758 L -1.499997496604919 40.33646011352539 C -1.499997496604919 38.9134407043457 -0.7528774738311768 37.15195846557617 0.851252555847168 34.79294967651367 C 1.998772501945496 33.10540771484375 3.588192462921143 31.12363815307617 5.575372695922852 28.90267944335938 C 8.11543083190918 26.06378936767578 10.62236022949219 23.59194755554199 11.74734973907471 22.50499153137207 C 11.43158149719238 20.96504402160645 10.7501163482666 17.47964668273926 10.22709274291992 13.66903877258301 C 9.818922996520996 10.69519901275635 9.594902992248535 8.14695930480957 9.561262130737305 6.095118999481201 C 9.51450252532959 3.242439031600952 9.820842742919922 1.366919040679932 10.52535247802734 0.1927390545606613 L 10.78533267974854 -0.2405609488487244 L 11.25450229644775 -0.4282309412956238 C 11.7569522857666 -0.6292009353637695 12.34148216247559 -0.7269009351730347 13.04151248931885 -0.7269009351730347 C 15.46882247924805 -0.7269009351730347 19.58389282226563 0.5401090383529663 25.27241325378418 3.038928985595703 C 28.32742309570313 4.380921840667725 30.99139595031738 5.7064208984375 32.23676300048828 6.339847564697266 C 33.44729995727539 5.63706636428833 36.04096221923828 4.167739391326904 39.05319213867188 2.680699110031128 C 44.67257308959961 -0.09341095387935638 48.8551025390625 -1.500000953674316 51.48462295532227 -1.500000953674316 C 52.13892364501953 -1.500000953674316 52.72709274291992 -1.414530992507935 53.23278427124023 -1.24596095085144 L 53.75920104980469 -1.070490956306458 L 54.04468154907227 -0.5946809649467468 C 54.73989105224609 0.5640190243721008 55.08533096313477 2.423918962478638 55.13180160522461 5.258539199829102 C 55.1653938293457 7.307438850402832 55.03472137451172 9.852839469909668 54.74343109130859 12.82401943206787 C 54.3767204284668 16.56447410583496 53.84170150756836 20.07027435302734 53.58982086181641 21.6314640045166 C 54.78713226318359 22.65781784057617 57.43538665771484 24.97784423828125 60.11861419677734 27.66106986999512 C 62.22600173950195 29.76845932006836 63.91215133666992 31.66047859191895 65.13023376464844 33.28458786010742 C 66.84585571289063 35.57207870483398 67.64490509033203 37.31242752075195 67.64490509033203 38.76157760620117 L 67.64490509033203 39.17705917358398 L 67.43114471435547 39.53331756591797 C 66.69512176513672 40.76001739501953 65.12325286865234 41.80064010620117 62.48438262939453 42.80820083618164 C 60.62124252319336 43.51958084106445 58.22119140625 44.20698928833008 55.35088348388672 44.85133743286133 C 51.6791877746582 45.67559432983398 48.22143936157227 46.21266174316406 46.68848037719727 46.43402862548828 C 46.01021957397461 47.88327026367188 44.41589736938477 51.22132110595703 42.56007385253906 54.63603973388672 C 37.91713333129883 63.17905807495117 35.68903350830078 64.84352874755859 34.4169807434082 65.35234832763672 L 33.90681076049805 65.55641937255859 Z"/>
      <path class="cls-5" d="M 51.48462295532227 -3.814697265625e-06 C 45.70428085327148 -3.814697265625e-06 32.28500747680664 8.051456451416016 32.28500747680664 8.051456451416016 C 32.28500747680664 8.051456451416016 18.3905143737793 0.7737464904785156 13.04150390625 0.7730979919433594 C 12.55497360229492 0.7730369567871094 12.13984680175781 0.8331832885742188 11.81158447265625 0.9644889831542969 C 9.449275970458984 4.901653289794922 13.386474609375 23.01277542114258 13.386474609375 23.01277542114258 C 13.386474609375 23.01277542114258 0 35.61178588867188 0 40.33645629882813 C 3.149753570556641 44.27367401123047 21.2608642578125 45.84853363037109 21.2608642578125 45.84853363037109 C 21.2608642578125 45.84853363037109 29.13525390625 62.38474273681641 33.85988616943359 63.95963287353516 C 37.79709625244141 62.38474273681641 45.67148590087891 45.06105422973633 45.67148590087891 45.06105422973633 C 45.67148590087891 45.06105422973633 63.78258514404297 42.69876480102539 66.14490509033203 38.76157760620117 C 66.14490509033203 34.03693389892578 51.97099685668945 22.2253532409668 51.97099685668945 22.2253532409668 C 51.97099685668945 22.2253532409668 55.12075042724609 4.114276885986328 52.75844192504883 0.1770553588867188 C 52.39509582519531 0.055938720703125 51.96619033813477 -3.814697265625e-06 51.48462295532227 -3.814697265625e-06 M 51.484619140625 -3 C 52.30043029785156 -3 53.04817581176758 -2.888633728027344 53.70709609985352 -2.668998718261719 C 54.38649749755859 -2.442543029785156 54.96247482299805 -1.980514526367188 55.3309326171875 -1.366424560546875 C 56.25572967529297 0.1749420166015625 57.19440841674805 3.197456359863281 56.23627471923828 12.97037506103516 C 55.91730499267578 16.22386169433594 55.48230743408203 19.24463653564453 55.20263671875 21.04279708862305 C 56.58296203613281 22.24445724487305 58.8692626953125 24.2903938293457 61.17927551269531 26.60039901733398 C 63.33667373657227 28.75780868530273 65.06970977783203 30.70388793945313 66.33023071289063 32.38459014892578 C 68.25053405761719 34.94496536254883 69.14490509033203 36.97130966186523 69.14490509033203 38.76157760620117 C 69.14490509033203 39.3053092956543 68.99713134765625 39.83882141113281 68.71738433837891 40.3050651550293 C 67.79935455322266 41.83510971069336 65.98880004882813 43.07577514648438 63.01943206787109 44.20953369140625 C 61.08927536010742 44.94649887084961 58.61974334716797 45.65484619140625 55.679443359375 46.31491088867188 C 52.50646209716797 47.02720642089844 49.48880767822266 47.52822494506836 47.70412826538086 47.79965209960938 C 46.90768432617188 49.47919845581055 45.50535583496094 52.35799407958984 43.87802124023438 55.35229873657227 C 42.39556121826172 58.08000946044922 41.03165435791016 60.33771133422852 39.82415008544922 62.06270980834961 C 37.98028564453125 64.69680786132813 36.48446273803711 66.14089965820313 34.97406387329102 66.74506378173828 C 34.61698913574219 66.88789367675781 34.23862457275391 66.95963287353516 33.8598747253418 66.95963287353516 C 33.53981399536133 66.95963287353516 33.21950912475586 66.908447265625 32.91119766235352 66.80567932128906 C 31.22437286376953 66.24340057373047 29.51953125 64.82041931152344 27.54594039916992 62.32747650146484 C 26.22088623046875 60.65370941162109 24.76067352294922 58.47090911865234 23.20585250854492 55.83968734741211 C 21.53470230102539 53.01158142089844 20.12187957763672 50.29267120361328 19.30470275878906 48.66683959960938 C 17.50568771362305 48.47055053710938 14.48931121826172 48.09914779663086 11.28012847900391 47.52149963378906 C 8.286808013916016 46.98271179199219 5.742164611816406 46.37310791015625 3.716884613037109 45.70965576171875 C 0.7027053833007813 44.72225189208984 -1.222747802734375 43.61037445068359 -2.342613220214844 42.21053314208984 C -2.768157958984375 41.67859649658203 -3 41.01766586303711 -3 40.33645629882813 C -3 38.59845733642578 -2.170379638671875 36.56895446777344 -0.3891448974609375 33.94947814941406 C 0.7955780029296875 32.20724487304688 2.426231384277344 30.17274475097656 4.457508087158203 27.9024772644043 C 6.648223876953125 25.45403671264648 8.81610107421875 23.27379989624023 10.11550140380859 22.000244140625 C 9.759765625 20.20666885375977 9.19195556640625 17.15831756591797 8.741031646728516 13.87300872802734 C 7.392375946044922 4.047164916992188 8.298786163330078 0.9881973266601563 9.239109039306641 -0.5790023803710938 C 9.576454162597656 -1.1412353515625 10.08868408203125 -1.577468872070313 10.69746398925781 -1.820953369140625 C 11.38035202026367 -2.094100952148438 12.14682006835938 -2.226890563964844 13.04065322875977 -2.226898193359375 C 15.71514129638672 -2.226577758789063 19.91310882568359 -0.9532546997070313 25.87564086914063 1.665821075439453 C 28.45757293701172 2.799949645996094 30.76533508300781 3.923465728759766 32.19003295898438 4.636409759521484 C 33.57997131347656 3.843864440917969 35.83763122558594 2.595291137695313 38.38918304443359 1.335666656494141 C 44.29894256591797 -1.581787109375 48.58249664306641 -3 51.484619140625 -3 Z"/>
    </g>
    <g id="_9" data-name="9" class="cls-3" transform="translate(174.447 240.553)">
      <path class="cls-4" d="M 25.99302864074707 64.37699127197266 L 25.63891792297363 64.37699127197266 L 25.32219886779785 64.2186279296875 C 24.48016738891602 63.79761123657227 23.23189735412598 62.72253036499023 22.11787796020508 58.26647186279297 C 21.78251266479492 56.92501068115234 21.54941177368164 55.64546585083008 21.41556167602539 54.82868576049805 C 20.65942001342773 54.53398513793945 19.48893737792969 54.05483245849609 18.28276824951172 53.47254180908203 C 15.14884853363037 51.95962142944336 13.59507846832275 50.66010284423828 13.24479866027832 49.25894165039063 L 13.1102180480957 48.72063064575195 L 13.35836791992188 48.22431945800781 C 13.72597789764404 47.48908996582031 14.64083862304688 46.23768997192383 18.32540893554688 43.8690299987793 C 19.51240158081055 43.10596466064453 20.63684272766113 42.45273971557617 21.3353214263916 42.05823516845703 C 21.40681457519531 41.24750518798828 21.54035568237305 39.92964553833008 21.7539176940918 38.52014923095703 C 22.42262840270996 34.10663986206055 23.27435874938965 32.82181930541992 23.85684776306152 32.23934173583984 L 24.29618835449219 31.80000114440918 L 24.91750907897949 31.80000114440918 C 25.79925918579102 31.80000114440918 27.25634765625 32.17652130126953 30.72627830505371 35.11262130737305 C 31.83193778991699 36.04817962646484 32.82352828979492 36.97441101074219 33.42922210693359 37.55499649047852 C 35.05416870117188 37.15665435791016 38.67815399169922 36.33871078491211 41.0374870300293 36.33871078491211 C 42.14861679077148 36.33871078491211 42.92973709106445 36.51445007324219 43.4957389831543 36.89178085327148 L 43.92396926879883 37.17727279663086 L 44.08671951293945 37.66553115844727 C 44.35383987426758 38.46692276000977 44.36289978027344 39.77635955810547 42.63534927368164 43.89591979980469 C 42.07849502563477 45.22379302978516 41.50125122070313 46.45895767211914 41.14093780517578 47.20995712280273 C 41.55743789672852 47.92171859741211 42.21992492675781 49.09004974365234 42.86257934570313 50.37536239624023 C 44.86991882324219 54.39005279541016 44.87579727172852 55.91106033325195 44.65664672851563 56.78763198852539 L 44.51600646972656 57.35021209716797 L 44.03349685668945 57.67189025878906 C 43.27627944946289 58.17671203613281 42.0245475769043 58.40183258056641 39.97486877441406 58.40183258056641 C 37.84739685058594 58.40183258056641 35.38687896728516 58.15409851074219 34.13771438598633 58.01027297973633 C 33.58611297607422 58.64303970336914 32.66388320922852 59.67185974121094 31.62467765808105 60.7110595703125 C 28.37543869018555 63.96031188964844 26.90823745727539 64.37699127197266 25.99302864074707 64.37699127197266 Z"/>
      <path class="cls-5" d="M 24.91749954223633 33.29999923706055 C 23.30420684814453 34.91329193115234 22.76644897460938 42.97974014282227 22.76644897460938 42.97974014282227 C 22.76644897460938 42.97974014282227 15.77552795410156 46.74409103393555 14.70000839233398 48.8951416015625 C 15.23777008056641 51.04619216918945 22.76644897460938 53.73500061035156 22.76644897460938 53.73500061035156 C 22.76644897460938 53.73500061035156 23.84197998046875 61.80145263671875 25.99303817749023 62.87699127197266 C 28.14407920837402 62.87699127197266 33.52170562744141 56.42382049560547 33.52170562744141 56.42382049560547 C 33.52170562744141 56.42382049560547 37.10688781738281 56.90183258056641 39.97486877441406 56.90183258056641 C 41.40912246704102 56.90183258056641 42.66361618041992 56.78237533569336 43.20143890380859 56.42382049560547 C 43.73920822143555 54.27275085449219 39.43711090087891 47.28184127807617 39.43711090087891 47.28184127807617 C 39.43711090087891 47.28184127807617 43.20143890380859 39.75313949584961 42.66368865966797 38.13986206054688 C 42.34110641479492 37.92480850219727 41.75999450683594 37.83871078491211 41.03749084472656 37.83871078491211 C 38.14656829833984 37.83871078491211 32.98394775390625 39.21538925170898 32.98394775390625 39.21538925170898 C 32.98394775390625 39.21538925170898 27.06854820251465 33.29999923706055 24.91749954223633 33.29999923706055 M 24.91749954223633 30.30000305175781 C 26.6529483795166 30.30000305175781 28.61657905578613 31.36256408691406 31.69518852233887 33.967529296875 C 32.51557159423828 34.66170501708984 33.27557373046875 35.35166549682617 33.86906433105469 35.90629196166992 C 35.76485824584961 35.46524429321289 38.84403991699219 34.83871078491211 41.03749084472656 34.83871078491211 C 42.45845031738281 34.83871078491211 43.50395965576172 35.09450149536133 44.32776641845703 35.64369964599609 C 44.88286972045898 36.01375961303711 45.29877853393555 36.55829238891602 45.50975036621094 37.19119262695313 C 45.93729782104492 38.47386932373047 45.83699035644531 40.13993072509766 44.01863861083984 44.47600936889648 C 43.60320281982422 45.4666633605957 43.17633819580078 46.40744400024414 42.83277130126953 47.14199829101563 C 43.2307014465332 47.84307479858398 43.72315979003906 48.74242401123047 44.20421600341797 49.70454025268555 C 45.96560668945313 53.22732162475586 46.53611755371094 55.45442962646484 46.11186981201172 57.15143203735352 C 45.93085861206055 57.87544250488281 45.48649597167969 58.50598907470703 44.86554718017578 58.91996002197266 C 43.83321762084961 59.60819244384766 42.37059020996094 59.90183258056641 39.97486877441406 59.90183258056641 C 38.16319274902344 59.90183258056641 36.12623596191406 59.7291374206543 34.74707794189453 59.58573150634766 C 34.19390869140625 60.20367813110352 33.47188949584961 60.98516845703125 32.68534088134766 61.77172088623047 C 29.76945877075195 64.68760681152344 27.83056831359863 65.87699127197266 25.99303817749023 65.87699127197266 C 25.52729797363281 65.87699127197266 25.06795883178711 65.7685546875 24.65139007568359 65.56027221679688 C 22.86809921264648 64.66860961914063 21.637939453125 62.53133010864258 20.66267013549805 58.63027954101563 C 20.41571426391602 57.64246368408203 20.22206497192383 56.68569564819336 20.08078765869141 55.91020965576172 C 19.37339019775391 55.62041473388672 18.51070404052734 55.24822616577148 17.63063812255859 54.82337188720703 C 14.01089859008789 53.07591247558594 12.2640380859375 51.52058029174805 11.78957748413086 49.62274169921875 C 11.61589813232422 48.9279899597168 11.69645690917969 48.19403076171875 12.01672744750977 47.55350112915039 C 12.50115966796875 46.58464050292969 13.56380844116211 45.1468505859375 17.51427841186523 42.60726165771484 C 18.3943977355957 42.04146575927734 19.2420539855957 41.53399276733398 19.9154052734375 41.14306640625 C 19.99518966674805 40.35250091552734 20.11132431030273 39.34827041625977 20.27083969116211 38.29544067382813 C 20.99332809448242 33.52703094482422 21.95284652709961 32.02201080322266 22.79617691040039 31.17868041992188 C 23.35878753662109 30.61607360839844 24.12184906005859 30.30000305175781 24.91749954223633 30.30000305175781 Z"/>
    </g>
    <g id="_10" data-name="10" class="cls-1" transform="translate(281.539 262.267) rotate(-13)">
      <path class="cls-4" d="M 10.99858283996582 19.62320327758789 L 10.5444221496582 19.62320327758789 C 9.50449275970459 19.62320327758789 8.385432243347168 18.8864631652832 6.802582263946533 17.15971374511719 C 6.331467628479004 16.64577484130859 5.90522575378418 16.13539886474609 5.592202663421631 15.74742794036865 C 4.902987003326416 15.81078147888184 3.886592149734497 15.88424396514893 2.879152536392212 15.88424396514893 C 0.8073624968528748 15.88424396514893 -0.370897501707077 15.58995342254639 -1.060647487640381 14.90021324157715 L -1.499997496604919 14.46086311340332 L -1.499997496604919 13.83954334259033 C -1.499997496604919 13.35369396209717 -1.383727550506592 12.62461376190186 0.004702493082731962 10.10812377929688 C 0.3515046536922455 9.479548454284668 0.6954155564308167 8.889011383056641 0.9499532580375671 8.459956169128418 C 0.7621096968650818 8.019650459289551 0.5167881846427917 7.421681880950928 0.2804524898529053 6.777133464813232 C -0.6633874773979187 4.202993392944336 -0.6146075129508972 3.193603515625 -0.4666575193405151 2.601813554763794 L -0.3260174989700317 2.03921365737915 L 0.1565124988555908 1.717533588409424 C 0.6031525135040283 1.419773578643799 1.184172511100769 1.281093597412109 1.984992504119873 1.281093597412109 C 3.384575366973877 1.281093597412109 5.401217460632324 1.710837244987488 6.517038822174072 1.977291345596313 C 6.888411045074463 1.653591394424438 7.398120880126953 1.218231797218323 7.954342365264893 0.7689735293388367 C 10.0810022354126 -0.9487064480781555 10.96559238433838 -1.321946501731873 11.4986629486084 -1.455206513404846 L 12.32259273529053 -1.66119647026062 L 12.92313289642334 -1.060646414756775 C 13.37306213378906 -0.6107064485549927 13.94473266601563 0.2701335549354553 14.37526226043701 3.111613512039185 C 14.48433494567871 3.831483364105225 14.55996322631836 4.513664722442627 14.60826396942139 5.014970302581787 C 15.03584480285645 5.263914108276367 15.6083345413208 5.609711647033691 16.19558334350586 6.001213550567627 C 18.09281158447266 7.26603364944458 19.00596237182617 8.220303535461426 19.2489128112793 9.19205379486084 L 19.38350296020508 9.73038387298584 L 19.13534164428711 10.22669315338135 C 18.83475303649902 10.82787322998047 18.15499305725098 11.67413330078125 15.54479217529297 12.8922233581543 C 14.89905738830566 13.19356822967529 14.27865123748779 13.45072269439697 13.81493282318115 13.63423538208008 C 13.70251274108887 14.12696552276611 13.54183292388916 14.79086303710938 13.34764289855957 15.48133373260498 C 12.56402206420898 18.26753425598145 11.93715286254883 18.99749374389648 11.37646293640137 19.37128448486328 L 10.99858283996582 19.62320327758789 Z"/>
      <path class="cls-5" d="M 11.86246299743652 3.814697265625e-06 C 10.5444221496582 0.3295135498046875 6.919772148132324 3.624643325805664 6.919772148132324 3.624643325805664 C 6.919772148132324 3.624643325805664 3.756464958190918 2.781088829040527 1.984991073608398 2.781088829040527 C 1.542087554931641 2.781088829040527 1.186271667480469 2.83380126953125 0.9885520935058594 2.96561336517334 C 0.6590423583984375 4.283663749694824 2.636122703552246 8.567343711853027 2.636122703552246 8.567343711853027 C 2.636122703552246 8.567343711853027 1.9073486328125e-06 12.85100364685059 1.9073486328125e-06 13.83954334259033 C 0.4236240386962891 14.26316070556641 1.634244918823242 14.38424777984619 2.879149436950684 14.38424777984619 C 4.53931713104248 14.38424777984619 6.2607421875 14.16905403137207 6.2607421875 14.16905403137207 C 6.2607421875 14.16905403137207 9.226362228393555 18.12320327758789 10.5444221496582 18.12320327758789 C 11.53297233581543 17.46418380737305 12.52149200439453 12.52149391174316 12.52149200439453 12.52149391174316 C 12.52149200439453 12.52149391174316 17.13467216491699 10.87392425537109 17.79370307922363 9.555873870849609 C 17.46417236328125 8.237823486328125 13.18051242828369 5.931233406066895 13.18051242828369 5.931233406066895 C 13.18051242828369 5.931233406066895 12.85099220275879 0.9885330200195313 11.86246299743652 3.814697265625e-06 M 11.86235237121582 -3.00006103515625 C 12.64827919006348 -3.00006103515625 13.41423988342285 -2.690858840942383 13.98378276824951 -2.121316909790039 C 14.91777229309082 -1.187326431274414 15.46087265014648 0.2636528015136719 15.85833263397217 2.886903762817383 C 15.92348003387451 3.316878318786621 15.97722721099854 3.734440803527832 16.02075576782227 4.111336708068848 C 16.33523178100586 4.303611755371094 16.67921257019043 4.520853042602539 17.02763175964355 4.753133773803711 C 19.2630729675293 6.243423461914063 20.36258316040039 7.462143898010254 20.70412254333496 8.82823371887207 C 20.87782287597656 9.522993087768555 20.7972526550293 10.25698375701904 20.47698211669922 10.89752388000488 C 19.86062240600586 12.13023376464844 18.57528305053711 13.13329315185547 16.17912292480469 14.25150299072266 C 15.80235576629639 14.42732620239258 15.43331146240234 14.58898735046387 15.09599113464355 14.73106479644775 C 15.00725936889648 15.0903434753418 14.90487194061279 15.48476982116699 14.79162216186523 15.88744354248047 C 14.04186248779297 18.55326271057129 13.31762313842773 19.87996292114258 12.2085018157959 20.6193733215332 C 11.71570205688477 20.9478931427002 11.13669204711914 21.12320327758789 10.5444221496582 21.12320327758789 C 9.195052146911621 21.12320327758789 8.129252433776855 20.39541435241699 7.444962501525879 19.84797286987305 C 6.914982795715332 19.42399406433105 6.32683277130127 18.86055374145508 5.696852684020996 18.17330360412598 C 5.424530029296875 17.8762264251709 5.166264533996582 17.58001708984375 4.934019088745117 17.30547332763672 C 4.318029403686523 17.34893417358398 3.59676456451416 17.38424301147461 2.879152297973633 17.38424301147461 C 0.3718433380126953 17.38424301147461 -1.123617172241211 16.95856285095215 -2.121316909790039 15.96086311340332 C -2.683927536010742 15.39825344085693 -2.999998092651367 14.63519382476807 -2.999998092651367 13.83954334259033 C -2.999998092651367 12.9588737487793 -2.723247528076172 11.94740295410156 -1.30866813659668 9.383503913879395 C -1.106687545776367 9.01741886138916 -0.9055442810058594 8.663722038269043 -0.7215614318847656 8.345729827880859 C -0.8521862030029297 8.022587776184082 -0.9915294647216797 7.665313720703125 -1.127857208251953 7.293513298034668 C -1.985527038574219 4.954413414001465 -2.222988128662109 3.442483901977539 -1.921876907348633 2.23801326751709 C -1.740867614746094 1.513982772827148 -1.296497344970703 0.8834133148193359 -0.6755180358886719 0.4694442749023438 C 0.2499923706054688 -0.1475467681884766 1.2861328125 -0.2189064025878906 1.984992027282715 -0.2189064025878906 C 3.253151893615723 -0.2189064025878906 4.898719787597656 0.079345703125 6.114437103271484 0.3454437255859375 C 6.388004302978516 0.1135177612304688 6.692572593688965 -0.1400661468505859 7.011842727661133 -0.3979358673095703 C 9.346872329711914 -2.283926010131836 10.37339210510254 -2.720056533813477 11.13485240936279 -2.910427093505859 C 11.37577152252197 -2.97065544128418 11.62004089355469 -3.00006103515625 11.86235237121582 -3.00006103515625 Z"/>
    </g>
    <g id="_11" data-name="11" class="cls-2" transform="matrix(0.899, -0.438, 0.438, 0.899, 317.044, 257.531)">
      <path class="cls-4" d="M 40.16524124145508 69.08843994140625 L 39.68453979492188 69.08843994140625 C 38.23992919921875 69.08843994140625 36.45920944213867 68.29075622558594 34.08049774169922 66.57810211181641 C 32.38375091552734 65.35643768310547 30.39119911193848 63.66437911987305 28.15818977355957 61.54890823364258 C 25.27646255493164 58.81885528564453 22.77090835571289 56.12477493286133 21.69468116760254 54.94434356689453 C 19.26847457885742 55.33178329467773 12.00577831268311 56.41014099121094 6.333849430084229 56.41014099121094 C 2.744019269943237 56.41014099121094 0.4803893566131592 55.98752975463867 -0.7899406552314758 55.08015060424805 L -1.239340662956238 54.75915145874023 L -1.373290657997131 54.22336959838867 C -1.713410615921021 52.86294937133789 -1.675620675086975 50.04560089111328 2.560869455337524 41.32339096069336 C 4.252280235290527 37.84107971191406 6.036661624908447 34.62312316894531 6.821805953979492 33.23411560058594 C 6.088562488555908 31.81315040588379 4.429563999176025 28.52255821228027 2.86242938041687 24.88277053833008 C -1.019640684127808 15.86635971069336 -0.7825706601142883 12.99417018890381 -0.2665406465530396 11.61810970306396 L -0.1059906408190727 11.18995952606201 L 0.2660893499851227 10.92418956756592 C 1.362099409103394 10.14132022857666 3.134389400482178 9.776700019836426 5.843569278717041 9.776700019836426 C 11.67290306091309 9.776700019836426 20.18915367126465 11.5142993927002 22.84346389770508 12.08834934234619 C 23.97415924072266 10.98354721069336 26.59826469421387 8.460938453674316 29.52894020080566 5.927649974822998 C 31.83141899108887 3.93737006187439 33.87672805786133 2.323989868164063 35.60804748535156 1.132300019264221 C 37.98691940307617 -0.505090057849884 39.73297119140625 -1.338610053062439 41.10297012329102 -1.490830063819885 L 41.67341995239258 -1.554210066795349 L 42.14046859741211 -1.220600008964539 C 43.34856796264648 -0.3576600253582001 45.14326858520508 1.906589984893799 46.77392959594727 11.56505966186523 C 47.42644500732422 15.42992496490479 47.81108093261719 19.05876350402832 47.96535873413086 20.66479110717773 C 49.39773941040039 21.36025238037109 52.5970344543457 22.95555305480957 55.95011901855469 24.90735054016113 C 58.57621765136719 26.43597984313965 60.74536895751953 27.86508941650391 62.39731979370117 29.15497016906738 C 64.66375732421875 30.92465972900391 65.99044036865234 32.45973968505859 66.45317077636719 33.84793090820313 L 66.61128234863281 34.32226181030273 L 66.45317077636719 34.79660034179688 C 65.98517608642578 36.20061874389648 64.61971282958984 37.71765899658203 62.27872848510742 39.43437957763672 C 60.57983779907227 40.68022918701172 58.34637832641602 42.04766845703125 55.640380859375 43.49871826171875 C 52.16261291503906 45.36360549926758 48.84226989746094 46.86821746826172 47.38047409057617 47.51199340820313 C 47.13820648193359 49.07178115844727 46.55535507202148 52.60309219360352 45.70169067382813 56.36928176879883 C 43.57701110839844 65.74288940429688 41.74761962890625 67.95816040039063 40.55640029907227 68.80903625488281 L 40.16524124145508 69.08843994140625 Z"/>
      <path class="cls-5" d="M 41.26860046386719 0 C 36.51626968383789 0.5280227661132813 23.31539154052734 13.72888565063477 23.31539154052734 13.72888565063477 C 23.31539154052734 13.72888565063477 12.58708953857422 11.27669906616211 5.843570709228516 11.27669906616211 C 3.736186981201172 11.27669906616211 2.018016815185547 11.51616668701172 1.137947082519531 12.1447868347168 C -0.4461517333984375 16.36906433105469 8.530437469482422 33.26617431640625 8.530437469482422 33.26617431640625 C 8.530437469482422 33.26617431640625 -0.9741973876953125 49.6352424621582 0.08191299438476563 53.85954284667969 C 1.168857574462891 54.63593292236328 3.535778045654297 54.91013336181641 6.333850860595703 54.91013336181641 C 13.05084991455078 54.91013336181641 22.25933456420898 53.33150863647461 22.25933456420898 53.33150863647461 C 22.25933456420898 53.33150863647461 34.93218994140625 67.58843994140625 39.68453598022461 67.58843994140625 C 43.3807373046875 64.94827270507813 46.02091217041016 46.46706390380859 46.02091217041016 46.46706390380859 C 46.02091217041016 46.46706390380859 63.44609069824219 39.07457733154297 65.03013610839844 34.322265625 C 63.44603729248047 29.56994247436523 46.54895782470703 21.64942169189453 46.54895782470703 21.64942169189453 C 46.54895782470703 21.64942169189453 44.96481323242188 2.640190124511719 41.26860046386719 0 M 41.26864624023438 -3.000015258789063 C 41.89116668701172 -3.000015258789063 42.50131225585938 -2.80621337890625 43.01233673095703 -2.441192626953125 C 44.45955657958984 -1.407447814941406 45.54080200195313 0.4580001831054688 46.51819229125977 3.607353210449219 C 47.14894866943359 5.639785766601563 47.73261260986328 8.233131408691406 48.25299072265625 11.31535339355469 C 48.81643676757813 14.65263748168945 49.18266677856445 17.81770706176758 49.37510681152344 19.68550109863281 C 51.03413391113281 20.50632476806641 53.81395721435547 21.92829895019531 56.7047119140625 23.61098480224609 C 59.38931274414063 25.17366409301758 61.61518096923828 26.64115142822266 63.32046890258789 27.97268676757813 C 65.86177062988281 29.95699691772461 67.30937957763672 31.67317581176758 67.87619018554688 33.37358474731445 C 68.08144378662109 33.98937606811523 68.08144378662109 34.65512084960938 67.87619018554688 35.27091979980469 C 67.2987060546875 37.00346374511719 65.80193328857422 38.71080017089844 63.16576766967773 40.64398574829102 C 61.41039276123047 41.93126678466797 59.11698150634766 43.33649826049805 56.34923553466797 44.82065582275391 C 53.33610534667969 46.43638610839844 50.43745040893555 47.78608703613281 48.73410797119141 48.55134582519531 C 48.43982696533203 50.36635589599609 47.90189361572266 53.44800567626953 47.16458129882813 56.70086669921875 C 44.95170211791992 66.46360778808594 42.93659210205078 68.95223999023438 41.42826080322266 70.02963256835938 C 40.91945648193359 70.39307403564453 40.309814453125 70.58843994140625 39.68453598022461 70.58843994140625 C 37.74509429931641 70.58843994140625 34.56501388549805 69.68475341796875 27.12657928466797 62.63783264160156 C 24.62548828125 60.26839447021484 22.4031867980957 57.92442321777344 21.13291168212891 56.55020523071289 C 18.12724685668945 57.01020431518555 11.57682800292969 57.91013336181641 6.333847045898438 57.91013336181641 C 2.362392425537109 57.91013336181641 -0.1035537719726563 57.41377639770508 -1.661796569824219 56.30074310302734 C -2.241966247558594 55.8863410949707 -2.655586242675781 55.27885437011719 -2.828506469726563 54.58717346191406 C -3.22991943359375 52.98158645629883 -2.936195373535156 50.91041946411133 -1.876152038574219 47.87159729003906 C -1.180961608886719 45.87868499755859 -0.14208984375 43.45505523681641 1.211601257324219 40.66802978515625 C 2.694187164306641 37.61566162109375 4.216201782226563 34.81804656982422 5.119480133056641 33.20010375976563 C 4.271583557128906 31.53024673461914 2.843574523925781 28.63204956054688 1.484703063964844 25.4759635925293 C 0.2455482482910156 22.59793090820313 -0.6782608032226563 20.09845352172852 -1.261077880859375 18.04695510864258 C -2.160820007324219 14.87984085083008 -2.287261962890625 12.73467636108398 -1.671043395996094 11.0914192199707 C -1.46173095703125 10.53324127197266 -1.090866088867188 10.05008697509766 -0.60577392578125 9.703586578369141 C 0.7571029663085938 8.730098724365234 2.806423187255859 8.276699066162109 5.843570709228516 8.276699066162109 C 11.31734466552734 8.276699066162109 19.04408645629883 9.758563995361328 22.37110900878906 10.45454788208008 C 23.69083786010742 9.1785888671875 25.98165893554688 7.011219024658203 28.54801559448242 4.792842864990234 C 30.89193725585938 2.766738891601563 32.98113632202148 1.11944580078125 34.7575798034668 -0.1032943725585938 C 37.34818267822266 -1.886436462402344 39.31183624267578 -2.801048278808594 40.93731307983398 -2.981658935546875 C 41.04779815673828 -2.993934631347656 41.15845489501953 -3.000015258789063 41.26864624023438 -3.000015258789063 Z"/>
    </g>
    <g id="_12" data-name="12" class="cls-3" transform="translate(382.958 207.351) rotate(18)">
      <path class="cls-4" d="M 13.61269187927246 24.11617660522461 L 13.158522605896 24.11617660522461 C 11.97543239593506 24.11617660522461 10.66093254089355 23.23284721374512 8.763152122497559 21.16254615783691 C 8.115511894226074 20.45602989196777 7.53682279586792 19.75533866882324 7.143149375915527 19.262451171875 C 6.296711444854736 19.34414672851563 4.938210487365723 19.45027732849121 3.592932224273682 19.45027732849121 C 1.148512363433838 19.45027732849121 -0.2867076694965363 19.10513687133789 -1.060657620429993 18.33119583129883 L -1.499997615814209 17.8918571472168 L -1.499997615814209 17.27053642272949 C -1.499997615814209 16.66943550109863 -1.278127670288086 15.71104621887207 0.331452339887619 12.79368686676025 C 0.8078464865684509 11.93023300170898 1.27971625328064 11.12480163574219 1.601815223693848 10.58467388153076 C 1.362477660179138 10.02990245819092 1.024038910865784 9.21540355682373 0.6991123557090759 8.329246520996094 C -0.44384765625 5.212086200714111 -0.3933176696300507 4.023916244506836 -0.2216076701879501 3.337036371231079 L -0.08095766603946686 2.774426460266113 L 0.4015723466873169 2.452746391296387 C 0.895042359828949 2.123766422271729 1.554552316665649 1.970556378364563 2.477102279663086 1.970556378364563 C 4.248053073883057 1.970556378364563 6.913727283477783 2.556540250778198 8.231554985046387 2.874979972839355 C 8.699184417724609 2.464969396591187 9.393803596496582 1.867756843566895 10.15999221801758 1.248906373977661 C 12.78658199310303 -0.8725636005401611 13.86033248901367 -1.310413599014282 14.43951225280762 -1.45521354675293 L 15.26344203948975 -1.661203622817993 L 15.86398220062256 -1.06066358089447 C 16.38523292541504 -0.5394036173820496 17.05036163330078 0.4999063909053802 17.57139205932617 3.938726425170898 C 17.72078704833984 4.924746513366699 17.81942749023438 5.853081226348877 17.87762641906738 6.483944416046143 C 18.4177360534668 6.795081615447998 19.19960975646973 7.261866092681885 20.00440216064453 7.798386573791504 C 22.89222145080566 9.723596572875977 23.47506141662598 10.82053661346436 23.66020202636719 11.56109619140625 L 23.79477310180664 12.09940624237061 L 23.54662322998047 12.59570598602295 C 23.1984920501709 13.29196643829346 22.39452171325684 14.27986621856689 19.24128150939941 15.75138664245605 C 18.35455322265625 16.16519355773926 17.5068244934082 16.51144790649414 16.92057418823242 16.74029731750488 C 16.78098487854004 17.36289024353027 16.56540870666504 18.27036666870117 16.29870223999023 19.21866607666016 C 15.35355186462402 22.5792064666748 14.6308126449585 23.43741607666016 13.99058246612549 23.8642463684082 L 13.61269187927246 24.11617660522461 Z"/>
      <path class="cls-5" d="M 14.80332183837891 -3.814697265625e-06 C 13.158522605896 0.4112071990966797 8.635282516479492 4.523237228393555 8.635282516479492 4.523237228393555 C 8.635282516479492 4.523237228393555 4.687753677368164 3.470556259155273 2.477096557617188 3.470556259155273 C 1.924388885498047 3.470556259155273 1.480356216430664 3.536336898803711 1.233612060546875 3.700826644897461 C 0.8224220275878906 5.345645904541016 3.289642333984375 10.69128608703613 3.289642333984375 10.69128608703613 C 3.289642333984375 10.69128608703613 1.9073486328125e-06 16.03692626953125 1.9073486328125e-06 17.27053642272949 C 0.5286388397216797 17.79916763305664 2.039402008056641 17.95027542114258 3.592935562133789 17.95027542114258 C 5.664682388305664 17.95027542114258 7.812862396240234 17.68173599243164 7.812862396240234 17.68173599243164 C 7.812862396240234 17.68173599243164 11.51369190216064 22.61617660522461 13.158522605896 22.61617660522461 C 14.39212226867676 21.79376602172852 15.62572288513184 15.6257266998291 15.62572288513184 15.6257266998291 C 15.62572288513184 15.6257266998291 21.38257217407227 13.56970596313477 22.20498275756836 11.92488670349121 C 21.79378318786621 10.2800760269165 16.44811248779297 7.401656150817871 16.44811248779297 7.401656150817871 C 16.44811248779297 7.401656150817871 16.03692245483398 1.233606338500977 14.80332183837891 -3.814697265625e-06 M 14.80321884155273 -3.000064849853516 C 15.58914852142334 -3.000064849853516 16.3551025390625 -2.690864562988281 16.92465209960938 -2.121313095092773 C 17.95371246337891 -1.092243194580078 18.59067153930664 0.6529064178466797 19.05446243286133 3.714025497436523 C 19.15587997436523 4.38337516784668 19.23477172851563 5.027956008911133 19.2940845489502 5.577005386352539 C 19.75675392150879 5.854578018188477 20.29190444946289 6.187294006347656 20.8364429473877 6.550315856933594 C 23.45841217041016 8.298275947570801 24.73810195922852 9.688026428222656 25.11541175842285 11.19728660583496 C 25.28910255432129 11.89203643798828 25.20853233337402 12.62599658966064 24.88826179504395 13.266526222229 C 24.20033264160156 14.64239692687988 22.70122146606445 15.79204654693604 19.87560272216797 17.11066627502441 C 19.28190040588379 17.38772773742676 18.70419692993164 17.63595581054688 18.20489120483398 17.84127807617188 C 18.07759284973145 18.37264060974121 17.92118072509766 18.99007606506348 17.74267196655273 19.62477684020996 C 16.86066246032715 22.76086616516113 16.04195213317871 24.2994270324707 14.8226318359375 25.1123161315918 C 14.32983207702637 25.44085693359375 13.7508020401001 25.61617660522461 13.158522605896 25.61617660522461 C 11.49098205566406 25.61617660522461 9.897202491760254 24.61952590942383 7.657422065734863 22.1761360168457 C 7.226115226745605 21.70561981201172 6.823821067810059 21.23713684082031 6.482219696044922 20.82578468322754 C 5.655668258666992 20.89096260070801 4.621051788330078 20.95027542114258 3.592931747436523 20.95027542114258 C 0.67999267578125 20.95027542114258 -1.028938293457031 20.48421669006348 -2.121297836303711 19.39187622070313 C -2.683917999267578 18.82926559448242 -2.999998092651367 18.06619644165039 -2.999998092651367 17.27053642272949 C -2.999998092651367 16.31750679016113 -2.662397384643555 15.11494636535645 -0.9819068908691406 12.06906604766846 C -0.663421630859375 11.49181461334229 -0.3466854095458984 10.93959522247314 -0.07359695434570313 10.47225189208984 C -0.2707996368408203 9.994709968566895 -0.4930515289306641 9.43511962890625 -0.709197998046875 8.845626831054688 C -1.724327087402344 6.077085494995117 -2.013717651367188 4.320865631103516 -1.676816940307617 2.973245620727539 C -1.495817184448242 2.24920654296875 -1.051437377929688 1.618637084960938 -0.4304676055908203 1.204656600952148 C 0.3208026885986328 0.703826904296875 1.244701385498047 0.4705562591552734 2.477092742919922 0.4705562591552734 C 4.109308242797852 0.4705562591552734 6.335238456726074 0.9014930725097656 7.828766822814941 1.23914909362793 C 8.232589721679688 0.8930301666259766 8.70998477935791 0.4919052124023438 9.21749210357666 0.08199691772460938 C 12.02663230895996 -2.186923980712891 13.24974250793457 -2.703933715820313 14.07570266723633 -2.910423278808594 C 14.31662178039551 -2.97065544128418 14.5609073638916 -3.000064849853516 14.80321884155273 -3.000064849853516 Z"/>
    </g>
  </g>
</svg>
