<svg xmlns="http://www.w3.org/2000/svg" width="14.284" height="14.283" viewBox="0 0 14.284 14.283">
  <defs>
    <style>
      .cls-1 {
        fill: #f6ffa8;
        stroke-linecap: round;
        stroke-linejoin: round;
      }

      .cls-2, .cls-3 {
        stroke: none;
      }

      .cls-3 {
        fill: #fff;
      }
    </style>
  </defs>
  <g id="_13" data-name="13" class="cls-1" transform="translate(-174.36 -332.789)">
    <path class="cls-2" d="M 181.5017700195313 346.0725708007813 C 180.9907379150391 346.0725708007813 180.5510559082031 345.7322998046875 180.4238433837891 345.2419128417969 C 180.1988067626953 344.4092407226563 179.6637268066406 342.9877014160156 179.1104278564453 342.479736328125 C 178.2647399902344 341.7048645019531 177.6222076416016 341.2881469726563 176.26123046875 341.0185241699219 C 175.7384796142578 340.9173889160156 175.3599548339844 340.4591674804688 175.3599548339844 339.9256896972656 C 175.3599548339844 339.4058837890625 175.7299194335938 338.9481506347656 176.2396545410156 338.8373107910156 L 176.2489624023438 338.8352966308594 L 176.25830078125 338.8334655761719 C 177.6232147216797 338.5637512207031 178.2655181884766 338.1471862792969 179.1104888916016 337.37158203125 C 179.6644287109375 336.8630676269531 180.1996917724609 335.4410705566406 180.4243316650391 334.6093444824219 L 180.4244995117188 334.6087341308594 C 180.5519866943359 334.1252746582031 180.9927062988281 333.7889709472656 181.5017395019531 333.7889709472656 C 182.0064392089844 333.7889709472656 182.4490509033203 334.1240234375 182.5780792236328 334.6037292480469 L 182.5862579345703 334.6341857910156 L 182.5874176025391 334.6399230957031 C 182.7566375732422 335.2861938476563 183.3082885742188 336.8347778320313 183.89306640625 337.37158203125 C 184.7379913330078 338.1471862792969 185.3802795410156 338.5637512207031 186.7451782226563 338.8334655761719 L 186.7544403076172 338.8352966308594 L 186.763671875 338.8372802734375 C 187.2735137939453 338.9480590820313 187.6435546875 339.4058227539063 187.6435546875 339.9256896972656 C 187.6435546875 340.4586486816406 187.2658386230469 340.9164428710938 186.7438812255859 341.0182189941406 C 185.3799133300781 341.2878723144531 184.7377624511719 341.7044372558594 183.8930511474609 342.4797973632813 C 183.3028564453125 343.0206909179688 182.7606506347656 344.5484313964844 182.5855865478516 345.2186889648438 L 182.5844573974609 345.223876953125 L 182.5782012939453 345.2471618652344 C 182.44775390625 345.733154296875 182.0051116943359 346.0725708007813 181.5017700195313 346.0725708007813 Z"/>
    <path class="cls-3" d="M 181.5017700195313 345.0725708007813 C 181.5537261962891 345.0725708007813 181.5990295410156 345.0377197265625 181.6123962402344 344.9879150390625 C 181.617431640625 344.9647216796875 182.2243347167969 342.6527099609375 183.2168273925781 341.7431030273438 C 184.1606750488281 340.8767395019531 184.9721069335938 340.3489379882813 186.5513305664063 340.0369262695313 C 186.6049957275391 340.0269775390625 186.6435546875 339.9804382324219 186.6435546875 339.9256896972656 C 186.6435546875 339.8725891113281 186.6049957275391 339.8261413574219 186.5513305664063 339.8144836425781 C 184.9721069335938 339.50244140625 184.1606750488281 338.9746704101563 183.2168273925781 338.1082763671875 C 182.2259979248047 337.19873046875 181.617431640625 334.8883666992188 181.6123962402344 334.8634643554688 C 181.5990600585938 334.8138732910156 181.5503692626953 334.7889709472656 181.5017395019531 334.7889709472656 C 181.4526977539063 334.7889709472656 181.4037322998047 334.8142700195313 181.3910827636719 334.8651123046875 C 181.3844146728516 334.8883666992188 180.7775115966797 337.19873046875 179.7867126464844 338.1082763671875 C 178.8428344726563 338.9746704101563 178.0314025878906 339.50244140625 176.4521484375 339.8144836425781 C 176.3985290527344 339.8261413574219 176.3599548339844 339.8725891113281 176.3599548339844 339.9256896972656 C 176.3599548339844 339.9804382324219 176.3985290527344 340.0269775390625 176.4521484375 340.0369262695313 C 178.0297546386719 340.3489379882813 178.8411712646484 340.8767395019531 179.7867126464844 341.7431030273438 C 180.7775115966797 342.6527099609375 181.3844146728516 344.9647216796875 181.3910827636719 344.9879150390625 C 181.40283203125 345.0377197265625 181.4497985839844 345.0725708007813 181.5017700195313 345.0725708007813 M 181.5017700195313 347.0725708007813 C 180.533935546875 347.0725708007813 179.7006683349609 346.4278869628906 179.4572601318359 345.498291015625 C 179.19921875 344.5456848144531 178.7217712402344 343.4804382324219 178.4341583251953 343.2164001464844 C 177.7008972167969 342.5445556640625 177.2090911865234 342.2261047363281 176.0696868896484 342.0000305175781 C 175.0779113769531 341.8074035644531 174.3599548339844 340.9378662109375 174.3599548339844 339.9256896972656 C 174.3599548339844 338.9389038085938 175.0611114501953 338.0702209472656 176.0271606445313 337.8601379394531 C 176.0395812988281 337.8574523925781 176.052001953125 337.8548583984375 176.0644683837891 337.8524169921875 C 177.2092895507813 337.626220703125 177.7006988525391 337.3082275390625 178.4342651367188 336.6348876953125 C 178.7225952148438 336.3702087402344 179.2012634277344 335.3023071289063 179.4587249755859 334.3493347167969 C 179.7034606933594 333.4288330078125 180.5386199951172 332.7889709472656 181.5017395019531 332.7889709472656 C 182.4577941894531 332.7889709472656 183.2975158691406 333.4284362792969 183.5437622070313 334.3440246582031 C 183.5465698242188 334.3544311523438 183.5492858886719 334.3648986816406 183.5519104003906 334.3753356933594 C 183.7610473632813 335.1689147949219 184.2602844238281 336.3512573242188 184.5693054199219 336.6349182128906 C 185.3028106689453 337.3082275390625 185.7942047119141 337.626220703125 186.9390106201172 337.8524169921875 C 186.9513702392578 337.8548583984375 186.9636993408203 337.857421875 186.9760131835938 337.860107421875 C 187.9422607421875 338.0700378417969 188.6435546875 338.9387512207031 188.6435546875 339.9256896972656 C 188.6435546875 340.9377746582031 187.9259185791016 341.8070983886719 186.9343414306641 341.9999084472656 C 185.7928771972656 342.2260437011719 185.3018493652344 342.5440673828125 184.5692596435547 343.2164916992188 C 184.2548980712891 343.504638671875 183.7648010253906 344.6680297851563 183.5509185791016 345.4800109863281 C 183.5486755371094 345.4888305664063 183.5463714599609 345.4976196289063 183.5440216064453 345.5064086914063 C 183.2964935302734 346.4285278320313 182.4566955566406 347.0725708007813 181.5017700195313 347.0725708007813 Z"/>
  </g>
</svg>
