<svg xmlns="http://www.w3.org/2000/svg" width="28" height="28" viewBox="0 0 28 28">
  <defs>
    <style>
      .cls-1 {
        fill: #fff20e;
        stroke-linecap: round;
        stroke-linejoin: round;
      }

      .cls-2, .cls-3 {
        stroke: none;
      }

      .cls-3 {
        fill: #fff;
      }
    </style>
  </defs>
  <g id="_2" data-name="2" class="cls-1" transform="translate(-174.36 -332.789)">
    <path class="cls-2" d="M 188.3600158691406 359.7890625 C 187.7770080566406 359.7890625 187.2759246826172 359.4011840820313 187.1337738037109 358.8429870605469 L 187.1330261230469 358.8402709960938 C 186.6109161376953 356.906494140625 185.2963409423828 353.2381896972656 183.6811370849609 351.7553100585938 C 181.5645599365234 349.8160400390625 179.8540191650391 348.7051086425781 176.3840026855469 348.018310546875 C 175.7900543212891 347.9039001464844 175.3599548339844 347.3833923339844 175.3599548339844 346.7771606445313 C 175.3599548339844 346.1866760253906 175.7817993164063 345.6665344238281 176.3630218505859 345.5403747558594 L 176.3721466064453 345.5384216308594 L 176.3812866210938 345.5365905761719 C 179.8585968017578 344.8495178222656 181.5678558349609 343.7388305664063 183.6811981201172 341.7989501953125 C 185.2968444824219 340.3157958984375 186.6112060546875 336.64990234375 187.1331176757813 334.7176208496094 L 187.1345062255859 334.7125854492188 C 187.2761993408203 334.1680603027344 187.7781829833984 333.7889404296875 188.3599548339844 333.7889404296875 C 188.9448547363281 333.7889404296875 189.4367218017578 334.15625 189.5838928222656 334.7029418945313 L 189.5921936035156 334.7337951660156 L 189.5940856933594 334.7431640625 C 189.8732299804688 335.8424682617188 191.2440338134766 340.1513671875 193.0388641357422 341.7989807128906 C 195.1521148681641 343.7388000488281 196.8613433837891 344.8495178222656 200.3386535644531 345.5365905761719 L 200.3477783203125 345.5383911132813 L 200.3568725585938 345.5403747558594 C 200.9381561279297 345.66650390625 201.3600463867188 346.1866455078125 201.3600463867188 346.7771606445313 C 201.3600463867188 347.3840637207031 200.9289093017578 347.9050903320313 200.3338775634766 348.0187072753906 C 196.8597869873047 348.7057800292969 195.1513824462891 349.8162841796875 193.038818359375 351.75537109375 C 192.2113952636719 352.5137329101563 191.3628234863281 353.9391479492188 190.5843353271484 355.8780822753906 C 189.9720916748047 357.4029541015625 189.6246337890625 358.6963806152344 189.5917510986328 358.8209838867188 L 189.5903778076172 358.8273315429688 L 189.5838775634766 358.8514709472656 C 189.4352264404297 359.4035034179688 188.9319763183594 359.7890625 188.3600158691406 359.7890625 Z"/>
    <path class="cls-3" d="M 188.3600158691406 358.7890625 C 188.4812927246094 358.7890625 188.5869750976563 358.7077026367188 188.6182556152344 358.5914916992188 C 188.6299743652344 358.537353515625 190.0463256835938 353.1415405273438 192.3626098632813 351.0186767578125 C 194.5653991699219 348.9967651367188 196.4591369628906 347.7649536132813 200.1448059082031 347.0367431640625 C 200.27001953125 347.0135498046875 200.3600463867188 346.9049682617188 200.3600463867188 346.7771606445313 C 200.3600463867188 346.6531982421875 200.27001953125 346.5447998046875 200.1448059082031 346.5176391601563 C 196.4591369628906 345.7893676757813 194.5653991699219 344.5576782226563 192.3626098632813 342.53564453125 C 190.0502624511719 340.4129638671875 188.6299743652344 335.0209350585938 188.6182556152344 334.962890625 C 188.5870971679688 334.8471069335938 188.4734497070313 334.7889709472656 188.3599548339844 334.7889709472656 C 188.2454986572266 334.7889709472656 188.1312103271484 334.8480529785156 188.1016845703125 334.9667358398438 C 188.0861206054688 335.0209350585938 186.6697387695313 340.4129638671875 184.357421875 342.53564453125 C 182.1545715332031 344.5576782226563 180.2608337402344 345.7893676757813 176.5751342773438 346.5176391601563 C 176.449951171875 346.5447998046875 176.3599548339844 346.6531982421875 176.3599548339844 346.7771606445313 C 176.3599548339844 346.9049682617188 176.449951171875 347.0135498046875 176.5751342773438 347.0367431640625 C 180.2569885253906 347.7649536132813 182.1506652832031 348.9967651367188 184.357421875 351.0186767578125 C 186.6697387695313 353.1415405273438 188.0861206054688 358.537353515625 188.1016845703125 358.5914916992188 C 188.129150390625 358.7077026367188 188.2387084960938 358.7890625 188.3600158691406 358.7890625 M 188.3600158691406 360.7890625 C 187.3199310302734 360.7890625 186.4249572753906 360.0962829589844 186.1669006347656 359.0983581542969 C 185.7062835693359 357.3934020996094 184.4537200927734 353.8221130371094 183.0048522949219 352.491943359375 C 181.0267181396484 350.6795349121094 179.4290161132813 349.6408996582031 176.1936340332031 349.0000305175781 C 175.1300811767578 348.7945556640625 174.3599548339844 347.8625183105469 174.3599548339844 346.7771606445313 C 174.3599548339844 345.7195129394531 175.1131591796875 344.7883911132813 176.1509094238281 344.5631408691406 C 176.1630554199219 344.5605163574219 176.1752471923828 344.5579833984375 176.1874389648438 344.5555725097656 C 179.4318542480469 343.9144897460938 181.0288391113281 342.8761596679688 183.0049743652344 341.062255859375 C 184.4549713134766 339.7311706542969 185.7078247070313 336.1594848632813 186.1676940917969 334.4568786621094 C 186.1681823730469 334.4551086425781 186.1686553955078 334.453369140625 186.1690979003906 334.4516906738281 C 186.4286651611328 333.4710388183594 187.3247528076172 332.7889404296875 188.3599548339844 332.7889404296875 C 189.3869781494141 332.7889404296875 190.2873382568359 333.4691162109375 190.5495147705078 334.4430236816406 C 190.5533294677734 334.4571838378906 190.5569915771484 334.4714050292969 190.5604858398438 334.4856567382813 C 190.5842132568359 334.5751342773438 190.9298858642578 335.8604736328125 191.5309753417969 337.3477172851563 C 192.2393646240234 339.1004638671875 193.0150451660156 340.4196472167969 193.7151031494141 341.0622863769531 C 195.6911468505859 342.8761596679688 197.2880859375 343.9144897460938 200.5325012207031 344.5555725097656 C 200.544677734375 344.5579833984375 200.5568084716797 344.5604858398438 200.5689239501953 344.5631103515625 C 201.6067810058594 344.788330078125 202.3600463867188 345.7194519042969 202.3600463867188 346.7771606445313 C 202.3600463867188 347.8627014160156 201.5897521972656 348.7948303222656 200.5259094238281 349.0001220703125 C 197.2861022949219 349.6412048339844 195.6899566650391 350.6793518066406 193.7150421142578 352.4920959472656 C 192.2704467773438 353.8160705566406 190.9668579101563 357.4926147460938 190.5595855712891 359.0723876953125 C 190.5563507080078 359.08544921875 190.552978515625 359.0984802246094 190.5494842529297 359.1114807128906 C 190.2835235595703 360.0992126464844 189.3831939697266 360.7890625 188.3600158691406 360.7890625 Z"/>
  </g>
</svg>
