<svg xmlns="http://www.w3.org/2000/svg" width="286.6" height="180.8" viewBox="0 0 286.6 180.8">
  <defs>
    <style>
      .cls-1 {
        fill: #ffa764;
      }

      .cls-1, .cls-2, .cls-3, .cls-4, .cls-5, .cls-6, .cls-7 {
        stroke: #fff;
        stroke-linejoin: round;
        stroke-width: 2px;
      }

      .cls-2 {
        fill: #ff4795;
      }

      .cls-3 {
        fill: #b9ff7d;
      }

      .cls-4 {
        fill: #40c7ff;
      }

      .cls-5, .cls-7 {
        fill: #fff20e;
      }

      .cls-6 {
        fill: #ff61a4;
      }

      .cls-7 {
        opacity: 0.7;
      }

      .cls-8 {
        stroke: none;
      }

      .cls-9 {
        fill: none;
      }
    </style>
  </defs>
  <g id="丸" transform="translate(15 -29)">
    <g id="_14" data-name="14" class="cls-1" transform="translate(78 155)">
      <circle class="cls-8" cx="5.3" cy="5.3" r="5.3"/>
      <circle class="cls-9" cx="5.3" cy="5.3" r="6.3"/>
    </g>
    <g id="_16" data-name="16" class="cls-2" transform="translate(63 183)">
      <circle class="cls-8" cx="8.8" cy="8.8" r="8.8"/>
      <circle class="cls-9" cx="8.8" cy="8.8" r="9.8"/>
    </g>
    <g id="_13" data-name="13" class="cls-3" transform="translate(38 166)">
      <circle class="cls-8" cx="8.8" cy="8.8" r="8.8"/>
      <circle class="cls-9" cx="8.8" cy="8.8" r="9.8"/>
    </g>
    <g id="_12" data-name="12" class="cls-4" transform="translate(-13 152)">
      <circle class="cls-8" cx="12" cy="12" r="12"/>
      <circle class="cls-9" cx="12" cy="12" r="13"/>
    </g>
    <g id="_17" data-name="17" class="cls-3" transform="translate(178 156)">
      <circle class="cls-8" cx="4.4" cy="4.4" r="4.4"/>
      <circle class="cls-9" cx="4.4" cy="4.4" r="5.4"/>
    </g>
    <g id="_21" data-name="21" class="cls-5" transform="translate(236.5 175)">
      <circle class="cls-8" cx="15" cy="15" r="15"/>
      <circle class="cls-9" cx="15" cy="15" r="16"/>
    </g>
    <g id="_19" data-name="19" class="cls-4" transform="translate(214.4 164)">
      <circle class="cls-8" cx="7.3" cy="7.3" r="7.3"/>
      <circle class="cls-9" cx="7.3" cy="7.3" r="8.3"/>
    </g>
    <g id="_11" data-name="11" class="cls-3" transform="translate(264 35)">
      <circle class="cls-8" cx="2.8" cy="2.8" r="2.8"/>
      <circle class="cls-9" cx="2.8" cy="2.8" r="3.8"/>
    </g>
    <g id="_18" data-name="18" class="cls-1" transform="translate(186.5 175)">
      <circle class="cls-8" cx="5.7" cy="5.7" r="5.7"/>
      <circle class="cls-9" cx="5.7" cy="5.7" r="6.7"/>
    </g>
    <g id="_20" data-name="20" class="cls-6" transform="translate(257 148.5)">
      <circle class="cls-8" cx="3.3" cy="3.3" r="3.3"/>
      <circle class="cls-9" cx="3.3" cy="3.3" r="4.3"/>
    </g>
    <g id="_2" data-name="2" class="cls-2" transform="translate(15 54)">
      <circle class="cls-8" cx="12.3" cy="12.3" r="12.3"/>
      <circle class="cls-9" cx="12.3" cy="12.3" r="13.3"/>
    </g>
    <g id="_4" data-name="4" class="cls-3" transform="translate(50.5 74.5)">
      <circle class="cls-8" cx="6.3" cy="6.3" r="6.3"/>
      <circle class="cls-9" cx="6.3" cy="6.3" r="7.3"/>
    </g>
    <g id="_5" data-name="5" class="cls-4" transform="translate(66.5 66.5)">
      <circle class="cls-8" cx="3" cy="3" r="3"/>
      <circle class="cls-9" cx="3" cy="3" r="4"/>
    </g>
    <g id="_6" data-name="6" class="cls-6" transform="translate(95 47.5)">
      <circle class="cls-8" cx="6.4" cy="6.4" r="6.4"/>
      <circle class="cls-9" cx="6.4" cy="6.4" r="7.4"/>
    </g>
    <g id="_7" data-name="7" class="cls-7" transform="translate(166 79)">
      <circle class="cls-8" cx="4.3" cy="4.3" r="4.3"/>
      <circle class="cls-9" cx="4.3" cy="4.3" r="5.3"/>
    </g>
    <g id="_8" data-name="8" class="cls-4" transform="translate(204 63)">
      <circle class="cls-8" cx="6.9" cy="6.9" r="6.9"/>
      <circle class="cls-9" cx="6.9" cy="6.9" r="7.9"/>
    </g>
    <g id="_9" data-name="9" class="cls-1" transform="translate(219.9 37.9)">
      <circle class="cls-8" cx="4.3" cy="4.3" r="4.3"/>
      <circle class="cls-9" cx="4.3" cy="4.3" r="5.3"/>
    </g>
    <g id="_10" data-name="10" class="cls-2" transform="translate(228.7 57.5)">
      <circle class="cls-8" cx="10.8" cy="10.8" r="10.8"/>
      <circle class="cls-9" cx="10.8" cy="10.8" r="11.8"/>
    </g>
    <g id="_3" data-name="3" class="cls-5" transform="translate(62.5 31)">
      <circle class="cls-8" cx="7.3" cy="7.3" r="7.3"/>
      <circle class="cls-9" cx="7.3" cy="7.3" r="8.3"/>
    </g>
    <g id="_1" data-name="1" class="cls-1" transform="translate(-4 62.5)">
      <circle class="cls-8" cx="3.5" cy="3.5" r="3.5"/>
      <circle class="cls-9" cx="3.5" cy="3.5" r="4.5"/>
    </g>
    <g id="_15" data-name="15" class="cls-5" transform="translate(7.4 193.2)">
      <circle class="cls-8" cx="7.3" cy="7.3" r="7.3"/>
      <circle class="cls-9" cx="7.3" cy="7.3" r="8.3"/>
    </g>
  </g>
</svg>
