<svg xmlns="http://www.w3.org/2000/svg" width="16.284" height="16.283" viewBox="0 0 16.284 16.283">
  <defs>
    <style>
      .cls-1 {
        fill: #f6ffa8;
        stroke-linecap: round;
        stroke-linejoin: round;
      }

      .cls-2, .cls-3 {
        stroke: none;
      }

      .cls-3 {
        fill: #fff;
      }
    </style>
  </defs>
  <g id="_1" data-name="1" class="cls-1" transform="translate(-174.36 -332.789)">
    <path class="cls-2" d="M 182.5017700195313 348.0725708007813 C 181.9803771972656 348.0725708007813 181.5317230224609 347.7254333496094 181.4022521972656 347.2252807617188 C 181.1659088134766 346.3505249023438 180.5223541259766 344.5166015625 179.7769012451172 343.8322143554688 C 178.7610321044922 342.9014282226563 177.9406585693359 342.3681640625 176.2786407470703 342.0390625 C 175.7457275390625 341.935791015625 175.3599700927734 341.4686584472656 175.3599700927734 340.9247131347656 C 175.3599700927734 340.3944396972656 175.7376251220703 339.9276123046875 176.2579345703125 339.8146362304688 L 176.2670745849609 339.8126525878906 L 176.2762603759766 339.8108215332031 C 177.9422912597656 339.4816589355469 178.7622985839844 338.9485168457031 179.7769622802734 338.0171508789063 C 180.5228271484375 337.3324584960938 181.1664123535156 335.4990234375 181.4025115966797 334.625244140625 L 181.4029693603516 334.6235656738281 C 181.5326538085938 334.1313781738281 181.9822082519531 333.7889709472656 182.5017242431641 333.7889709472656 C 183.0167541503906 333.7889709472656 183.4681854248047 334.1299438476563 183.5995635986328 334.6181335449219 L 183.6078033447266 334.6487121582031 L 183.6091461181641 334.6553039550781 C 183.8209991455078 335.4718322753906 184.48486328125 337.3362731933594 185.2265930175781 338.0171813964844 C 186.2412109375 338.9485168457031 187.0611877441406 339.4816589355469 188.7272186279297 339.8108520507813 L 188.7363891601563 339.8126525878906 L 188.7455139160156 339.8146362304688 C 189.265869140625 339.9275817871094 189.6435546875 340.3944396972656 189.6435546875 340.9247131347656 C 189.6435546875 341.4688110351563 189.2575073242188 341.9360656738281 188.7243499755859 342.0391540527344 C 187.0602416992188 342.3683776855469 186.24072265625 342.9013977050781 185.2265625 343.832275390625 C 184.4862823486328 344.5107421875 183.8192901611328 346.3849792480469 183.6073150634766 347.2013854980469 L 183.6059875488281 347.2075500488281 L 183.5995635986328 347.2313842773438 C 183.4662475585938 347.7266540527344 183.0148162841797 348.0725708007813 182.5017700195313 348.0725708007813 Z"/>
    <path class="cls-3" d="M 182.5017700195313 347.0725708007813 C 182.5638275146484 347.0725708007813 182.617919921875 347.0309448242188 182.6339263916016 346.9714660644531 C 182.6399383544922 346.9437561035156 183.3648376464844 344.1820983886719 184.5503540039063 343.0955810546875 C 185.6777648925781 342.0607299804688 186.6470031738281 341.4302673339844 188.5333862304688 341.0575561523438 C 188.5974731445313 341.0456848144531 188.6435546875 340.9901123046875 188.6435546875 340.9247131347656 C 188.6435546875 340.8612670898438 188.5974731445313 340.8057861328125 188.5333862304688 340.7918701171875 C 186.6470031738281 340.4191589355469 185.6777648925781 339.7887573242188 184.5503540039063 338.7538452148438 C 183.3668518066406 337.6674194335938 182.6399383544922 334.90771484375 182.6339263916016 334.8779907226563 C 182.6179809570313 334.8187255859375 182.5598297119141 334.7889709472656 182.5017395019531 334.7889709472656 C 182.4431610107422 334.7889709472656 182.3846588134766 334.8192138671875 182.3695526123047 334.8799743652344 C 182.361572265625 334.90771484375 181.6366577148438 337.6674194335938 180.4531860351563 338.7538452148438 C 179.3257293701172 339.7887573242188 178.3564910888672 340.4191589355469 176.4700927734375 340.7918701171875 C 176.4060211181641 340.8057861328125 176.3599700927734 340.8612670898438 176.3599700927734 340.9247131347656 C 176.3599700927734 340.9901123046875 176.4060211181641 341.0456848144531 176.4700927734375 341.0575561523438 C 178.3545227050781 341.4302673339844 179.32373046875 342.0607299804688 180.4531860351563 343.0955810546875 C 181.6366577148438 344.1820983886719 182.361572265625 346.9437561035156 182.3695526123047 346.9714660644531 C 182.3836059570313 347.0309448242188 182.4396820068359 347.0725708007813 182.5017700195313 347.0725708007813 M 182.5017700195313 349.0725708007813 C 181.5232238769531 349.0725708007813 180.6806488037109 348.4205322265625 180.4353790283203 347.4805297851563 C 180.1001739501953 346.2425537109375 179.5019836425781 344.9373474121094 179.1006164550781 344.56884765625 C 178.1857299804688 343.7306213378906 177.5325622558594 343.3072204589844 176.0879669189453 343.0207214355469 C 175.0855712890625 342.8263244628906 174.3599700927734 341.9477233886719 174.3599700927734 340.9247131347656 C 174.3599700927734 339.9273071289063 175.0689544677734 339.0494689941406 176.0457611083984 338.83740234375 C 176.0579528808594 338.8347473144531 176.0701751708984 338.8322143554688 176.0824279785156 338.8298034667969 C 177.5329895019531 338.543212890625 178.1858825683594 338.1202087402344 179.1007385253906 337.2804565429688 C 179.5028686523438 336.9112854003906 180.1023254394531 335.6033325195313 180.4370574951172 334.3646850585938 C 180.6838073730469 333.4351501464844 181.5279693603516 332.7889709472656 182.5017242431641 332.7889709472656 C 183.4679870605469 332.7889709472656 184.3165130615234 333.4342651367188 184.5652008056641 334.3581848144531 C 184.5682830810547 334.36962890625 184.5712585449219 334.381103515625 184.5741424560547 334.3926086425781 C 184.8150329589844 335.3119201660156 185.4353942871094 336.8513793945313 185.9028472900391 337.2804870605469 C 186.817626953125 338.1202087402344 187.4705047607422 338.543212890625 188.9210510253906 338.8298034667969 C 188.9332733154297 338.8322143554688 188.9454803466797 338.8347473144531 188.9576568603516 338.83740234375 C 189.9345245361328 339.0494384765625 190.6435546875 339.9272766113281 190.6435546875 340.9247131347656 C 190.6435546875 341.9476928710938 189.9180603027344 342.8262329101563 188.9156951904297 343.0206909179688 C 187.4689483642578 343.3072509765625 186.8165588378906 343.730224609375 185.9027862548828 344.5690002441406 C 185.4174194335938 345.0138244628906 184.8096923828125 346.5586242675781 184.5731658935547 347.4607238769531 C 184.5705871582031 347.470947265625 184.5679321289063 347.4811096191406 184.565185546875 347.4913024902344 C 184.3145904541016 348.4223327636719 183.4660797119141 349.0725708007813 182.5017700195313 349.0725708007813 Z"/>
  </g>
</svg>
