<svg xmlns="http://www.w3.org/2000/svg" width="15" height="15" viewBox="0 0 15 15">
  <defs>
    <style>
      .cls-1 {
        fill: #fff20e;
        stroke-linecap: round;
        stroke-linejoin: round;
      }

      .cls-2, .cls-3 {
        stroke: none;
      }

      .cls-3 {
        fill: #fff;
      }
    </style>
  </defs>
  <g id="_5" data-name="5" class="cls-1" transform="translate(-174.36 -332.789)">
    <path class="cls-2" d="M 181.8600158691406 346.7890625 C 181.3451843261719 346.7890625 180.9021606445313 346.4460754394531 180.7742462158203 345.9519958496094 C 180.5650634765625 345.1783142089844 179.9987487792969 343.5606079101563 179.3491821289063 342.9642333984375 C 178.4346923828125 342.1263732910156 177.7398071289063 341.67578125 176.2676086425781 341.3841857910156 C 175.7411651611328 341.2822875976563 175.3599395751953 340.8207397460938 175.3599395751953 340.2835693359375 C 175.3599395751953 339.7593383789063 175.7332153320313 339.2982482910156 176.2474975585938 339.1871948242188 L 176.2560882568359 339.1853332519531 L 176.2647094726563 339.1836547851563 C 177.7409973144531 338.8919372558594 178.4356079101563 338.4414672851563 179.3492584228516 337.6028442382813 C 179.9524993896484 337.049072265625 180.5322570800781 335.5126342773438 180.7747497558594 334.6150207519531 L 180.7749481201172 334.6143493652344 C 180.9031372070313 334.1275939941406 181.3470916748047 333.7889404296875 181.8599853515625 333.7889404296875 C 182.3683013916016 333.7889404296875 182.8140563964844 334.1260375976563 182.9440002441406 334.6087036132813 L 182.9524078369141 334.639892578125 L 182.9536437988281 334.6460876464844 C 183.1421356201172 335.3692932128906 183.7259521484375 337.0109252929688 184.3707733154297 337.6028747558594 C 185.2843780517578 338.4414672851563 185.9789733886719 338.8919372558594 187.4552459716797 339.1836547851563 L 187.4638366699219 339.1853332519531 L 187.4723968505859 339.1871948242188 C 187.9867401123047 339.2982177734375 188.3600616455078 339.7593078613281 188.3600616455078 340.2835693359375 C 188.3600616455078 340.8205261230469 187.9791259765625 341.2819519042969 187.4529724121094 341.3840637207031 C 185.9782257080078 341.6757202148438 185.2839508056641 342.1260986328125 184.3707275390625 342.9643249511719 C 183.7267608642578 343.5545349121094 183.1400756835938 345.2057189941406 182.9517974853516 345.9283752441406 L 182.9505462646484 345.9341735839844 L 182.9439849853516 345.95849609375 C 182.8123016357422 346.447509765625 182.3665618896484 346.7890625 181.8600158691406 346.7890625 Z"/>
    <path class="cls-3" d="M 181.8600158691406 345.7890625 C 181.9156036376953 345.7890625 181.9640350341797 345.7517700195313 181.9783782958984 345.698486328125 C 181.9837341308594 345.6737060546875 182.6329040527344 343.2006225585938 183.6945343017578 342.2276000976563 C 184.7041625976563 341.3009033203125 185.5721435546875 340.736328125 187.2613983154297 340.402587890625 C 187.3188018798828 340.3919067382813 187.3600616455078 340.3421630859375 187.3600616455078 340.2835693359375 C 187.3600616455078 340.2267456054688 187.3188018798828 340.1770629882813 187.2613983154297 340.1646728515625 C 185.5721435546875 339.8308715820313 184.7041625976563 339.2662963867188 183.6945343017578 338.3395385742188 C 182.6347045898438 337.3666381835938 181.9837341308594 334.895263671875 181.9783782958984 334.86865234375 C 181.9640960693359 334.8155822753906 181.9120025634766 334.7889404296875 181.8599853515625 334.7889404296875 C 181.8075256347656 334.7889404296875 181.7551422119141 334.8160400390625 181.7416076660156 334.8704223632813 C 181.7344665527344 334.895263671875 181.0852966308594 337.3666381835938 180.0254821777344 338.3395385742188 C 179.0158233642578 339.2662963867188 178.1478424072266 339.8308715820313 176.4585571289063 340.1646728515625 C 176.4011840820313 340.1770629882813 176.3599395751953 340.2267456054688 176.3599395751953 340.2835693359375 C 176.3599395751953 340.3421630859375 176.4011840820313 340.3919067382813 176.4585571289063 340.402587890625 C 178.1461029052734 340.736328125 179.0140380859375 341.3009033203125 180.0254821777344 342.2276000976563 C 181.0852966308594 343.2006225585938 181.7344665527344 345.6737060546875 181.7416076660156 345.698486328125 C 181.7541961669922 345.7517700195313 181.8044128417969 345.7890625 181.8600158691406 345.7890625 M 181.8600158691406 347.7890625 C 180.8880767822266 347.7890625 180.0512084960938 347.141357421875 179.8074188232422 346.2075500488281 C 179.5207672119141 345.1497192382813 179.0018920898438 344.0029296875 178.6728820800781 343.7008666992188 C 177.8675537109375 342.9629821777344 177.3276214599609 342.6136169433594 176.0738677978516 342.365234375 C 175.0795745849609 342.1710205078125 174.3599395751953 341.2986145019531 174.3599395751953 340.2835693359375 C 174.3599395751953 339.2916564941406 175.0650177001953 338.4194946289063 176.0364379882813 338.2097473144531 C 176.0478973388672 338.2072448730469 176.0593566894531 338.2048950195313 176.0708618164063 338.2026062011719 C 177.3284759521484 337.9541015625 177.8679809570313 337.6051025390625 178.6730499267578 336.8661193847656 C 179.0028533935547 336.5633850097656 179.5231018066406 335.4134521484375 179.8091735839844 334.3549194335938 C 180.0545959472656 333.4311218261719 180.8930358886719 332.7889404296875 181.8599853515625 332.7889404296875 C 182.8194427490234 332.7889404296875 183.6622619628906 333.4302673339844 183.9095764160156 334.3485412597656 C 183.9125671386719 334.3597106933594 183.9154815673828 334.3708801269531 183.9182891845703 334.382080078125 C 184.1506805419922 335.26611328125 184.6931762695313 336.5413513183594 185.0470275878906 336.8661804199219 C 185.8520050048828 337.6051025390625 186.3914947509766 337.9541015625 187.6491088867188 338.2026062011719 C 187.6605529785156 338.2048645019531 187.6719818115234 338.2072448730469 187.6833953857422 338.209716796875 C 188.6549224853516 338.4194030761719 189.3600616455078 339.2915954589844 189.3600616455078 340.2835693359375 C 189.3600616455078 341.2991333007813 188.6397705078125 342.1718444824219 187.6447143554688 342.3655090332031 C 186.3902893066406 342.6138916015625 185.85107421875 342.9629516601563 185.0469360351563 343.7010192871094 C 184.6873474121094 344.0306091308594 184.1551208496094 345.2843627929688 183.9173431396484 346.1888122558594 C 183.9148406982422 346.19873046875 183.9122467041016 346.2086486816406 183.9095916748047 346.2185363769531 C 183.6605834960938 347.1432189941406 182.8177642822266 347.7890625 181.8600158691406 347.7890625 Z"/>
  </g>
</svg>
