<svg xmlns="http://www.w3.org/2000/svg" width="22" height="22" viewBox="0 0 22 22">
  <defs>
    <style>
      .cls-1 {
        fill: #f6ffa8;
        stroke-linecap: round;
        stroke-linejoin: round;
      }

      .cls-2, .cls-3 {
        stroke: none;
      }

      .cls-3 {
        fill: #fff;
      }
    </style>
  </defs>
  <g id="_14" data-name="14" class="cls-1" transform="translate(-174.36 -332.789)">
    <path class="cls-2" d="M 185.3599395751953 353.7888488769531 C 184.8085479736328 353.7888488769531 184.3344116210938 353.4219360351563 184.1986541748047 352.8936462402344 L 184.1983184814453 352.8924255371094 C 183.8137359619141 351.4680786132813 182.8508911132813 348.7711791992188 181.6817016601563 347.69775390625 C 180.1290283203125 346.275146484375 178.8745727539063 345.4600830078125 176.3310546875 344.9564208984375 C 175.7678375244141 344.84814453125 175.3599548339844 344.3547668457031 175.3599548339844 343.780029296875 C 175.3599548339844 343.2204895019531 175.7590942382813 342.7276611328125 176.3090362548828 342.6081848144531 L 176.3182373046875 342.6061706542969 L 176.3274688720703 342.6043701171875 C 178.8771820068359 342.1005554199219 180.1310577392578 341.28564453125 181.6817626953125 339.8622436523438 C 182.8514862060547 338.7884216308594 183.8140563964844 336.0933837890625 184.1984100341797 334.6702270507813 L 184.19921875 334.6672973632813 C 184.3346710205078 334.1494140625 184.8098602294922 333.7889709472656 185.35986328125 333.7889709472656 C 185.9045562744141 333.7889709472656 186.3813018798828 334.1469421386719 186.5192260742188 334.6595458984375 L 186.5274353027344 334.6900634765625 L 186.529052734375 334.6980895996094 C 186.7393951416016 335.5167541503906 187.7485198974609 338.6784362792969 189.0381164550781 339.8622741699219 C 190.5887756347656 341.28564453125 191.8426055908203 342.1005554199219 194.3922882080078 342.6043701171875 L 194.4014587402344 342.6061706542969 L 194.4105987548828 342.608154296875 C 194.9606323242188 342.7275695800781 195.35986328125 343.2203979492188 195.35986328125 343.780029296875 C 195.35986328125 344.3546752929688 194.9521179199219 344.8479614257813 194.3890228271484 344.9563598632813 C 191.8416442871094 345.460205078125 190.5881805419922 346.2750244140625 189.0380706787109 347.6978149414063 C 187.7736358642578 348.856689453125 186.7810974121094 351.8812255859375 186.5271911621094 352.8694763183594 L 186.5256042480469 352.8767395019531 L 186.5193023681641 352.9001770019531 C 186.3787231445313 353.4234313964844 185.9019622802734 353.7888488769531 185.3599395751953 353.7888488769531 Z"/>
    <path class="cls-3" d="M 185.3599395751953 352.7888488769531 C 185.4508666992188 352.7888488769531 185.5301513671875 352.7278442382813 185.5535736083984 352.6406860351563 C 185.5623931884766 352.60009765625 186.6246490478516 348.5532836914063 188.3618621826172 346.9611206054688 C 190.0139465332031 345.4447021484375 191.4342193603516 344.5208740234375 194.1984405517578 343.9747009277344 C 194.2923583984375 343.9573364257813 194.35986328125 343.8758544921875 194.35986328125 343.780029296875 C 194.35986328125 343.6870727539063 194.2923583984375 343.6057739257813 194.1984405517578 343.5853881835938 C 191.4342193603516 343.0391845703125 190.0139465332031 342.1154174804688 188.3618621826172 340.5989379882813 C 186.6275787353516 339.0068969726563 185.5623931884766 334.9629516601563 185.5535736083984 334.9193725585938 C 185.5302124023438 334.8325500488281 185.4449920654297 334.7889404296875 185.35986328125 334.7889404296875 C 185.2740478515625 334.7889404296875 185.1883087158203 334.8332824707031 185.1661834716797 334.9222717285156 C 185.1545104980469 334.9629516601563 184.0922241210938 339.0068969726563 182.3579864501953 340.5989379882813 C 180.7058715820313 342.1154174804688 179.2855682373047 343.0391845703125 176.5213165283203 343.5853881835938 C 176.4274597167969 343.6057739257813 176.3599548339844 343.6870727539063 176.3599548339844 343.780029296875 C 176.3599548339844 343.8758544921875 176.4274597167969 343.9573364257813 176.5213165283203 343.9747009277344 C 179.2826995849609 344.5208740234375 180.7029418945313 345.4447021484375 182.3579864501953 346.9611206054688 C 184.0922241210938 348.5532836914063 185.1545104980469 352.60009765625 185.1661834716797 352.6406860351563 C 185.186767578125 352.7278442382813 185.2689514160156 352.7888488769531 185.3599395751953 352.7888488769531 M 185.3599395751953 354.7888488769531 C 184.3511199951172 354.7888488769531 183.4828796386719 354.1166687011719 183.2315521240234 353.1481323242188 C 182.8449401855469 351.7184753417969 181.9343414306641 349.2872314453125 181.0054016113281 348.4343872070313 C 179.5599670410156 347.1100463867188 178.4618530273438 346.3977966308594 176.1371002197266 345.9374389648438 C 175.1061096191406 345.7367248535156 174.3599548339844 344.8327331542969 174.3599548339844 343.780029296875 C 174.3599548339844 342.7533874511719 175.0903778076172 341.849609375 176.0967559814453 341.6309814453125 C 176.1090240478516 341.6282958984375 176.1213073730469 341.6257629394531 176.1336364746094 341.6233215332031 C 178.4642333984375 341.1628112792969 179.5615539550781 340.4509582519531 181.0055541992188 339.1255493164063 C 181.9360046386719 338.2713623046875 182.847412109375 335.8372192382813 183.2330017089844 334.4094848632813 C 183.2332153320313 334.40869140625 183.2334442138672 334.4078674316406 183.2336578369141 334.4070739746094 C 183.4866638183594 333.45263671875 184.3561401367188 332.7889709472656 185.35986328125 332.7889709472656 C 186.3558959960938 332.7889709472656 187.229736328125 333.4513549804688 187.4848937988281 334.3997802734375 C 187.4884643554688 334.4130554199219 187.4918975830078 334.4263305664063 187.4951782226563 334.4396667480469 C 187.7786865234375 335.5335693359375 188.7267608642578 338.218994140625 189.71435546875 339.1256103515625 C 191.1582641601563 340.4509887695313 192.2555847167969 341.1628112792969 194.5861358642578 341.6233215332031 C 194.5983734130859 341.625732421875 194.6105651855469 341.6282653808594 194.6227416992188 341.6309204101563 C 195.6293029785156 341.8494262695313 196.35986328125 342.7532653808594 196.35986328125 343.780029296875 C 196.35986328125 344.83349609375 195.6126556396484 345.7379760742188 194.5805358886719 345.9378662109375 C 192.2538909912109 346.3983764648438 191.1571807861328 347.1101379394531 189.7142791748047 348.4345397949219 C 188.8157958984375 349.2579956054688 187.8593292236328 351.7178955078125 187.493896484375 353.1255493164063 C 187.4910583496094 353.136962890625 187.4881134033203 353.1483459472656 187.4850616455078 353.15966796875 C 187.2273101806641 354.118896484375 186.3534240722656 354.7888488769531 185.3599395751953 354.7888488769531 Z"/>
  </g>
</svg>
