<svg xmlns="http://www.w3.org/2000/svg" xmlns:xlink="http://www.w3.org/1999/xlink" width="279.509" height="280.297" viewBox="0 0 279.509 280.297">
  <defs>
    <radialGradient id="radial-gradient" cx="0.502" cy="0.503" r="0.499" gradientTransform="translate(-0.001 0)" gradientUnits="objectBoundingBox">
      <stop offset="0" stop-color="#fff"/>
      <stop offset="0.488" stop-color="#fff" stop-opacity="0.569"/>
      <stop offset="1" stop-color="#fff" stop-opacity="0"/>
    </radialGradient>
  </defs>
  <path id="後光" d="M215.018,246.015a4.59,4.59,0,0,0-.486-1.685l124.817-52.277a139.089,139.089,0,0,0-30.45-45.182L213.484,242.98a4.619,4.619,0,0,0-1.477-.881l51.509-125.354a138.974,138.974,0,0,0-53.086-10.456l-1.486.014,1.267,135.524a4.6,4.6,0,0,0-1.393.283L156.55,117.072a139.166,139.166,0,0,0-45.194,30.4l96.029,95.5a4.615,4.615,0,0,0-1.081,1.4L81.178,192.837a139.023,139.023,0,0,0-10.5,53.205v.145l135.16-.128a5.782,5.782,0,0,0,.2,1.775L81.4,299.794a139.182,139.182,0,0,0,30.351,45.219l95.2-95.542a4.628,4.628,0,0,0,1.6,1.194L157.083,375.236c16.963,7.006,34.142,11.35,52.578,11.35l.761-135.517h.007a4.6,4.6,0,0,0,1.88-.406L264.048,375.12A139.2,139.2,0,0,0,309.3,344.814l-95.442-95.288a4.607,4.607,0,0,0,.951-1.648l124.756,51.643a139.023,139.023,0,0,0,10.618-53.478v-.29Z" transform="translate(-70.674 -106.289)" fill="url(#radial-gradient)"/>
</svg>
