<svg xmlns="http://www.w3.org/2000/svg" width="18.547" height="18.547" viewBox="0 0 18.547 18.547">
  <defs>
    <style>
      .cls-1 {
        fill: #f6ffa8;
        stroke-linecap: round;
        stroke-linejoin: round;
      }

      .cls-2, .cls-3 {
        stroke: none;
      }

      .cls-3 {
        fill: #fff;
      }
    </style>
  </defs>
  <g id="_4" data-name="4" class="cls-1" transform="translate(-174.36 -332.789)">
    <path class="cls-2" d="M 183.6336059570313 350.3362121582031 C 183.1003265380859 350.3362121582031 182.6415557861328 349.9812316894531 182.5096130371094 349.4699096679688 L 182.5096130371094 349.4699096679688 C 182.2251739501953 348.41650390625 181.4456481933594 346.2025146484375 180.5312042236328 345.3629760742188 C 179.302734375 344.2373962402344 178.3103637695313 343.592529296875 176.2993011474609 343.1943664550781 C 175.7544555664063 343.0890502929688 175.3599548339844 342.6114807128906 175.3599548339844 342.0553894042969 C 175.3599548339844 341.5133666992188 175.7462615966797 341.0362243652344 176.2785034179688 340.9208374023438 L 176.2875061035156 340.9188842773438 L 176.2965240478516 340.9171142578125 C 178.3125152587891 340.5187377929688 179.3043365478516 339.8740234375 180.5312652587891 338.7477722167969 C 181.4459838867188 337.9080810546875 182.2253723144531 335.6956176757813 182.5096740722656 334.6430358886719 L 182.5103759765625 334.6404724121094 C 182.6424865722656 334.1383056640625 183.1021118164063 333.7889404296875 183.6335754394531 333.7889404296875 C 184.1603393554688 333.7889404296875 184.6218109130859 334.1366577148438 184.7557830810547 334.6345520019531 L 184.7640686035156 334.6653442382813 L 184.7655181884766 334.6725158691406 C 184.9360198974609 335.3299865722656 185.7353057861328 337.8292236328125 186.7359466552734 338.747802734375 C 187.9628295898438 339.8740234375 188.9546203613281 340.5187377929688 190.9705963134766 340.9171142578125 L 190.9795837402344 340.9188842773438 L 190.9885406494141 340.9208068847656 C 191.5208587646484 341.0361633300781 191.9072265625 341.5133361816406 191.9072265625 342.0553894042969 C 191.9072265625 342.6111755371094 191.5131683349609 343.0885009765625 190.9687652587891 343.1941833496094 C 188.9541625976563 343.5924682617188 187.9625396728516 344.2371520996094 186.7359008789063 345.363037109375 C 185.8251190185547 346.1977844238281 185.0171356201172 348.4640502929688 184.7637023925781 349.445556640625 L 184.7622222900391 349.4524230957031 L 184.7557373046875 349.4765014648438 C 184.6194152832031 349.9826965332031 184.1579742431641 350.3362121582031 183.6336059570313 350.3362121582031 Z"/>
    <path class="cls-3" d="M 183.6336059570313 349.3362121582031 C 183.7071075439453 349.3362121582031 183.7711639404297 349.2868957519531 183.7901306152344 349.2164611816406 C 183.7972259521484 349.1836547851563 184.6557159423828 345.9130859375 186.0596923828125 344.6263427734375 C 187.3948822021484 343.4007873535156 188.5427551269531 342.6541442871094 190.7767486572266 342.2127685546875 C 190.8526611328125 342.1986999511719 190.9072265625 342.1329040527344 190.9072265625 342.0553894042969 C 190.9072265625 341.9802856445313 190.8526611328125 341.9145812988281 190.7767486572266 341.8981323242188 C 188.5427551269531 341.4566955566406 187.3948822021484 340.7101135253906 186.0596923828125 339.4844665527344 C 184.6581115722656 338.1978454589844 183.7972259521484 334.9295654296875 183.7901306152344 334.8943786621094 C 183.771240234375 334.8241882324219 183.7023620605469 334.7889404296875 183.6335601806641 334.7889404296875 C 183.5641937255859 334.7889404296875 183.4949035644531 334.8247680664063 183.4770050048828 334.896728515625 C 183.4675750732422 334.9295654296875 182.6090698242188 338.1978454589844 181.2074890136719 339.4844665527344 C 179.8722686767578 340.7101135253906 178.7243957519531 341.4566955566406 176.4903717041016 341.8981323242188 C 176.4144897460938 341.9145812988281 176.3599548339844 341.9802856445313 176.3599548339844 342.0553894042969 C 176.3599548339844 342.1329040527344 176.4144897460938 342.1986999511719 176.4903717041016 342.2127685546875 C 178.7220916748047 342.6541442871094 179.8699035644531 343.4007873535156 181.2074890136719 344.6263427734375 C 182.6090698242188 345.9130859375 183.4675750732422 349.1836547851563 183.4770050048828 349.2164611816406 C 183.49365234375 349.2868957519531 183.5600738525391 349.3362121582031 183.6336059570313 349.3362121582031 M 183.6336059570313 351.3362121582031 C 182.6430511474609 351.3362121582031 181.7902526855469 350.676025390625 181.5425872802734 349.7247009277344 C 181.1749877929688 348.3661193847656 180.4440155029297 346.6404418945313 179.8549194335938 346.099609375 C 178.7178802490234 345.0578308105469 177.9057312011719 344.5319519042969 176.106201171875 344.175537109375 C 175.0931701660156 343.9780883789063 174.3599548339844 343.0896606445313 174.3599548339844 342.0553894042969 C 174.3599548339844 341.0460815429688 175.0777130126953 340.1579284667969 176.0666351318359 339.9435424804688 C 176.0786285400391 339.94091796875 176.0906372070313 339.9384460449219 176.1026763916016 339.9360656738281 C 177.9074554443359 339.5794372558594 178.7188568115234 339.0540161132813 179.8550262451172 338.0110778808594 C 180.4452056884766 337.4693298339844 181.1773834228516 335.7406005859375 181.5442657470703 334.3822937011719 C 181.5443420410156 334.3820190429688 181.5444183349609 334.3817749023438 181.5444793701172 334.3815002441406 C 181.793701171875 333.4420776367188 182.6479339599609 332.7889404296875 183.6335754394531 332.7889404296875 C 184.6116027832031 332.7889404296875 185.4701538085938 333.4410095214844 185.7214050292969 334.3746337890625 C 185.7247772216797 334.3871154785156 185.7280120849609 334.3996276855469 185.7311248779297 334.4121704101563 C 186.0270385742188 335.5474548339844 186.7740478515625 337.4253234863281 187.4121856689453 338.0111083984375 C 188.5482940673828 339.0540161132813 189.3596801757813 339.5794372558594 191.1644439697266 339.9360656738281 C 191.1764373779297 339.9384155273438 191.1883850097656 339.94091796875 191.2003326416016 339.9435119628906 C 192.1893768310547 340.1578369140625 192.9072265625 341.0460205078125 192.9072265625 342.0553894042969 C 192.9072265625 343.0906066894531 192.1726684570313 343.9797058105469 191.1581878662109 344.1760559082031 C 189.3579406738281 344.5325927734375 188.5470275878906 345.0580444335938 187.412109375 346.0997619628906 C 186.7748107910156 346.6838684082031 186.0265808105469 348.5662536621094 185.729736328125 349.7042541503906 C 185.7270202636719 349.7150268554688 185.7242126464844 349.7257995605469 185.7213134765625 349.7365417480469 C 185.4676818847656 350.6784057617188 184.6091766357422 351.3362121582031 183.6336059570313 351.3362121582031 Z"/>
  </g>
</svg>
