<svg xmlns="http://www.w3.org/2000/svg" width="22" height="22" viewBox="0 0 22 22">
  <defs>
    <style>
      .cls-1 {
        fill: #f6ffa8;
        stroke-linecap: round;
        stroke-linejoin: round;
      }

      .cls-2, .cls-3 {
        stroke: none;
      }

      .cls-3 {
        fill: #fff;
      }
    </style>
  </defs>
  <g id="_6" data-name="6" class="cls-1" transform="translate(-174.36 -332.789)">
    <path class="cls-2" d="M 185.3600158691406 353.7890625 C 184.8083953857422 353.7890625 184.3340454101563 353.4218444824219 184.1985473632813 352.8931274414063 L 184.1984252929688 352.8927307128906 C 183.81396484375 351.4684448242188 182.8512878417969 348.7715759277344 181.6817779541016 347.6979064941406 C 180.1288757324219 346.2750549316406 178.8743591308594 345.4599914550781 176.3302154541016 344.9563903808594 C 175.7674255371094 344.8477783203125 175.3599548339844 344.3545227050781 175.3599548339844 343.7801208496094 C 175.3599548339844 343.2205505371094 175.7591094970703 342.7277221679688 176.3090667724609 342.6082763671875 L 176.3182678222656 342.6062622070313 L 176.3274841308594 342.6044616699219 C 178.8772583007813 342.1006164550781 180.1311340332031 341.2857055664063 181.6818389892578 339.8623046875 C 182.8515930175781 338.7884826660156 183.8141632080078 336.0933837890625 184.198486328125 334.6702270507813 L 184.1993865966797 334.6669616699219 C 184.3349914550781 334.1492919921875 184.8101043701172 333.7889709472656 185.3599548339844 333.7889709472656 C 185.9046173095703 333.7889709472656 186.3813629150391 334.1469421386719 186.5193176269531 334.6594848632813 L 186.5276031494141 334.6902770996094 L 186.5292205810547 334.6982727050781 C 186.7395782470703 335.5171203613281 187.7484893798828 338.6783752441406 189.0382232666016 339.8623352050781 C 190.5888671875 341.2857055664063 191.8427276611328 342.1006469726563 194.3924560546875 342.6044616699219 L 194.4016265869141 342.6062622070313 L 194.4107513427734 342.6082458496094 C 194.9608154296875 342.7276611328125 195.3600463867188 343.2204895019531 195.3600463867188 343.7801208496094 C 195.3600463867188 344.3542785644531 194.9528656005859 344.8472900390625 194.3904571533203 344.9562377929688 C 191.8421478271484 345.4600219726563 190.5886077880859 346.2748718261719 189.0381774902344 347.6979675292969 C 187.7733917236328 348.857177734375 186.7812042236328 351.881103515625 186.5273895263672 352.869384765625 L 186.5258178710938 352.8766479492188 L 186.5193634033203 352.9006042480469 C 186.3786926269531 353.4237060546875 185.9019470214844 353.7890625 185.3600158691406 353.7890625 Z"/>
    <path class="cls-3" d="M 185.3600158691406 352.7890625 C 185.4509582519531 352.7890625 185.5302429199219 352.7280578613281 185.5536804199219 352.6408996582031 C 185.5624694824219 352.6002807617188 186.624755859375 348.5534362792969 188.3619689941406 346.9612731933594 C 190.0140686035156 345.44482421875 191.4343566894531 344.5209655761719 194.1986083984375 343.9748229980469 C 194.2925415039063 343.9574279785156 194.3600463867188 343.8759765625 194.3600463867188 343.7801208496094 C 194.3600463867188 343.6871643066406 194.2925415039063 343.6058654785156 194.1986083984375 343.5854797363281 C 191.4343566894531 343.0392761230469 190.0140686035156 342.1155090332031 188.3619689941406 340.5989990234375 C 186.627685546875 339.0069580078125 185.5624694824219 334.9629516601563 185.5536804199219 334.9194030761719 C 185.5303039550781 334.8325500488281 185.4450836181641 334.7889709472656 185.3599700927734 334.7889709472656 C 185.2741241455078 334.7889709472656 185.1884002685547 334.8332824707031 185.166259765625 334.9223022460938 C 185.1546020507813 334.9629516601563 184.0923156738281 339.0069580078125 182.3580627441406 340.5989990234375 C 180.7059326171875 342.1155090332031 179.2856140136719 343.0392761230469 176.5213317871094 343.5854797363281 C 176.4274597167969 343.6058654785156 176.3599548339844 343.6871643066406 176.3599548339844 343.7801208496094 C 176.3599548339844 343.8759765625 176.4274597167969 343.9574279785156 176.5213317871094 343.9748229980469 C 179.2827453613281 344.5209655761719 180.7030029296875 345.44482421875 182.3580627441406 346.9612731933594 C 184.0923156738281 348.5534362792969 185.1546020507813 352.6002807617188 185.166259765625 352.6408996582031 C 185.1868591308594 352.7280578613281 185.26904296875 352.7890625 185.3600158691406 352.7890625 M 185.3600158691406 354.7890625 C 184.3512573242188 354.7890625 183.4829864501953 354.1169128417969 183.2316436767578 353.1483764648438 C 182.8451690673828 351.7188415527344 181.9346771240234 349.28759765625 181.0054931640625 348.4345397949219 C 179.560546875 347.1106262207031 178.4628295898438 346.3984680175781 176.1398315429688 345.9381103515625 C 175.1073913574219 345.7384338378906 174.3599548339844 344.8337097167969 174.3599548339844 343.7801208496094 C 174.3599548339844 342.7534790039063 175.0903930664063 341.8496704101563 176.0968017578125 341.6310729980469 C 176.1090545654297 341.6283874511719 176.121337890625 341.6258544921875 176.1336364746094 341.6234130859375 C 178.4642944335938 341.1629028320313 179.5616302490234 340.4510498046875 181.005615234375 339.1256103515625 C 181.9361114501953 338.2714233398438 182.8475036621094 335.8372497558594 183.2330780029297 334.4095153808594 C 183.2332916259766 334.4087219238281 183.2335052490234 334.4079284667969 183.2337188720703 334.4071655273438 C 183.4867248535156 333.4526672363281 184.356201171875 332.7889709472656 185.3599548339844 332.7889709472656 C 186.3559265136719 332.7889709472656 187.2297515869141 333.4512939453125 187.4849700927734 334.399658203125 C 187.4886016845703 334.4131469726563 187.4920959472656 334.4266662597656 187.4954376220703 334.4402465820313 C 187.7790069580078 335.5343322753906 188.7268676757813 338.2190551757813 189.7144775390625 339.1256408691406 C 191.1583862304688 340.4510498046875 192.2557067871094 341.1629028320313 194.5863037109375 341.6234130859375 C 194.5985260009766 341.6258239746094 194.6107177734375 341.6283569335938 194.6228790283203 341.6310119628906 C 195.6294708251953 341.8495178222656 196.3600463867188 342.7533264160156 196.3600463867188 343.7801208496094 C 196.3600463867188 344.8334350585938 195.6129302978516 345.7379455566406 194.5809173583984 345.9379577636719 C 192.2542724609375 346.3984069824219 191.1573181152344 347.1102294921875 189.7144012451172 348.4346923828125 C 188.7292022705078 349.3376159667969 187.7787170410156 352.0295104980469 187.4940490722656 353.1256103515625 C 187.4911651611328 353.13720703125 187.4881591796875 353.1487731933594 187.4850616455078 353.1603088378906 C 187.2271575927734 354.1192932128906 186.3533172607422 354.7890625 185.3600158691406 354.7890625 Z"/>
  </g>
</svg>
